M48
;DRILL file {KiCad 0.201506192325+5795~23~ubuntu14.04.1-product} date Wed 04 Nov 2015 00:53:18 GMT
;FORMAT={-:-/ absolute / metric / decimal}
FMAT,2
METRIC,TZ
T1C0.305
T2C1.016
%
G90
G05
M71
T1
X134.112Y-85.344
X134.366Y-96.901
X134.747Y-91.186
X135.128Y-83.312
X135.255Y-101.727
X136.271Y-84.836
X137.236Y-107.074
X137.287Y-106.299
X138.557Y-83.693
X139.573Y-118.364
X140.589Y-94.869
X140.843Y-88.011
X143.764Y-83.439
X143.764Y-86.868
X144.78Y-121.031
X146.05Y-99.695
X147.066Y-97.536
X148.336Y-97.663
X149.606Y-97.79
X149.733Y-83.058
X150.114Y-101.092
X150.241Y-99.949
X150.876Y-99.06
X151.384Y-84.455
X152.4Y-98.679
X153.162Y-103.632
X154.813Y-93.853
X155.575Y-101.981
T2
X134.62Y-123.19
X137.16Y-123.19
X139.7Y-123.19
X142.24Y-123.19
X144.78Y-123.19
X147.32Y-123.19
X149.86Y-123.19
X152.4Y-123.19
X154.94Y-123.19
X157.48Y-85.09
X157.48Y-87.63
X157.48Y-90.17
X157.48Y-92.71
X157.48Y-115.57
X157.48Y-118.11
X157.48Y-120.65
X157.48Y-123.19
T0
M30
