G04 #@! TF.FileFunction,Legend,Top*
%FSLAX46Y46*%
G04 Gerber Fmt 4.6, Leading zero omitted, Abs format (unit mm)*
G04 Created by KiCad (PCBNEW 0.201503090816+5484~22~ubuntu14.04.1-product) date Sat 30 May 2015 18:50:36 BST*
%MOMM*%
G01*
G04 APERTURE LIST*
%ADD10C,0.100000*%
%ADD11C,0.150000*%
%ADD12C,0.050000*%
G04 APERTURE END LIST*
D10*
D11*
X134525099Y-88015652D02*
X134878652Y-87662099D01*
X134206901Y-86990348D02*
X133853348Y-87343901D01*
X137762901Y-90546348D02*
X137409348Y-90899901D01*
X138081099Y-91571652D02*
X138434652Y-91218099D01*
X148205000Y-83853000D02*
X147705000Y-83853000D01*
X147705000Y-84803000D02*
X148205000Y-84803000D01*
X141511000Y-83697000D02*
X141511000Y-84197000D01*
X142461000Y-84197000D02*
X142461000Y-83697000D01*
X142371000Y-86200000D02*
X142871000Y-86200000D01*
X142871000Y-85250000D02*
X142371000Y-85250000D01*
X138053000Y-86200000D02*
X138553000Y-86200000D01*
X138553000Y-85250000D02*
X138053000Y-85250000D01*
X139859099Y-91825652D02*
X140212652Y-91472099D01*
X139540901Y-90800348D02*
X139187348Y-91153901D01*
X138815000Y-88486000D02*
X139315000Y-88486000D01*
X139315000Y-87536000D02*
X138815000Y-87536000D01*
X147705000Y-86200000D02*
X148205000Y-86200000D01*
X148205000Y-85250000D02*
X147705000Y-85250000D01*
X148967000Y-96172000D02*
X148467000Y-96172000D01*
X148467000Y-97122000D02*
X148967000Y-97122000D01*
X143477000Y-117979000D02*
X143477000Y-117479000D01*
X142527000Y-117479000D02*
X142527000Y-117979000D01*
X152142000Y-104300000D02*
X151642000Y-104300000D01*
X151642000Y-105250000D02*
X152142000Y-105250000D01*
X147692000Y-101997000D02*
X147692000Y-103997000D01*
X149742000Y-103997000D02*
X149742000Y-101997000D01*
X139950000Y-106967000D02*
X139450000Y-106967000D01*
X139450000Y-107917000D02*
X139950000Y-107917000D01*
X136529652Y-92296901D02*
X136176099Y-91943348D01*
X135504348Y-92615099D02*
X135857901Y-92968652D01*
X135513652Y-93312901D02*
X135160099Y-92959348D01*
X134488348Y-93631099D02*
X134841901Y-93984652D01*
X156014420Y-103563420D02*
X156913580Y-103563420D01*
X156913580Y-103563420D02*
X156913580Y-103164640D01*
X156014420Y-103164640D02*
X156913580Y-103164640D01*
X156014420Y-103563420D02*
X156014420Y-103164640D01*
X156014420Y-104861360D02*
X156913580Y-104861360D01*
X156913580Y-104861360D02*
X156913580Y-104462580D01*
X156014420Y-104462580D02*
X156913580Y-104462580D01*
X156014420Y-104861360D02*
X156014420Y-104462580D01*
X156014420Y-104013000D02*
X156164280Y-104013000D01*
X156164280Y-104013000D02*
X156164280Y-103713280D01*
X156014420Y-103713280D02*
X156164280Y-103713280D01*
X156014420Y-104013000D02*
X156014420Y-103713280D01*
X156763720Y-104013000D02*
X156913580Y-104013000D01*
X156913580Y-104013000D02*
X156913580Y-103713280D01*
X156763720Y-103713280D02*
X156913580Y-103713280D01*
X156763720Y-104013000D02*
X156763720Y-103713280D01*
X156314140Y-104013000D02*
X156613860Y-104013000D01*
X156613860Y-104013000D02*
X156613860Y-103713280D01*
X156314140Y-103713280D02*
X156613860Y-103713280D01*
X156314140Y-104013000D02*
X156314140Y-103713280D01*
X156065220Y-103563420D02*
X156065220Y-104462580D01*
X156862780Y-103563420D02*
X156862780Y-104462580D01*
X146626580Y-104589580D02*
X145727420Y-104589580D01*
X145727420Y-104589580D02*
X145727420Y-104988360D01*
X146626580Y-104988360D02*
X145727420Y-104988360D01*
X146626580Y-104589580D02*
X146626580Y-104988360D01*
X146626580Y-103291640D02*
X145727420Y-103291640D01*
X145727420Y-103291640D02*
X145727420Y-103690420D01*
X146626580Y-103690420D02*
X145727420Y-103690420D01*
X146626580Y-103291640D02*
X146626580Y-103690420D01*
X146626580Y-104140000D02*
X146476720Y-104140000D01*
X146476720Y-104140000D02*
X146476720Y-104439720D01*
X146626580Y-104439720D02*
X146476720Y-104439720D01*
X146626580Y-104140000D02*
X146626580Y-104439720D01*
X145877280Y-104140000D02*
X145727420Y-104140000D01*
X145727420Y-104140000D02*
X145727420Y-104439720D01*
X145877280Y-104439720D02*
X145727420Y-104439720D01*
X145877280Y-104140000D02*
X145877280Y-104439720D01*
X146326860Y-104140000D02*
X146027140Y-104140000D01*
X146027140Y-104140000D02*
X146027140Y-104439720D01*
X146326860Y-104439720D02*
X146027140Y-104439720D01*
X146326860Y-104140000D02*
X146326860Y-104439720D01*
X146575780Y-104589580D02*
X146575780Y-103690420D01*
X145778220Y-104589580D02*
X145778220Y-103690420D01*
X152585420Y-88704420D02*
X153484580Y-88704420D01*
X153484580Y-88704420D02*
X153484580Y-88305640D01*
X152585420Y-88305640D02*
X153484580Y-88305640D01*
X152585420Y-88704420D02*
X152585420Y-88305640D01*
X152585420Y-90002360D02*
X153484580Y-90002360D01*
X153484580Y-90002360D02*
X153484580Y-89603580D01*
X152585420Y-89603580D02*
X153484580Y-89603580D01*
X152585420Y-90002360D02*
X152585420Y-89603580D01*
X152585420Y-89154000D02*
X152735280Y-89154000D01*
X152735280Y-89154000D02*
X152735280Y-88854280D01*
X152585420Y-88854280D02*
X152735280Y-88854280D01*
X152585420Y-89154000D02*
X152585420Y-88854280D01*
X153334720Y-89154000D02*
X153484580Y-89154000D01*
X153484580Y-89154000D02*
X153484580Y-88854280D01*
X153334720Y-88854280D02*
X153484580Y-88854280D01*
X153334720Y-89154000D02*
X153334720Y-88854280D01*
X152885140Y-89154000D02*
X153184860Y-89154000D01*
X153184860Y-89154000D02*
X153184860Y-88854280D01*
X152885140Y-88854280D02*
X153184860Y-88854280D01*
X152885140Y-89154000D02*
X152885140Y-88854280D01*
X152636220Y-88704420D02*
X152636220Y-89603580D01*
X153433780Y-88704420D02*
X153433780Y-89603580D01*
X158750000Y-91440000D02*
X158750000Y-83820000D01*
X156210000Y-91440000D02*
X156210000Y-83820000D01*
X156210000Y-93980000D02*
X156210000Y-91440000D01*
X158750000Y-83820000D02*
X156210000Y-83820000D01*
X156210000Y-91440000D02*
X158750000Y-91440000D01*
X156210000Y-93980000D02*
X158750000Y-93980000D01*
X158750000Y-93980000D02*
X158750000Y-91440000D01*
X134814454Y-99481008D02*
X135168008Y-99127454D01*
X134425546Y-98384992D02*
X134071992Y-98738546D01*
X156722000Y-112285000D02*
X157222000Y-112285000D01*
X157222000Y-111235000D02*
X156722000Y-111235000D01*
X153560000Y-85213000D02*
X153560000Y-84713000D01*
X152510000Y-84713000D02*
X152510000Y-85213000D01*
X156841000Y-95995000D02*
X156341000Y-95995000D01*
X156341000Y-97045000D02*
X156841000Y-97045000D01*
X155939000Y-106684000D02*
X155939000Y-107184000D01*
X156989000Y-107184000D02*
X156989000Y-106684000D01*
X142985000Y-104906000D02*
X142985000Y-105406000D01*
X144035000Y-105406000D02*
X144035000Y-104906000D01*
X140572000Y-104906000D02*
X140572000Y-105406000D01*
X141622000Y-105406000D02*
X141622000Y-104906000D01*
X148967000Y-99297000D02*
X148467000Y-99297000D01*
X148467000Y-100347000D02*
X148967000Y-100347000D01*
X146702000Y-101723000D02*
X146702000Y-101223000D01*
X145652000Y-101223000D02*
X145652000Y-101723000D01*
X150131000Y-116836000D02*
X150131000Y-116336000D01*
X149081000Y-116336000D02*
X149081000Y-116836000D01*
X152510000Y-91571000D02*
X152510000Y-92071000D01*
X153560000Y-92071000D02*
X153560000Y-91571000D01*
X141663000Y-88069000D02*
X142188000Y-88069000D01*
X148913000Y-95319000D02*
X148388000Y-95319000D01*
X148913000Y-88069000D02*
X148388000Y-88069000D01*
X141663000Y-95319000D02*
X141663000Y-94794000D01*
X148913000Y-95319000D02*
X148913000Y-94794000D01*
X148913000Y-88069000D02*
X148913000Y-88594000D01*
X141663000Y-88069000D02*
X141663000Y-88594000D01*
X158750000Y-119380000D02*
X158750000Y-114300000D01*
X158750000Y-114300000D02*
X156210000Y-114300000D01*
X156210000Y-114300000D02*
X156210000Y-119380000D01*
X156210000Y-121920000D02*
X156210000Y-119380000D01*
X156210000Y-119380000D02*
X158750000Y-119380000D01*
X156210000Y-121920000D02*
X158750000Y-121920000D01*
X158750000Y-121920000D02*
X158750000Y-119380000D01*
D12*
X153042000Y-100881000D02*
G75*
G03X153042000Y-100881000I-50000J0D01*
G01*
X152892000Y-100981000D02*
X152892000Y-102981000D01*
X152892000Y-102981000D02*
X150892000Y-102981000D01*
X150892000Y-102981000D02*
X150892000Y-100981000D01*
X150892000Y-100981000D02*
X152892000Y-100981000D01*
X140812711Y-111913000D02*
G75*
G03X140812711Y-111913000I-70711J0D01*
G01*
X137742000Y-111813000D02*
X137742000Y-108913000D01*
X137742000Y-108913000D02*
X140642000Y-108913000D01*
X140642000Y-108913000D02*
X140642000Y-111813000D01*
X140642000Y-111813000D02*
X137742000Y-111813000D01*
D11*
X134553010Y-89104223D02*
X136320777Y-90871990D01*
X136320777Y-90871990D02*
X137734990Y-89457777D01*
X137734990Y-89457777D02*
X135967223Y-87690010D01*
X135967223Y-87690010D02*
X134553010Y-89104223D01*
X139683254Y-93759959D02*
X137066959Y-96376254D01*
X137066959Y-96376254D02*
X135652746Y-94962041D01*
X135652746Y-94962041D02*
X138269041Y-92345746D01*
X138269041Y-92345746D02*
X139683254Y-93759959D01*
X135272678Y-103158891D02*
X136686891Y-101744678D01*
X135237322Y-100295109D02*
X133823109Y-101709322D01*
X157241240Y-101121160D02*
X157241240Y-101072900D01*
X156540200Y-98322180D02*
X157241240Y-98322180D01*
X157241240Y-98322180D02*
X157241240Y-98571100D01*
X157241240Y-101121160D02*
X157241240Y-101321820D01*
X157241240Y-101321820D02*
X156540200Y-101321820D01*
X153431240Y-117885160D02*
X153431240Y-117836900D01*
X152730200Y-115086180D02*
X153431240Y-115086180D01*
X153431240Y-115086180D02*
X153431240Y-115335100D01*
X153431240Y-117885160D02*
X153431240Y-118085820D01*
X153431240Y-118085820D02*
X152730200Y-118085820D01*
X139736751Y-96569777D02*
X139241777Y-97064751D01*
X138393249Y-96216223D02*
X138888223Y-95721249D01*
X136602223Y-98715751D02*
X136107249Y-98220777D01*
X136955777Y-97372249D02*
X137450751Y-97867223D01*
X145030000Y-85200000D02*
X144530000Y-85200000D01*
X144530000Y-86250000D02*
X145030000Y-86250000D01*
X146046000Y-83803000D02*
X145546000Y-83803000D01*
X145546000Y-84853000D02*
X146046000Y-84853000D01*
X140212000Y-86250000D02*
X140712000Y-86250000D01*
X140712000Y-85200000D02*
X140212000Y-85200000D01*
X139504150Y-97539256D02*
X140211256Y-96832150D01*
X141165850Y-97786744D02*
X140458744Y-98493850D01*
X138878454Y-99862008D02*
X139232008Y-99508454D01*
X138489546Y-98765992D02*
X138135992Y-99119546D01*
X135890000Y-121920000D02*
X158750000Y-121920000D01*
X158750000Y-121920000D02*
X158750000Y-124460000D01*
X158750000Y-124460000D02*
X135890000Y-124460000D01*
X133070000Y-121640000D02*
X134620000Y-121640000D01*
X135890000Y-121920000D02*
X135890000Y-124460000D01*
X134620000Y-124740000D02*
X133070000Y-124740000D01*
X133070000Y-124740000D02*
X133070000Y-121640000D01*
X133992688Y-86603389D02*
X133992688Y-86670732D01*
X133925344Y-86805419D01*
X133858001Y-86872763D01*
X133723313Y-86940107D01*
X133588626Y-86940107D01*
X133487611Y-86906435D01*
X133319253Y-86805420D01*
X133218237Y-86704404D01*
X133117222Y-86536045D01*
X133083550Y-86435030D01*
X133083550Y-86300343D01*
X133150894Y-86165656D01*
X133218237Y-86098312D01*
X133352924Y-86030969D01*
X133420268Y-86030969D01*
X134733466Y-85997297D02*
X134329405Y-86401359D01*
X134531435Y-86199328D02*
X133824328Y-85492222D01*
X133858000Y-85660580D01*
X133858000Y-85795267D01*
X133824328Y-85896282D01*
X139453688Y-90032389D02*
X139453688Y-90099732D01*
X139386344Y-90234419D01*
X139319001Y-90301763D01*
X139184313Y-90369107D01*
X139049626Y-90369107D01*
X138948611Y-90335435D01*
X138780253Y-90234420D01*
X138679237Y-90133404D01*
X138578222Y-89965045D01*
X138544550Y-89864030D01*
X138544550Y-89729343D01*
X138611894Y-89594656D01*
X138679237Y-89527312D01*
X138813924Y-89459969D01*
X138881268Y-89459969D01*
X139150641Y-89190595D02*
X139150641Y-89123252D01*
X139184313Y-89022237D01*
X139352672Y-88853877D01*
X139453688Y-88820206D01*
X139521031Y-88820206D01*
X139622046Y-88853877D01*
X139689390Y-88921221D01*
X139756733Y-89055908D01*
X139756733Y-89864030D01*
X140194466Y-89426297D01*
X149947334Y-84685143D02*
X149899715Y-84732762D01*
X149756858Y-84780381D01*
X149661620Y-84780381D01*
X149518762Y-84732762D01*
X149423524Y-84637524D01*
X149375905Y-84542286D01*
X149328286Y-84351810D01*
X149328286Y-84208952D01*
X149375905Y-84018476D01*
X149423524Y-83923238D01*
X149518762Y-83828000D01*
X149661620Y-83780381D01*
X149756858Y-83780381D01*
X149899715Y-83828000D01*
X149947334Y-83875619D01*
X150280667Y-83780381D02*
X150899715Y-83780381D01*
X150566381Y-84161333D01*
X150709239Y-84161333D01*
X150804477Y-84208952D01*
X150852096Y-84256571D01*
X150899715Y-84351810D01*
X150899715Y-84589905D01*
X150852096Y-84685143D01*
X150804477Y-84732762D01*
X150709239Y-84780381D01*
X150423524Y-84780381D01*
X150328286Y-84732762D01*
X150280667Y-84685143D01*
X143740143Y-84113666D02*
X143787762Y-84161285D01*
X143835381Y-84304142D01*
X143835381Y-84399380D01*
X143787762Y-84542238D01*
X143692524Y-84637476D01*
X143597286Y-84685095D01*
X143406810Y-84732714D01*
X143263952Y-84732714D01*
X143073476Y-84685095D01*
X142978238Y-84637476D01*
X142883000Y-84542238D01*
X142835381Y-84399380D01*
X142835381Y-84304142D01*
X142883000Y-84161285D01*
X142930619Y-84113666D01*
X143168714Y-83256523D02*
X143835381Y-83256523D01*
X142787762Y-83494619D02*
X143502048Y-83732714D01*
X143502048Y-83113666D01*
X142454334Y-87352143D02*
X142406715Y-87399762D01*
X142263858Y-87447381D01*
X142168620Y-87447381D01*
X142025762Y-87399762D01*
X141930524Y-87304524D01*
X141882905Y-87209286D01*
X141835286Y-87018810D01*
X141835286Y-86875952D01*
X141882905Y-86685476D01*
X141930524Y-86590238D01*
X142025762Y-86495000D01*
X142168620Y-86447381D01*
X142263858Y-86447381D01*
X142406715Y-86495000D01*
X142454334Y-86542619D01*
X143359096Y-86447381D02*
X142882905Y-86447381D01*
X142835286Y-86923571D01*
X142882905Y-86875952D01*
X142978143Y-86828333D01*
X143216239Y-86828333D01*
X143311477Y-86875952D01*
X143359096Y-86923571D01*
X143406715Y-87018810D01*
X143406715Y-87256905D01*
X143359096Y-87352143D01*
X143311477Y-87399762D01*
X143216239Y-87447381D01*
X142978143Y-87447381D01*
X142882905Y-87399762D01*
X142835286Y-87352143D01*
X138136334Y-84812143D02*
X138088715Y-84859762D01*
X137945858Y-84907381D01*
X137850620Y-84907381D01*
X137707762Y-84859762D01*
X137612524Y-84764524D01*
X137564905Y-84669286D01*
X137517286Y-84478810D01*
X137517286Y-84335952D01*
X137564905Y-84145476D01*
X137612524Y-84050238D01*
X137707762Y-83955000D01*
X137850620Y-83907381D01*
X137945858Y-83907381D01*
X138088715Y-83955000D01*
X138136334Y-84002619D01*
X138993477Y-83907381D02*
X138803000Y-83907381D01*
X138707762Y-83955000D01*
X138660143Y-84002619D01*
X138564905Y-84145476D01*
X138517286Y-84335952D01*
X138517286Y-84716905D01*
X138564905Y-84812143D01*
X138612524Y-84859762D01*
X138707762Y-84907381D01*
X138898239Y-84907381D01*
X138993477Y-84859762D01*
X139041096Y-84812143D01*
X139088715Y-84716905D01*
X139088715Y-84478810D01*
X139041096Y-84383571D01*
X138993477Y-84335952D01*
X138898239Y-84288333D01*
X138707762Y-84288333D01*
X138612524Y-84335952D01*
X138564905Y-84383571D01*
X138517286Y-84478810D01*
X140469688Y-92953389D02*
X140469688Y-93020732D01*
X140402344Y-93155419D01*
X140335001Y-93222763D01*
X140200313Y-93290107D01*
X140065626Y-93290107D01*
X139964611Y-93256435D01*
X139796253Y-93155420D01*
X139695237Y-93054404D01*
X139594222Y-92886045D01*
X139560550Y-92785030D01*
X139560550Y-92650343D01*
X139627894Y-92515656D01*
X139695237Y-92448312D01*
X139829924Y-92380969D01*
X139897268Y-92380969D01*
X140537030Y-92212610D02*
X140436015Y-92246282D01*
X140368672Y-92246282D01*
X140267657Y-92212610D01*
X140233985Y-92178939D01*
X140200313Y-92077924D01*
X140200313Y-92010580D01*
X140233985Y-91909565D01*
X140368672Y-91774877D01*
X140469688Y-91741206D01*
X140537031Y-91741206D01*
X140638046Y-91774877D01*
X140671718Y-91808549D01*
X140705390Y-91909564D01*
X140705390Y-91976908D01*
X140671718Y-92077923D01*
X140537030Y-92212610D01*
X140503359Y-92313626D01*
X140503359Y-92380969D01*
X140537031Y-92481985D01*
X140671718Y-92616672D01*
X140772733Y-92650343D01*
X140840076Y-92650343D01*
X140941092Y-92616672D01*
X141075779Y-92481984D01*
X141109451Y-92380969D01*
X141109451Y-92313626D01*
X141075779Y-92212610D01*
X140941092Y-92077924D01*
X140840076Y-92044251D01*
X140772733Y-92044251D01*
X140671718Y-92077923D01*
X141073143Y-87669666D02*
X141120762Y-87717285D01*
X141168381Y-87860142D01*
X141168381Y-87955380D01*
X141120762Y-88098238D01*
X141025524Y-88193476D01*
X140930286Y-88241095D01*
X140739810Y-88288714D01*
X140596952Y-88288714D01*
X140406476Y-88241095D01*
X140311238Y-88193476D01*
X140216000Y-88098238D01*
X140168381Y-87955380D01*
X140168381Y-87860142D01*
X140216000Y-87717285D01*
X140263619Y-87669666D01*
X141168381Y-87193476D02*
X141168381Y-87003000D01*
X141120762Y-86907761D01*
X141073143Y-86860142D01*
X140930286Y-86764904D01*
X140739810Y-86717285D01*
X140358857Y-86717285D01*
X140263619Y-86764904D01*
X140216000Y-86812523D01*
X140168381Y-86907761D01*
X140168381Y-87098238D01*
X140216000Y-87193476D01*
X140263619Y-87241095D01*
X140358857Y-87288714D01*
X140596952Y-87288714D01*
X140692190Y-87241095D01*
X140739810Y-87193476D01*
X140787429Y-87098238D01*
X140787429Y-86907761D01*
X140739810Y-86812523D01*
X140692190Y-86764904D01*
X140596952Y-86717285D01*
X149979143Y-86082143D02*
X149931524Y-86129762D01*
X149788667Y-86177381D01*
X149693429Y-86177381D01*
X149550571Y-86129762D01*
X149455333Y-86034524D01*
X149407714Y-85939286D01*
X149360095Y-85748810D01*
X149360095Y-85605952D01*
X149407714Y-85415476D01*
X149455333Y-85320238D01*
X149550571Y-85225000D01*
X149693429Y-85177381D01*
X149788667Y-85177381D01*
X149931524Y-85225000D01*
X149979143Y-85272619D01*
X150931524Y-86177381D02*
X150360095Y-86177381D01*
X150645809Y-86177381D02*
X150645809Y-85177381D01*
X150550571Y-85320238D01*
X150455333Y-85415476D01*
X150360095Y-85463095D01*
X151550571Y-85177381D02*
X151645810Y-85177381D01*
X151741048Y-85225000D01*
X151788667Y-85272619D01*
X151836286Y-85367857D01*
X151883905Y-85558333D01*
X151883905Y-85796429D01*
X151836286Y-85986905D01*
X151788667Y-86082143D01*
X151741048Y-86129762D01*
X151645810Y-86177381D01*
X151550571Y-86177381D01*
X151455333Y-86129762D01*
X151407714Y-86082143D01*
X151360095Y-85986905D01*
X151312476Y-85796429D01*
X151312476Y-85558333D01*
X151360095Y-85367857D01*
X151407714Y-85272619D01*
X151455333Y-85225000D01*
X151550571Y-85177381D01*
X151106143Y-96908857D02*
X151153762Y-96956476D01*
X151201381Y-97099333D01*
X151201381Y-97194571D01*
X151153762Y-97337429D01*
X151058524Y-97432667D01*
X150963286Y-97480286D01*
X150772810Y-97527905D01*
X150629952Y-97527905D01*
X150439476Y-97480286D01*
X150344238Y-97432667D01*
X150249000Y-97337429D01*
X150201381Y-97194571D01*
X150201381Y-97099333D01*
X150249000Y-96956476D01*
X150296619Y-96908857D01*
X151201381Y-95956476D02*
X151201381Y-96527905D01*
X151201381Y-96242191D02*
X150201381Y-96242191D01*
X150344238Y-96337429D01*
X150439476Y-96432667D01*
X150487095Y-96527905D01*
X151201381Y-95004095D02*
X151201381Y-95575524D01*
X151201381Y-95289810D02*
X150201381Y-95289810D01*
X150344238Y-95385048D01*
X150439476Y-95480286D01*
X150487095Y-95575524D01*
X145059143Y-118371857D02*
X145106762Y-118419476D01*
X145154381Y-118562333D01*
X145154381Y-118657571D01*
X145106762Y-118800429D01*
X145011524Y-118895667D01*
X144916286Y-118943286D01*
X144725810Y-118990905D01*
X144582952Y-118990905D01*
X144392476Y-118943286D01*
X144297238Y-118895667D01*
X144202000Y-118800429D01*
X144154381Y-118657571D01*
X144154381Y-118562333D01*
X144202000Y-118419476D01*
X144249619Y-118371857D01*
X145154381Y-117419476D02*
X145154381Y-117990905D01*
X145154381Y-117705191D02*
X144154381Y-117705191D01*
X144297238Y-117800429D01*
X144392476Y-117895667D01*
X144440095Y-117990905D01*
X144154381Y-117086143D02*
X144154381Y-116467095D01*
X144535333Y-116800429D01*
X144535333Y-116657571D01*
X144582952Y-116562333D01*
X144630571Y-116514714D01*
X144725810Y-116467095D01*
X144963905Y-116467095D01*
X145059143Y-116514714D01*
X145106762Y-116562333D01*
X145154381Y-116657571D01*
X145154381Y-116943286D01*
X145106762Y-117038524D01*
X145059143Y-117086143D01*
X151249143Y-106656143D02*
X151201524Y-106703762D01*
X151058667Y-106751381D01*
X150963429Y-106751381D01*
X150820571Y-106703762D01*
X150725333Y-106608524D01*
X150677714Y-106513286D01*
X150630095Y-106322810D01*
X150630095Y-106179952D01*
X150677714Y-105989476D01*
X150725333Y-105894238D01*
X150820571Y-105799000D01*
X150963429Y-105751381D01*
X151058667Y-105751381D01*
X151201524Y-105799000D01*
X151249143Y-105846619D01*
X152201524Y-106751381D02*
X151630095Y-106751381D01*
X151915809Y-106751381D02*
X151915809Y-105751381D01*
X151820571Y-105894238D01*
X151725333Y-105989476D01*
X151630095Y-106037095D01*
X153058667Y-106084714D02*
X153058667Y-106751381D01*
X152820571Y-105703762D02*
X152582476Y-106418048D01*
X153201524Y-106418048D01*
X148074143Y-106529143D02*
X148026524Y-106576762D01*
X147883667Y-106624381D01*
X147788429Y-106624381D01*
X147645571Y-106576762D01*
X147550333Y-106481524D01*
X147502714Y-106386286D01*
X147455095Y-106195810D01*
X147455095Y-106052952D01*
X147502714Y-105862476D01*
X147550333Y-105767238D01*
X147645571Y-105672000D01*
X147788429Y-105624381D01*
X147883667Y-105624381D01*
X148026524Y-105672000D01*
X148074143Y-105719619D01*
X149026524Y-106624381D02*
X148455095Y-106624381D01*
X148740809Y-106624381D02*
X148740809Y-105624381D01*
X148645571Y-105767238D01*
X148550333Y-105862476D01*
X148455095Y-105910095D01*
X149931286Y-105624381D02*
X149455095Y-105624381D01*
X149407476Y-106100571D01*
X149455095Y-106052952D01*
X149550333Y-106005333D01*
X149788429Y-106005333D01*
X149883667Y-106052952D01*
X149931286Y-106100571D01*
X149978905Y-106195810D01*
X149978905Y-106433905D01*
X149931286Y-106529143D01*
X149883667Y-106576762D01*
X149788429Y-106624381D01*
X149550333Y-106624381D01*
X149455095Y-106576762D01*
X149407476Y-106529143D01*
X138152143Y-107830857D02*
X138199762Y-107878476D01*
X138247381Y-108021333D01*
X138247381Y-108116571D01*
X138199762Y-108259429D01*
X138104524Y-108354667D01*
X138009286Y-108402286D01*
X137818810Y-108449905D01*
X137675952Y-108449905D01*
X137485476Y-108402286D01*
X137390238Y-108354667D01*
X137295000Y-108259429D01*
X137247381Y-108116571D01*
X137247381Y-108021333D01*
X137295000Y-107878476D01*
X137342619Y-107830857D01*
X138247381Y-106878476D02*
X138247381Y-107449905D01*
X138247381Y-107164191D02*
X137247381Y-107164191D01*
X137390238Y-107259429D01*
X137485476Y-107354667D01*
X137533095Y-107449905D01*
X137247381Y-106021333D02*
X137247381Y-106211810D01*
X137295000Y-106307048D01*
X137342619Y-106354667D01*
X137485476Y-106449905D01*
X137675952Y-106497524D01*
X138056905Y-106497524D01*
X138152143Y-106449905D01*
X138199762Y-106402286D01*
X138247381Y-106307048D01*
X138247381Y-106116571D01*
X138199762Y-106021333D01*
X138152143Y-105973714D01*
X138056905Y-105926095D01*
X137818810Y-105926095D01*
X137723571Y-105973714D01*
X137675952Y-106021333D01*
X137628333Y-106116571D01*
X137628333Y-106307048D01*
X137675952Y-106402286D01*
X137723571Y-106449905D01*
X137818810Y-106497524D01*
X133531894Y-90348970D02*
X133464551Y-90348970D01*
X133329864Y-90281626D01*
X133262520Y-90214283D01*
X133195176Y-90079595D01*
X133195176Y-89944908D01*
X133228848Y-89843893D01*
X133329863Y-89675535D01*
X133430879Y-89574519D01*
X133599238Y-89473504D01*
X133700253Y-89439832D01*
X133834940Y-89439832D01*
X133969627Y-89507176D01*
X134036971Y-89574519D01*
X134104314Y-89709206D01*
X134104314Y-89776550D01*
X134137986Y-91089748D02*
X133733925Y-90685687D01*
X133935955Y-90887717D02*
X134643062Y-90180610D01*
X134474703Y-90214282D01*
X134340016Y-90214282D01*
X134239001Y-90180610D01*
X134946108Y-91089747D02*
X134912436Y-90988732D01*
X134912436Y-90921389D01*
X134946108Y-90820374D01*
X134979779Y-90786702D01*
X135080795Y-90753030D01*
X135148138Y-90753030D01*
X135249153Y-90786702D01*
X135383841Y-90921390D01*
X135417513Y-91022405D01*
X135417513Y-91089748D01*
X135383841Y-91190763D01*
X135350169Y-91224435D01*
X135249154Y-91258107D01*
X135181811Y-91258107D01*
X135080795Y-91224435D01*
X134946108Y-91089747D01*
X134845093Y-91056076D01*
X134777749Y-91056076D01*
X134676733Y-91089748D01*
X134542046Y-91224435D01*
X134508375Y-91325450D01*
X134508375Y-91392794D01*
X134542046Y-91493809D01*
X134676734Y-91628496D01*
X134777749Y-91662168D01*
X134845093Y-91662168D01*
X134946108Y-91628496D01*
X135080795Y-91493810D01*
X135114467Y-91392794D01*
X135114467Y-91325450D01*
X135080795Y-91224435D01*
X133277893Y-94285970D02*
X133210550Y-94285970D01*
X133075863Y-94218626D01*
X133008519Y-94151283D01*
X132941175Y-94016595D01*
X132941175Y-93881908D01*
X132974847Y-93780893D01*
X133075862Y-93612535D01*
X133176878Y-93511519D01*
X133345237Y-93410504D01*
X133446252Y-93376832D01*
X133580939Y-93376832D01*
X133715626Y-93444176D01*
X133782970Y-93511519D01*
X133850313Y-93646206D01*
X133850313Y-93713550D01*
X133883985Y-95026748D02*
X133479924Y-94622687D01*
X133681954Y-94824717D02*
X134389061Y-94117610D01*
X134220702Y-94151282D01*
X134086015Y-94151282D01*
X133985000Y-94117610D01*
X134220702Y-95363465D02*
X134355389Y-95498152D01*
X134456405Y-95531825D01*
X134523748Y-95531825D01*
X134692107Y-95498153D01*
X134860465Y-95397138D01*
X135129840Y-95127763D01*
X135163512Y-95026748D01*
X135163512Y-94959405D01*
X135129840Y-94858390D01*
X134995152Y-94723702D01*
X134894137Y-94690030D01*
X134826794Y-94690030D01*
X134725778Y-94723702D01*
X134557420Y-94892061D01*
X134523748Y-94993076D01*
X134523747Y-95060420D01*
X134557419Y-95161435D01*
X134692107Y-95296123D01*
X134793122Y-95329794D01*
X134860466Y-95329794D01*
X134961481Y-95296122D01*
X158313381Y-104751095D02*
X157313381Y-104751095D01*
X157313381Y-104513000D01*
X157361000Y-104370142D01*
X157456238Y-104274904D01*
X157551476Y-104227285D01*
X157741952Y-104179666D01*
X157884810Y-104179666D01*
X158075286Y-104227285D01*
X158170524Y-104274904D01*
X158265762Y-104370142D01*
X158313381Y-104513000D01*
X158313381Y-104751095D01*
X157408619Y-103798714D02*
X157361000Y-103751095D01*
X157313381Y-103655857D01*
X157313381Y-103417761D01*
X157361000Y-103322523D01*
X157408619Y-103274904D01*
X157503857Y-103227285D01*
X157599095Y-103227285D01*
X157741952Y-103274904D01*
X158313381Y-103846333D01*
X158313381Y-103227285D01*
X145438905Y-106751381D02*
X145438905Y-105751381D01*
X145677000Y-105751381D01*
X145819858Y-105799000D01*
X145915096Y-105894238D01*
X145962715Y-105989476D01*
X146010334Y-106179952D01*
X146010334Y-106322810D01*
X145962715Y-106513286D01*
X145915096Y-106608524D01*
X145819858Y-106703762D01*
X145677000Y-106751381D01*
X145438905Y-106751381D01*
X146343667Y-105751381D02*
X146962715Y-105751381D01*
X146629381Y-106132333D01*
X146772239Y-106132333D01*
X146867477Y-106179952D01*
X146915096Y-106227571D01*
X146962715Y-106322810D01*
X146962715Y-106560905D01*
X146915096Y-106656143D01*
X146867477Y-106703762D01*
X146772239Y-106751381D01*
X146486524Y-106751381D01*
X146391286Y-106703762D01*
X146343667Y-106656143D01*
X152090381Y-89892095D02*
X151090381Y-89892095D01*
X151090381Y-89654000D01*
X151138000Y-89511142D01*
X151233238Y-89415904D01*
X151328476Y-89368285D01*
X151518952Y-89320666D01*
X151661810Y-89320666D01*
X151852286Y-89368285D01*
X151947524Y-89415904D01*
X152042762Y-89511142D01*
X152090381Y-89654000D01*
X152090381Y-89892095D01*
X151423714Y-88463523D02*
X152090381Y-88463523D01*
X151042762Y-88701619D02*
X151757048Y-88939714D01*
X151757048Y-88320666D01*
X155646381Y-89638095D02*
X154646381Y-89638095D01*
X154646381Y-89257142D01*
X154694000Y-89161904D01*
X154741619Y-89114285D01*
X154836857Y-89066666D01*
X154979714Y-89066666D01*
X155074952Y-89114285D01*
X155122571Y-89161904D01*
X155170190Y-89257142D01*
X155170190Y-89638095D01*
X155646381Y-88114285D02*
X155646381Y-88685714D01*
X155646381Y-88400000D02*
X154646381Y-88400000D01*
X154789238Y-88495238D01*
X154884476Y-88590476D01*
X154932095Y-88685714D01*
X133806031Y-100894732D02*
X133233610Y-100793717D01*
X133401970Y-101298794D02*
X132694863Y-100591687D01*
X132964237Y-100322312D01*
X133065253Y-100288641D01*
X133132596Y-100288641D01*
X133233611Y-100322312D01*
X133334626Y-100423328D01*
X133368298Y-100524343D01*
X133368298Y-100591686D01*
X133334626Y-100692701D01*
X133065252Y-100962076D01*
X134479466Y-100221297D02*
X134075405Y-100625359D01*
X134277435Y-100423328D02*
X133570328Y-99716222D01*
X133604000Y-99884580D01*
X133604000Y-100019267D01*
X133570328Y-100120282D01*
X156805334Y-110561381D02*
X156472000Y-110085190D01*
X156233905Y-110561381D02*
X156233905Y-109561381D01*
X156614858Y-109561381D01*
X156710096Y-109609000D01*
X156757715Y-109656619D01*
X156805334Y-109751857D01*
X156805334Y-109894714D01*
X156757715Y-109989952D01*
X156710096Y-110037571D01*
X156614858Y-110085190D01*
X156233905Y-110085190D01*
X157662477Y-109894714D02*
X157662477Y-110561381D01*
X157424381Y-109513762D02*
X157186286Y-110228048D01*
X157805334Y-110228048D01*
X155011381Y-85129666D02*
X154535190Y-85463000D01*
X155011381Y-85701095D02*
X154011381Y-85701095D01*
X154011381Y-85320142D01*
X154059000Y-85224904D01*
X154106619Y-85177285D01*
X154201857Y-85129666D01*
X154344714Y-85129666D01*
X154439952Y-85177285D01*
X154487571Y-85224904D01*
X154535190Y-85320142D01*
X154535190Y-85701095D01*
X154011381Y-84224904D02*
X154011381Y-84701095D01*
X154487571Y-84748714D01*
X154439952Y-84701095D01*
X154392333Y-84605857D01*
X154392333Y-84367761D01*
X154439952Y-84272523D01*
X154487571Y-84224904D01*
X154582810Y-84177285D01*
X154820905Y-84177285D01*
X154916143Y-84224904D01*
X154963762Y-84272523D01*
X155011381Y-84367761D01*
X155011381Y-84605857D01*
X154963762Y-84701095D01*
X154916143Y-84748714D01*
X155265381Y-96686666D02*
X154789190Y-97020000D01*
X155265381Y-97258095D02*
X154265381Y-97258095D01*
X154265381Y-96877142D01*
X154313000Y-96781904D01*
X154360619Y-96734285D01*
X154455857Y-96686666D01*
X154598714Y-96686666D01*
X154693952Y-96734285D01*
X154741571Y-96781904D01*
X154789190Y-96877142D01*
X154789190Y-97258095D01*
X154265381Y-95829523D02*
X154265381Y-96020000D01*
X154313000Y-96115238D01*
X154360619Y-96162857D01*
X154503476Y-96258095D01*
X154693952Y-96305714D01*
X155074905Y-96305714D01*
X155170143Y-96258095D01*
X155217762Y-96210476D01*
X155265381Y-96115238D01*
X155265381Y-95924761D01*
X155217762Y-95829523D01*
X155170143Y-95781904D01*
X155074905Y-95734285D01*
X154836810Y-95734285D01*
X154741571Y-95781904D01*
X154693952Y-95829523D01*
X154646333Y-95924761D01*
X154646333Y-96115238D01*
X154693952Y-96210476D01*
X154741571Y-96258095D01*
X154836810Y-96305714D01*
X158440381Y-107100666D02*
X157964190Y-107434000D01*
X158440381Y-107672095D02*
X157440381Y-107672095D01*
X157440381Y-107291142D01*
X157488000Y-107195904D01*
X157535619Y-107148285D01*
X157630857Y-107100666D01*
X157773714Y-107100666D01*
X157868952Y-107148285D01*
X157916571Y-107195904D01*
X157964190Y-107291142D01*
X157964190Y-107672095D01*
X157440381Y-106767333D02*
X157440381Y-106100666D01*
X158440381Y-106529238D01*
X143343334Y-103957381D02*
X143010000Y-103481190D01*
X142771905Y-103957381D02*
X142771905Y-102957381D01*
X143152858Y-102957381D01*
X143248096Y-103005000D01*
X143295715Y-103052619D01*
X143343334Y-103147857D01*
X143343334Y-103290714D01*
X143295715Y-103385952D01*
X143248096Y-103433571D01*
X143152858Y-103481190D01*
X142771905Y-103481190D01*
X143914762Y-103385952D02*
X143819524Y-103338333D01*
X143771905Y-103290714D01*
X143724286Y-103195476D01*
X143724286Y-103147857D01*
X143771905Y-103052619D01*
X143819524Y-103005000D01*
X143914762Y-102957381D01*
X144105239Y-102957381D01*
X144200477Y-103005000D01*
X144248096Y-103052619D01*
X144295715Y-103147857D01*
X144295715Y-103195476D01*
X144248096Y-103290714D01*
X144200477Y-103338333D01*
X144105239Y-103385952D01*
X143914762Y-103385952D01*
X143819524Y-103433571D01*
X143771905Y-103481190D01*
X143724286Y-103576429D01*
X143724286Y-103766905D01*
X143771905Y-103862143D01*
X143819524Y-103909762D01*
X143914762Y-103957381D01*
X144105239Y-103957381D01*
X144200477Y-103909762D01*
X144248096Y-103862143D01*
X144295715Y-103766905D01*
X144295715Y-103576429D01*
X144248096Y-103481190D01*
X144200477Y-103433571D01*
X144105239Y-103385952D01*
X140930334Y-103957381D02*
X140597000Y-103481190D01*
X140358905Y-103957381D02*
X140358905Y-102957381D01*
X140739858Y-102957381D01*
X140835096Y-103005000D01*
X140882715Y-103052619D01*
X140930334Y-103147857D01*
X140930334Y-103290714D01*
X140882715Y-103385952D01*
X140835096Y-103433571D01*
X140739858Y-103481190D01*
X140358905Y-103481190D01*
X141406524Y-103957381D02*
X141597000Y-103957381D01*
X141692239Y-103909762D01*
X141739858Y-103862143D01*
X141835096Y-103719286D01*
X141882715Y-103528810D01*
X141882715Y-103147857D01*
X141835096Y-103052619D01*
X141787477Y-103005000D01*
X141692239Y-102957381D01*
X141501762Y-102957381D01*
X141406524Y-103005000D01*
X141358905Y-103052619D01*
X141311286Y-103147857D01*
X141311286Y-103385952D01*
X141358905Y-103481190D01*
X141406524Y-103528810D01*
X141501762Y-103576429D01*
X141692239Y-103576429D01*
X141787477Y-103528810D01*
X141835096Y-103481190D01*
X141882715Y-103385952D01*
X148074143Y-98877381D02*
X147740809Y-98401190D01*
X147502714Y-98877381D02*
X147502714Y-97877381D01*
X147883667Y-97877381D01*
X147978905Y-97925000D01*
X148026524Y-97972619D01*
X148074143Y-98067857D01*
X148074143Y-98210714D01*
X148026524Y-98305952D01*
X147978905Y-98353571D01*
X147883667Y-98401190D01*
X147502714Y-98401190D01*
X149026524Y-98877381D02*
X148455095Y-98877381D01*
X148740809Y-98877381D02*
X148740809Y-97877381D01*
X148645571Y-98020238D01*
X148550333Y-98115476D01*
X148455095Y-98163095D01*
X149645571Y-97877381D02*
X149740810Y-97877381D01*
X149836048Y-97925000D01*
X149883667Y-97972619D01*
X149931286Y-98067857D01*
X149978905Y-98258333D01*
X149978905Y-98496429D01*
X149931286Y-98686905D01*
X149883667Y-98782143D01*
X149836048Y-98829762D01*
X149740810Y-98877381D01*
X149645571Y-98877381D01*
X149550333Y-98829762D01*
X149502714Y-98782143D01*
X149455095Y-98686905D01*
X149407476Y-98496429D01*
X149407476Y-98258333D01*
X149455095Y-98067857D01*
X149502714Y-97972619D01*
X149550333Y-97925000D01*
X149645571Y-97877381D01*
X145105381Y-101734857D02*
X144629190Y-102068191D01*
X145105381Y-102306286D02*
X144105381Y-102306286D01*
X144105381Y-101925333D01*
X144153000Y-101830095D01*
X144200619Y-101782476D01*
X144295857Y-101734857D01*
X144438714Y-101734857D01*
X144533952Y-101782476D01*
X144581571Y-101830095D01*
X144629190Y-101925333D01*
X144629190Y-102306286D01*
X145105381Y-100782476D02*
X145105381Y-101353905D01*
X145105381Y-101068191D02*
X144105381Y-101068191D01*
X144248238Y-101163429D01*
X144343476Y-101258667D01*
X144391095Y-101353905D01*
X145105381Y-99830095D02*
X145105381Y-100401524D01*
X145105381Y-100115810D02*
X144105381Y-100115810D01*
X144248238Y-100211048D01*
X144343476Y-100306286D01*
X144391095Y-100401524D01*
X148534381Y-117228857D02*
X148058190Y-117562191D01*
X148534381Y-117800286D02*
X147534381Y-117800286D01*
X147534381Y-117419333D01*
X147582000Y-117324095D01*
X147629619Y-117276476D01*
X147724857Y-117228857D01*
X147867714Y-117228857D01*
X147962952Y-117276476D01*
X148010571Y-117324095D01*
X148058190Y-117419333D01*
X148058190Y-117800286D01*
X148534381Y-116276476D02*
X148534381Y-116847905D01*
X148534381Y-116562191D02*
X147534381Y-116562191D01*
X147677238Y-116657429D01*
X147772476Y-116752667D01*
X147820095Y-116847905D01*
X147629619Y-115895524D02*
X147582000Y-115847905D01*
X147534381Y-115752667D01*
X147534381Y-115514571D01*
X147582000Y-115419333D01*
X147629619Y-115371714D01*
X147724857Y-115324095D01*
X147820095Y-115324095D01*
X147962952Y-115371714D01*
X148534381Y-115943143D01*
X148534381Y-115324095D01*
X152392143Y-94051381D02*
X152058809Y-93575190D01*
X151820714Y-94051381D02*
X151820714Y-93051381D01*
X152201667Y-93051381D01*
X152296905Y-93099000D01*
X152344524Y-93146619D01*
X152392143Y-93241857D01*
X152392143Y-93384714D01*
X152344524Y-93479952D01*
X152296905Y-93527571D01*
X152201667Y-93575190D01*
X151820714Y-93575190D01*
X153344524Y-94051381D02*
X152773095Y-94051381D01*
X153058809Y-94051381D02*
X153058809Y-93051381D01*
X152963571Y-93194238D01*
X152868333Y-93289476D01*
X152773095Y-93337095D01*
X153677857Y-93051381D02*
X154296905Y-93051381D01*
X153963571Y-93432333D01*
X154106429Y-93432333D01*
X154201667Y-93479952D01*
X154249286Y-93527571D01*
X154296905Y-93622810D01*
X154296905Y-93860905D01*
X154249286Y-93956143D01*
X154201667Y-94003762D01*
X154106429Y-94051381D01*
X153820714Y-94051381D01*
X153725476Y-94003762D01*
X153677857Y-93956143D01*
X144716667Y-110513762D02*
X144859524Y-110561381D01*
X145097620Y-110561381D01*
X145192858Y-110513762D01*
X145240477Y-110466143D01*
X145288096Y-110370905D01*
X145288096Y-110275667D01*
X145240477Y-110180429D01*
X145192858Y-110132810D01*
X145097620Y-110085190D01*
X144907143Y-110037571D01*
X144811905Y-109989952D01*
X144764286Y-109942333D01*
X144716667Y-109847095D01*
X144716667Y-109751857D01*
X144764286Y-109656619D01*
X144811905Y-109609000D01*
X144907143Y-109561381D01*
X145145239Y-109561381D01*
X145288096Y-109609000D01*
X145621429Y-109561381D02*
X145859524Y-110561381D01*
X146050001Y-109847095D01*
X146240477Y-110561381D01*
X146478572Y-109561381D01*
X147383334Y-110561381D02*
X146811905Y-110561381D01*
X147097619Y-110561381D02*
X147097619Y-109561381D01*
X147002381Y-109704238D01*
X146907143Y-109799476D01*
X146811905Y-109847095D01*
X144526095Y-95845381D02*
X144526095Y-96654905D01*
X144573714Y-96750143D01*
X144621333Y-96797762D01*
X144716571Y-96845381D01*
X144907048Y-96845381D01*
X145002286Y-96797762D01*
X145049905Y-96750143D01*
X145097524Y-96654905D01*
X145097524Y-95845381D01*
X146097524Y-96845381D02*
X145526095Y-96845381D01*
X145811809Y-96845381D02*
X145811809Y-95845381D01*
X145716571Y-95988238D01*
X145621333Y-96083476D01*
X145526095Y-96131095D01*
X154900381Y-118871905D02*
X155709905Y-118871905D01*
X155805143Y-118824286D01*
X155852762Y-118776667D01*
X155900381Y-118681429D01*
X155900381Y-118490952D01*
X155852762Y-118395714D01*
X155805143Y-118348095D01*
X155709905Y-118300476D01*
X154900381Y-118300476D01*
X154995619Y-117871905D02*
X154948000Y-117824286D01*
X154900381Y-117729048D01*
X154900381Y-117490952D01*
X154948000Y-117395714D01*
X154995619Y-117348095D01*
X155090857Y-117300476D01*
X155186095Y-117300476D01*
X155328952Y-117348095D01*
X155900381Y-117919524D01*
X155900381Y-117300476D01*
X136485381Y-116458905D02*
X137294905Y-116458905D01*
X137390143Y-116411286D01*
X137437762Y-116363667D01*
X137485381Y-116268429D01*
X137485381Y-116077952D01*
X137437762Y-115982714D01*
X137390143Y-115935095D01*
X137294905Y-115887476D01*
X136485381Y-115887476D01*
X136485381Y-115506524D02*
X136485381Y-114887476D01*
X136866333Y-115220810D01*
X136866333Y-115077952D01*
X136913952Y-114982714D01*
X136961571Y-114935095D01*
X137056810Y-114887476D01*
X137294905Y-114887476D01*
X137390143Y-114935095D01*
X137437762Y-114982714D01*
X137485381Y-115077952D01*
X137485381Y-115363667D01*
X137437762Y-115458905D01*
X137390143Y-115506524D01*
X151130095Y-99147381D02*
X151130095Y-99956905D01*
X151177714Y-100052143D01*
X151225333Y-100099762D01*
X151320571Y-100147381D01*
X151511048Y-100147381D01*
X151606286Y-100099762D01*
X151653905Y-100052143D01*
X151701524Y-99956905D01*
X151701524Y-99147381D01*
X152606286Y-99480714D02*
X152606286Y-100147381D01*
X152368190Y-99099762D02*
X152130095Y-99814048D01*
X152749143Y-99814048D01*
X135977381Y-111124905D02*
X136786905Y-111124905D01*
X136882143Y-111077286D01*
X136929762Y-111029667D01*
X136977381Y-110934429D01*
X136977381Y-110743952D01*
X136929762Y-110648714D01*
X136882143Y-110601095D01*
X136786905Y-110553476D01*
X135977381Y-110553476D01*
X135977381Y-109601095D02*
X135977381Y-110077286D01*
X136453571Y-110124905D01*
X136405952Y-110077286D01*
X136358333Y-109982048D01*
X136358333Y-109743952D01*
X136405952Y-109648714D01*
X136453571Y-109601095D01*
X136548810Y-109553476D01*
X136786905Y-109553476D01*
X136882143Y-109601095D01*
X136929762Y-109648714D01*
X136977381Y-109743952D01*
X136977381Y-109982048D01*
X136929762Y-110077286D01*
X136882143Y-110124905D01*
X136847805Y-86416356D02*
X136612103Y-87594868D01*
X137319210Y-86887761D02*
X136140698Y-87123463D01*
X137251867Y-88234631D02*
X136847805Y-87830570D01*
X137049836Y-88032600D02*
X137756942Y-87325493D01*
X137588584Y-87359165D01*
X137453897Y-87359165D01*
X137352882Y-87325493D01*
X134422355Y-96324195D02*
X135600867Y-96559897D01*
X134893760Y-95852790D02*
X135129462Y-97031302D01*
X135196805Y-95684431D02*
X135196805Y-95617088D01*
X135230477Y-95516073D01*
X135398836Y-95347714D01*
X135499851Y-95314042D01*
X135567195Y-95314042D01*
X135668210Y-95347714D01*
X135735553Y-95415057D01*
X135802897Y-95549744D01*
X135802897Y-96357867D01*
X136240630Y-95920133D01*
X136679316Y-104060453D02*
X136679316Y-104127796D01*
X136611972Y-104262483D01*
X136544629Y-104329827D01*
X136409941Y-104397171D01*
X136275254Y-104397171D01*
X136174239Y-104363499D01*
X136005881Y-104262484D01*
X135904865Y-104161468D01*
X135803850Y-103993109D01*
X135770178Y-103892094D01*
X135770178Y-103757407D01*
X135837522Y-103622720D01*
X135904865Y-103555376D01*
X136039552Y-103488033D01*
X136106896Y-103488033D01*
X137420094Y-103454361D02*
X137016033Y-103858422D01*
X137218063Y-103656392D02*
X136510956Y-102949285D01*
X136544628Y-103117644D01*
X136544628Y-103252331D01*
X136510956Y-103353346D01*
X136948689Y-102511552D02*
X137420094Y-102040148D01*
X137824155Y-103050301D01*
X154725619Y-99028238D02*
X154678000Y-99123476D01*
X154582762Y-99218714D01*
X154439905Y-99361571D01*
X154392286Y-99456810D01*
X154392286Y-99552048D01*
X154630381Y-99504429D02*
X154582762Y-99599667D01*
X154487524Y-99694905D01*
X154297048Y-99742524D01*
X153963714Y-99742524D01*
X153773238Y-99694905D01*
X153678000Y-99599667D01*
X153630381Y-99504429D01*
X153630381Y-99313952D01*
X153678000Y-99218714D01*
X153773238Y-99123476D01*
X153963714Y-99075857D01*
X154297048Y-99075857D01*
X154487524Y-99123476D01*
X154582762Y-99218714D01*
X154630381Y-99313952D01*
X154630381Y-99504429D01*
X154630381Y-98123476D02*
X154630381Y-98694905D01*
X154630381Y-98409191D02*
X153630381Y-98409191D01*
X153773238Y-98504429D01*
X153868476Y-98599667D01*
X153916095Y-98694905D01*
X152431762Y-114720619D02*
X152336524Y-114673000D01*
X152241286Y-114577762D01*
X152098429Y-114434905D01*
X152003190Y-114387286D01*
X151907952Y-114387286D01*
X151955571Y-114625381D02*
X151860333Y-114577762D01*
X151765095Y-114482524D01*
X151717476Y-114292048D01*
X151717476Y-113958714D01*
X151765095Y-113768238D01*
X151860333Y-113673000D01*
X151955571Y-113625381D01*
X152146048Y-113625381D01*
X152241286Y-113673000D01*
X152336524Y-113768238D01*
X152384143Y-113958714D01*
X152384143Y-114292048D01*
X152336524Y-114482524D01*
X152241286Y-114577762D01*
X152146048Y-114625381D01*
X151955571Y-114625381D01*
X152765095Y-113720619D02*
X152812714Y-113673000D01*
X152907952Y-113625381D01*
X153146048Y-113625381D01*
X153241286Y-113673000D01*
X153288905Y-113720619D01*
X153336524Y-113815857D01*
X153336524Y-113911095D01*
X153288905Y-114053952D01*
X152717476Y-114625381D01*
X153336524Y-114625381D01*
X140596688Y-94604389D02*
X140596688Y-94671732D01*
X140529344Y-94806419D01*
X140462001Y-94873763D01*
X140327313Y-94941107D01*
X140192626Y-94941107D01*
X140091611Y-94907435D01*
X139923253Y-94806420D01*
X139822237Y-94705404D01*
X139721222Y-94537045D01*
X139687550Y-94436030D01*
X139687550Y-94301343D01*
X139754894Y-94166656D01*
X139822237Y-94099312D01*
X139956924Y-94031969D01*
X140024268Y-94031969D01*
X140192626Y-93728924D02*
X140664031Y-93257519D01*
X141068092Y-94267672D01*
X133023893Y-96698969D02*
X132956550Y-96698969D01*
X132821863Y-96631625D01*
X132754519Y-96564282D01*
X132687175Y-96429594D01*
X132687175Y-96294907D01*
X132720847Y-96193892D01*
X132821862Y-96025534D01*
X132922878Y-95924518D01*
X133091237Y-95823503D01*
X133192252Y-95789831D01*
X133326939Y-95789831D01*
X133461626Y-95857175D01*
X133528970Y-95924518D01*
X133596313Y-96059205D01*
X133596313Y-96126549D01*
X133629985Y-97439747D02*
X133225924Y-97035686D01*
X133427954Y-97237716D02*
X134135061Y-96530609D01*
X133966702Y-96564281D01*
X133832015Y-96564281D01*
X133731000Y-96530609D01*
X134539122Y-97069358D02*
X134606465Y-97069358D01*
X134707481Y-97103029D01*
X134875840Y-97271389D01*
X134909512Y-97372404D01*
X134909512Y-97439747D01*
X134875840Y-97540762D01*
X134808496Y-97608106D01*
X134673810Y-97675449D01*
X133865687Y-97675449D01*
X134303420Y-98113182D01*
X144613334Y-87447381D02*
X144137143Y-87447381D01*
X144137143Y-86447381D01*
X145470477Y-87447381D02*
X144899048Y-87447381D01*
X145184762Y-87447381D02*
X145184762Y-86447381D01*
X145089524Y-86590238D01*
X144994286Y-86685476D01*
X144899048Y-86733095D01*
X145629334Y-83510381D02*
X145153143Y-83510381D01*
X145153143Y-82510381D01*
X145915048Y-82605619D02*
X145962667Y-82558000D01*
X146057905Y-82510381D01*
X146296001Y-82510381D01*
X146391239Y-82558000D01*
X146438858Y-82605619D01*
X146486477Y-82700857D01*
X146486477Y-82796095D01*
X146438858Y-82938952D01*
X145867429Y-83510381D01*
X146486477Y-83510381D01*
X140295334Y-84907381D02*
X139819143Y-84907381D01*
X139819143Y-83907381D01*
X140533429Y-83907381D02*
X141152477Y-83907381D01*
X140819143Y-84288333D01*
X140962001Y-84288333D01*
X141057239Y-84335952D01*
X141104858Y-84383571D01*
X141152477Y-84478810D01*
X141152477Y-84716905D01*
X141104858Y-84812143D01*
X141057239Y-84859762D01*
X140962001Y-84907381D01*
X140676286Y-84907381D01*
X140581048Y-84859762D01*
X140533429Y-84812143D01*
X141807032Y-99243732D02*
X141470314Y-99580450D01*
X140763207Y-98873343D01*
X141874375Y-98233579D02*
X142345780Y-98704984D01*
X141436642Y-98132565D02*
X141773360Y-98806000D01*
X142211093Y-98368267D01*
X139902031Y-100894733D02*
X139565313Y-101231451D01*
X138858206Y-100524344D01*
X139767344Y-99615207D02*
X139430626Y-99951925D01*
X139733672Y-100322313D01*
X139733672Y-100254970D01*
X139767343Y-100153955D01*
X139935703Y-99985596D01*
X140036718Y-99951924D01*
X140104061Y-99951924D01*
X140205077Y-99985596D01*
X140373436Y-100153955D01*
X140407107Y-100254970D01*
X140407107Y-100322313D01*
X140373436Y-100423329D01*
X140205076Y-100591688D01*
X140104061Y-100625360D01*
X140036718Y-100625360D01*
X133881905Y-120848381D02*
X133881905Y-119848381D01*
X134262858Y-119848381D01*
X134358096Y-119896000D01*
X134405715Y-119943619D01*
X134453334Y-120038857D01*
X134453334Y-120181714D01*
X134405715Y-120276952D01*
X134358096Y-120324571D01*
X134262858Y-120372190D01*
X133881905Y-120372190D01*
X134834286Y-119943619D02*
X134881905Y-119896000D01*
X134977143Y-119848381D01*
X135215239Y-119848381D01*
X135310477Y-119896000D01*
X135358096Y-119943619D01*
X135405715Y-120038857D01*
X135405715Y-120134095D01*
X135358096Y-120276952D01*
X134786667Y-120848381D01*
X135405715Y-120848381D01*
M02*
