M48
;DRILL file {KiCad 0.201506192325+5795~23~ubuntu14.04.1-product} date Wed 04 Nov 2015 02:27:17 GMT
;FORMAT={-:-/ absolute / metric / decimal}
FMAT,2
METRIC,TZ
T1C0.305
T2C1.016
%
G90
G05
M71
T1
X134.366Y-96.901
X134.747Y-91.186
X134.8Y-83.3
X135.255Y-101.727
X135.8Y-84.7
X136.8Y-83.4
X137.236Y-107.074
X137.287Y-106.299
X138.7Y-83.4
X139.573Y-118.364
X140.589Y-94.869
X140.843Y-88.011
X141.2Y-83.4
X143.3Y-83.4
X143.531Y-89.531
X143.531Y-90.644
X143.531Y-91.756
X143.531Y-92.869
X143.764Y-86.868
X144.644Y-89.531
X144.644Y-90.644
X144.644Y-91.756
X144.644Y-92.869
X144.78Y-121.031
X144.9Y-83.1
X145.756Y-89.531
X145.756Y-90.644
X145.756Y-91.756
X145.756Y-92.869
X146.05Y-99.695
X146.5Y-83.1
X146.869Y-89.531
X146.869Y-90.644
X146.869Y-91.756
X146.869Y-92.869
X147.066Y-97.536
X148.1Y-83.1
X148.336Y-97.663
X149.606Y-97.79
X149.7Y-83.1
X150.114Y-101.092
X150.241Y-99.949
X150.876Y-99.06
X151.384Y-84.455
X152.4Y-98.679
X153.162Y-103.632
X154.813Y-93.853
X155.575Y-101.981
T2
X134.62Y-123.19
X137.16Y-123.19
X139.7Y-123.19
X142.24Y-123.19
X144.78Y-123.19
X147.32Y-123.19
X149.86Y-123.19
X152.4Y-123.19
X154.94Y-123.19
X157.48Y-85.09
X157.48Y-87.63
X157.48Y-90.17
X157.48Y-92.71
X157.48Y-115.57
X157.48Y-118.11
X157.48Y-120.65
X157.48Y-123.19
T0
M30
