G04 #@! TF.FileFunction,Copper,L2,Bot,Signal*
%FSLAX46Y46*%
G04 Gerber Fmt 4.6, Leading zero omitted, Abs format (unit mm)*
G04 Created by KiCad (PCBNEW 0.201506192325+5795~23~ubuntu14.04.1-product) date Wed 04 Nov 2015 01:16:40 GMT*
%MOMM*%
G01*
G04 APERTURE LIST*
%ADD10C,0.100000*%
%ADD11R,2.032000X1.727200*%
%ADD12O,2.032000X1.727200*%
%ADD13R,1.727200X2.032000*%
%ADD14O,1.727200X2.032000*%
%ADD15C,17.800000*%
%ADD16R,2.500000X5.100000*%
%ADD17C,0.609600*%
%ADD18C,0.254000*%
%ADD19C,0.152400*%
G04 APERTURE END LIST*
D10*
D11*
X157480000Y-92710000D03*
D12*
X157480000Y-90170000D03*
X157480000Y-87630000D03*
X157480000Y-85090000D03*
D11*
X157480000Y-120650000D03*
D12*
X157480000Y-118110000D03*
X157480000Y-115570000D03*
D13*
X134620000Y-123190000D03*
D14*
X137160000Y-123190000D03*
X139700000Y-123190000D03*
X142240000Y-123190000D03*
X144780000Y-123190000D03*
X147320000Y-123190000D03*
X149860000Y-123190000D03*
X152400000Y-123190000D03*
X154940000Y-123190000D03*
X157480000Y-123190000D03*
D15*
X146050000Y-109982000D03*
D16*
X134600000Y-109982000D03*
X157500000Y-109982000D03*
D17*
X149733000Y-83058000D03*
X143764000Y-83439000D03*
X138557000Y-83693000D03*
X136271000Y-84836000D03*
X135128000Y-83312000D03*
X134112000Y-85344000D03*
X137236210Y-107074395D03*
X139573000Y-118364000D03*
X144780000Y-121031000D03*
X134747000Y-91186000D03*
X155575000Y-101981000D03*
X153162000Y-103632000D03*
X150114000Y-101092000D03*
X148336000Y-97663000D03*
X151384000Y-84455000D03*
X143764000Y-86868000D03*
X137287000Y-106299000D03*
X135255000Y-101727000D03*
X140589000Y-94869000D03*
X154813000Y-93853000D03*
X146050000Y-99695000D03*
X147066000Y-97536000D03*
X134366002Y-96901000D03*
X140843000Y-88011000D03*
X150876000Y-99060000D03*
X149606000Y-97790000D03*
X152400000Y-98679000D03*
X150241000Y-99949000D03*
D18*
X134747000Y-91186000D02*
X134747000Y-85979000D01*
X138811000Y-83439000D02*
X143764000Y-83439000D01*
X138557000Y-83693000D02*
X138811000Y-83439000D01*
X136271000Y-84455000D02*
X136271000Y-84836000D01*
X135128000Y-83312000D02*
X136271000Y-84455000D01*
X134747000Y-85979000D02*
X134112000Y-85344000D01*
X137236210Y-107074395D02*
X140143815Y-109982000D01*
X140143815Y-109982000D02*
X146050000Y-109982000D01*
X144780000Y-121031000D02*
X150622000Y-121031000D01*
X150622000Y-121031000D02*
X155575000Y-116078000D01*
X155575000Y-116078000D02*
X155575000Y-101981000D01*
X139573000Y-118364000D02*
X139573000Y-116459000D01*
X139573000Y-116459000D02*
X146050000Y-109982000D01*
X144780000Y-121031000D02*
X144780000Y-120599948D01*
X144780000Y-120599948D02*
X146050000Y-119329948D01*
X146050000Y-119329948D02*
X146050000Y-109982000D01*
X144780000Y-121031000D02*
X142240000Y-121031000D01*
X142240000Y-121031000D02*
X139573000Y-118364000D01*
X134747000Y-91186000D02*
X139065000Y-86868000D01*
X139065000Y-86868000D02*
X143764000Y-86868000D01*
X150114000Y-101092000D02*
X150622000Y-101092000D01*
X150622000Y-101092000D02*
X153162000Y-103632000D01*
X153924000Y-103632000D02*
X155270201Y-102285799D01*
X153162000Y-103632000D02*
X153924000Y-103632000D01*
X155270201Y-102285799D02*
X155575000Y-101981000D01*
X151384000Y-84455000D02*
X151384000Y-86766400D01*
X151384000Y-86766400D02*
X157327600Y-92710000D01*
X157327600Y-92710000D02*
X157480000Y-92710000D01*
X148336000Y-97663000D02*
X148336000Y-99314000D01*
X148336000Y-99314000D02*
X150114000Y-101092000D01*
X143764000Y-86868000D02*
X148971000Y-86868000D01*
X148971000Y-86868000D02*
X151384000Y-84455000D01*
X140589000Y-94869000D02*
X139827000Y-94869000D01*
X139827000Y-94869000D02*
X135255000Y-99441000D01*
X135255000Y-99441000D02*
X135255000Y-101727000D01*
X138176000Y-121793000D02*
X147309525Y-121793000D01*
X147309525Y-121793000D02*
X151104600Y-121793000D01*
X147320000Y-123190000D02*
X147320000Y-121803475D01*
X147320000Y-121803475D02*
X147309525Y-121793000D01*
X134600000Y-108682000D02*
X136983000Y-106299000D01*
X134600000Y-109982000D02*
X134600000Y-108682000D01*
X136983000Y-106299000D02*
X137287000Y-106299000D01*
X134600000Y-109982000D02*
X134600000Y-118217000D01*
X134600000Y-118217000D02*
X138176000Y-121793000D01*
X151104600Y-121793000D02*
X157327600Y-115570000D01*
X157327600Y-115570000D02*
X157480000Y-115570000D01*
X157500000Y-115550000D02*
X157500000Y-109982000D01*
X134645410Y-109982000D02*
X134600000Y-109982000D01*
X135255000Y-101727000D02*
X134600000Y-102382000D01*
X134600000Y-102382000D02*
X134600000Y-109982000D01*
X140589000Y-94869000D02*
X144272000Y-98552000D01*
X144272000Y-98552000D02*
X146050000Y-98552000D01*
X147066000Y-97536000D02*
X150749000Y-93853000D01*
X150749000Y-93853000D02*
X154813000Y-93853000D01*
X147066000Y-97536000D02*
X146050000Y-98552000D01*
X146050000Y-98552000D02*
X146050000Y-99695000D01*
X134366002Y-96469948D02*
X134366002Y-96901000D01*
X134366002Y-94487998D02*
X134366002Y-96469948D01*
X140843000Y-88011000D02*
X134366002Y-94487998D01*
D19*
X150876000Y-99060000D02*
X149606000Y-97790000D01*
X152400000Y-98679000D02*
X151130000Y-99949000D01*
X151130000Y-99949000D02*
X150241000Y-99949000D01*
M02*
