G04 #@! TF.FileFunction,Copper,L1,Top,Signal*
%FSLAX46Y46*%
G04 Gerber Fmt 4.6, Leading zero omitted, Abs format (unit mm)*
G04 Created by KiCad (PCBNEW 0.201506192325+5795~23~ubuntu14.04.1-product) date Wed 04 Nov 2015 01:16:40 GMT*
%MOMM*%
G01*
G04 APERTURE LIST*
%ADD10C,0.100000*%
%ADD11R,0.600000X0.500000*%
%ADD12R,0.500000X0.600000*%
%ADD13R,1.600000X1.000000*%
%ADD14R,0.797560X0.797560*%
%ADD15R,2.032000X1.727200*%
%ADD16O,2.032000X1.727200*%
%ADD17R,0.400000X0.600000*%
%ADD18R,0.600000X0.400000*%
%ADD19R,0.600000X1.000000*%
%ADD20R,0.450000X1.000000*%
%ADD21R,0.800000X0.300000*%
%ADD22R,0.300000X0.800000*%
%ADD23R,1.500000X2.400000*%
%ADD24R,0.800100X0.800100*%
%ADD25R,0.900000X4.900000*%
%ADD26R,5.000000X0.500000*%
%ADD27R,0.500000X4.900000*%
%ADD28R,0.500000X2.640000*%
%ADD29R,2.000000X0.500000*%
%ADD30R,2.700000X0.500000*%
%ADD31R,0.500000X3.940000*%
%ADD32R,1.727200X2.032000*%
%ADD33O,1.727200X2.032000*%
%ADD34R,0.200000X0.800000*%
%ADD35R,0.800000X0.200000*%
%ADD36R,1.112500X1.112500*%
%ADD37C,0.609600*%
%ADD38C,0.152400*%
%ADD39C,0.254000*%
%ADD40C,0.500000*%
G04 APERTURE END LIST*
D10*
G36*
X134790264Y-86725182D02*
X135143818Y-87078736D01*
X134719554Y-87503000D01*
X134366000Y-87149446D01*
X134790264Y-86725182D01*
X134790264Y-86725182D01*
G37*
G36*
X134012446Y-87503000D02*
X134366000Y-87856554D01*
X133941736Y-88280818D01*
X133588182Y-87927264D01*
X134012446Y-87503000D01*
X134012446Y-87503000D01*
G37*
G36*
X137497736Y-91836818D02*
X137144182Y-91483264D01*
X137568446Y-91059000D01*
X137922000Y-91412554D01*
X137497736Y-91836818D01*
X137497736Y-91836818D01*
G37*
G36*
X138275554Y-91059000D02*
X137922000Y-90705446D01*
X138346264Y-90281182D01*
X138699818Y-90634736D01*
X138275554Y-91059000D01*
X138275554Y-91059000D01*
G37*
D11*
X147405000Y-84328000D03*
X148505000Y-84328000D03*
D12*
X141986000Y-84497000D03*
X141986000Y-83397000D03*
D11*
X143171000Y-85725000D03*
X142071000Y-85725000D03*
X138853000Y-85725000D03*
X137753000Y-85725000D03*
D10*
G36*
X140124264Y-90535182D02*
X140477818Y-90888736D01*
X140053554Y-91313000D01*
X139700000Y-90959446D01*
X140124264Y-90535182D01*
X140124264Y-90535182D01*
G37*
G36*
X139346446Y-91313000D02*
X139700000Y-91666554D01*
X139275736Y-92090818D01*
X138922182Y-91737264D01*
X139346446Y-91313000D01*
X139346446Y-91313000D01*
G37*
D11*
X139615000Y-88011000D03*
X138515000Y-88011000D03*
X148505000Y-85725000D03*
X147405000Y-85725000D03*
X148167000Y-96647000D03*
X149267000Y-96647000D03*
D12*
X143002000Y-117179000D03*
X143002000Y-118279000D03*
D11*
X151342000Y-104775000D03*
X152442000Y-104775000D03*
D13*
X148717000Y-104497000D03*
X148717000Y-101497000D03*
D11*
X139150000Y-107442000D03*
X140250000Y-107442000D03*
D10*
G36*
X135239182Y-92031736D02*
X135592736Y-91678182D01*
X136017000Y-92102446D01*
X135663446Y-92456000D01*
X135239182Y-92031736D01*
X135239182Y-92031736D01*
G37*
G36*
X136017000Y-92809554D02*
X136370554Y-92456000D01*
X136794818Y-92880264D01*
X136441264Y-93233818D01*
X136017000Y-92809554D01*
X136017000Y-92809554D01*
G37*
G36*
X134223182Y-93047736D02*
X134576736Y-92694182D01*
X135001000Y-93118446D01*
X134647446Y-93472000D01*
X134223182Y-93047736D01*
X134223182Y-93047736D01*
G37*
G36*
X135001000Y-93825554D02*
X135354554Y-93472000D01*
X135778818Y-93896264D01*
X135425264Y-94249818D01*
X135001000Y-93825554D01*
X135001000Y-93825554D01*
G37*
D14*
X156464000Y-103263700D03*
X156464000Y-104762300D03*
X146177000Y-104889300D03*
X146177000Y-103390700D03*
X153035000Y-88404700D03*
X153035000Y-89903300D03*
D15*
X157480000Y-92710000D03*
D16*
X157480000Y-90170000D03*
X157480000Y-87630000D03*
X157480000Y-85090000D03*
D10*
G36*
X134867487Y-98261249D02*
X135291751Y-98685513D01*
X135008909Y-98968355D01*
X134584645Y-98544091D01*
X134867487Y-98261249D01*
X134867487Y-98261249D01*
G37*
G36*
X134231091Y-98897645D02*
X134655355Y-99321909D01*
X134372513Y-99604751D01*
X133948249Y-99180487D01*
X134231091Y-98897645D01*
X134231091Y-98897645D01*
G37*
D17*
X157422000Y-111760000D03*
X156522000Y-111760000D03*
D18*
X153035000Y-84513000D03*
X153035000Y-85413000D03*
D17*
X156141000Y-96520000D03*
X157041000Y-96520000D03*
D18*
X156464000Y-107384000D03*
X156464000Y-106484000D03*
X143510000Y-105606000D03*
X143510000Y-104706000D03*
X141097000Y-105606000D03*
X141097000Y-104706000D03*
D17*
X148267000Y-99822000D03*
X149167000Y-99822000D03*
D18*
X146177000Y-101023000D03*
X146177000Y-101923000D03*
X149606000Y-116136000D03*
X149606000Y-117036000D03*
X153035000Y-92271000D03*
X153035000Y-91371000D03*
D19*
X144200000Y-107782000D03*
X147900000Y-107782000D03*
X144200000Y-112182000D03*
X147900000Y-112182000D03*
D20*
X143525000Y-109982000D03*
X148575000Y-109982000D03*
D15*
X157480000Y-120650000D03*
D16*
X157480000Y-118110000D03*
X157480000Y-115570000D03*
D12*
X138377000Y-114197000D03*
X138377000Y-115697000D03*
X138377000Y-117197000D03*
X141277000Y-117197000D03*
X141277000Y-115697000D03*
X141277000Y-114197000D03*
D11*
X139827000Y-117247000D03*
D21*
X152842000Y-101981000D03*
X150942000Y-101981000D03*
D22*
X152642000Y-101031000D03*
X152142000Y-101031000D03*
X151642000Y-101031000D03*
X151142000Y-101031000D03*
X152642000Y-102931000D03*
X152142000Y-102931000D03*
X151642000Y-102931000D03*
X151142000Y-102931000D03*
D23*
X139192000Y-110363000D03*
D18*
X140542000Y-111363000D03*
X140542000Y-110363000D03*
X140542000Y-109363000D03*
X137842000Y-109363000D03*
X137842000Y-110363000D03*
X137842000Y-111363000D03*
D10*
G36*
X134270167Y-89033512D02*
X134977273Y-88326406D01*
X135825801Y-89174934D01*
X135118695Y-89882040D01*
X134270167Y-89033512D01*
X134270167Y-89033512D01*
G37*
G36*
X136462199Y-89387066D02*
X137169305Y-88679960D01*
X138017833Y-89528488D01*
X137310727Y-90235594D01*
X136462199Y-89387066D01*
X136462199Y-89387066D01*
G37*
G36*
X135542960Y-90306305D02*
X136250066Y-89599199D01*
X137098594Y-90447727D01*
X136391488Y-91154833D01*
X135542960Y-90306305D01*
X135542960Y-90306305D01*
G37*
G36*
X135189406Y-88114273D02*
X135896512Y-87407167D01*
X136745040Y-88255695D01*
X136037934Y-88962801D01*
X135189406Y-88114273D01*
X135189406Y-88114273D01*
G37*
G36*
X136501274Y-94254934D02*
X137774066Y-95527726D01*
X137066960Y-96234832D01*
X135794168Y-94962040D01*
X136501274Y-94254934D01*
X136501274Y-94254934D01*
G37*
G36*
X138269040Y-92487168D02*
X139541832Y-93759960D01*
X138834726Y-94467066D01*
X137561934Y-93194274D01*
X138269040Y-92487168D01*
X138269040Y-92487168D01*
G37*
G36*
X136103528Y-99747101D02*
X137234899Y-100878472D01*
X136527792Y-101585579D01*
X135396421Y-100454208D01*
X136103528Y-99747101D01*
X136103528Y-99747101D01*
G37*
G36*
X133982208Y-101868421D02*
X135113579Y-102999792D01*
X134406472Y-103706899D01*
X133275101Y-102575528D01*
X133982208Y-101868421D01*
X133982208Y-101868421D01*
G37*
D24*
X155590240Y-98872000D03*
X155590240Y-100772000D03*
X157589220Y-99822000D03*
X151780240Y-115636000D03*
X151780240Y-117536000D03*
X153779220Y-116586000D03*
D10*
G36*
X139613008Y-95314662D02*
X140143338Y-95844992D01*
X139577652Y-96410678D01*
X139047322Y-95880348D01*
X139613008Y-95314662D01*
X139613008Y-95314662D01*
G37*
G36*
X138552348Y-96375322D02*
X139082678Y-96905652D01*
X138516992Y-97471338D01*
X137986662Y-96941008D01*
X138552348Y-96375322D01*
X138552348Y-96375322D01*
G37*
G36*
X137857338Y-98592008D02*
X137327008Y-99122338D01*
X136761322Y-98556652D01*
X137291652Y-98026322D01*
X137857338Y-98592008D01*
X137857338Y-98592008D01*
G37*
G36*
X136796678Y-97531348D02*
X136266348Y-98061678D01*
X135700662Y-97495992D01*
X136230992Y-96965662D01*
X136796678Y-97531348D01*
X136796678Y-97531348D01*
G37*
D17*
X144330000Y-85725000D03*
X145230000Y-85725000D03*
X145346000Y-84328000D03*
X146246000Y-84328000D03*
X140912000Y-85725000D03*
X140012000Y-85725000D03*
D10*
G36*
X140723909Y-96637695D02*
X141360305Y-97274091D01*
X141006751Y-97627645D01*
X140370355Y-96991249D01*
X140723909Y-96637695D01*
X140723909Y-96637695D01*
G37*
G36*
X139663249Y-97698355D02*
X140299645Y-98334751D01*
X139946091Y-98688305D01*
X139309695Y-98051909D01*
X139663249Y-97698355D01*
X139663249Y-97698355D01*
G37*
G36*
X138931487Y-98642249D02*
X139355751Y-99066513D01*
X139072909Y-99349355D01*
X138648645Y-98925091D01*
X138931487Y-98642249D01*
X138931487Y-98642249D01*
G37*
G36*
X138295091Y-99278645D02*
X138719355Y-99702909D01*
X138436513Y-99985751D01*
X138012249Y-99561487D01*
X138295091Y-99278645D01*
X138295091Y-99278645D01*
G37*
D25*
X137906760Y-79993440D03*
D26*
X139956760Y-77377640D03*
D27*
X140006760Y-80077640D03*
D28*
X142206760Y-78947640D03*
X144706760Y-78947640D03*
D29*
X143456760Y-80017640D03*
D30*
X145806760Y-77377640D03*
X150506760Y-77377640D03*
D28*
X146906760Y-78947640D03*
X149406760Y-78947640D03*
D29*
X148156760Y-80017640D03*
D31*
X151606760Y-79597640D03*
D32*
X134620000Y-123190000D03*
D33*
X137160000Y-123190000D03*
X139700000Y-123190000D03*
X142240000Y-123190000D03*
X144780000Y-123190000D03*
X147320000Y-123190000D03*
X149860000Y-123190000D03*
X152400000Y-123190000D03*
X154940000Y-123190000D03*
X157480000Y-123190000D03*
D34*
X143000000Y-94200000D03*
X143400000Y-94200000D03*
X143800000Y-94200000D03*
X144200000Y-94200000D03*
X144600000Y-94200000D03*
X145000000Y-94200000D03*
X145400000Y-94200000D03*
X145800000Y-94200000D03*
X146200000Y-94200000D03*
X146600000Y-94200000D03*
X147000000Y-94200000D03*
X147400000Y-94200000D03*
D35*
X148200000Y-93400000D03*
X148200000Y-93000000D03*
X148200000Y-92600000D03*
X148200000Y-92200000D03*
X148200000Y-91800000D03*
X148200000Y-91400000D03*
X148200000Y-91000000D03*
X148200000Y-90600000D03*
X148200000Y-90200000D03*
X148200000Y-89800000D03*
X148200000Y-89400000D03*
X148200000Y-89000000D03*
D34*
X147400000Y-88200000D03*
X147000000Y-88200000D03*
X146600000Y-88200000D03*
X146200000Y-88200000D03*
X145800000Y-88200000D03*
X145400000Y-88200000D03*
X145000000Y-88200000D03*
X144600000Y-88200000D03*
X144200000Y-88200000D03*
X143800000Y-88200000D03*
X143400000Y-88200000D03*
X143000000Y-88200000D03*
D35*
X142200000Y-89000000D03*
X142200000Y-89400000D03*
X142200000Y-89800000D03*
X142200000Y-90200000D03*
X142200000Y-90600000D03*
X142200000Y-91000000D03*
X142200000Y-91400000D03*
X142200000Y-91800000D03*
X142200000Y-92200000D03*
X142200000Y-92600000D03*
X142200000Y-93000000D03*
X142200000Y-93400000D03*
D36*
X146868750Y-89531250D03*
X145756250Y-89531250D03*
X144643750Y-89531250D03*
X143531250Y-89531250D03*
X146868750Y-90643750D03*
X145756250Y-90643750D03*
X144643750Y-90643750D03*
X143531250Y-90643750D03*
X146868750Y-91756250D03*
X145756250Y-91756250D03*
X144643750Y-91756250D03*
X143531250Y-91756250D03*
X146868750Y-92868750D03*
X145756250Y-92868750D03*
X144643750Y-92868750D03*
X143531250Y-92868750D03*
D37*
X149733000Y-83058000D03*
X143764000Y-83439000D03*
X138557000Y-83693000D03*
X136271000Y-84836000D03*
X135128000Y-83312000D03*
X134112000Y-85344000D03*
X137236210Y-107074395D03*
X139573000Y-118364000D03*
X144780000Y-121031000D03*
X134747000Y-91186000D03*
X155575000Y-101981000D03*
X153162000Y-103632000D03*
X150114000Y-101092000D03*
X148336000Y-97663000D03*
X151384000Y-84455000D03*
X143764000Y-86868000D03*
X137287000Y-106299000D03*
X135255000Y-101727000D03*
X140589000Y-94869000D03*
X154813000Y-93853000D03*
X146050000Y-99695000D03*
X147066000Y-97536000D03*
X134366002Y-96901000D03*
X140843000Y-88011000D03*
X150876000Y-99060000D03*
X149606000Y-97790000D03*
X152400000Y-98679000D03*
X150241000Y-99949000D03*
D38*
X143800000Y-88200000D02*
X144200000Y-88200000D01*
X143800000Y-88200000D02*
X143800000Y-87412000D01*
X143800000Y-87412000D02*
X143510000Y-87122000D01*
D39*
X137906760Y-80093440D02*
X137909300Y-85568700D01*
X137909300Y-85568700D02*
X137753000Y-85725000D01*
D40*
X137750460Y-80249740D02*
X137906760Y-80093440D01*
D39*
X151384000Y-84455000D02*
X149987000Y-83058000D01*
X149987000Y-83058000D02*
X149733000Y-83058000D01*
X137414000Y-83693000D02*
X138557000Y-83693000D01*
X136271000Y-84836000D02*
X137414000Y-83693000D01*
X135128000Y-84328000D02*
X135128000Y-83312000D01*
X134112000Y-85344000D02*
X135128000Y-84328000D01*
X143764000Y-83439000D02*
X143764000Y-83397000D01*
X143764000Y-83397000D02*
X143764000Y-83439000D01*
X143764000Y-83439000D02*
X143764000Y-83397000D01*
X137720760Y-80363640D02*
X137906760Y-80177640D01*
X140250000Y-107442000D02*
X140200000Y-107442000D01*
X140200000Y-107442000D02*
X139670599Y-107971401D01*
X139670599Y-107971401D02*
X138133216Y-107971401D01*
X138133216Y-107971401D02*
X137236210Y-107074395D01*
X139573000Y-118364000D02*
X139573000Y-117501000D01*
X139573000Y-117501000D02*
X139827000Y-117247000D01*
X144780000Y-123190000D02*
X144780000Y-121031000D01*
X153416000Y-114681000D02*
X147876641Y-114681000D01*
X143002000Y-118279000D02*
X143506000Y-118279000D01*
X147876641Y-114681000D02*
X147253000Y-114681000D01*
X143506000Y-118279000D02*
X147104000Y-114681000D01*
X147104000Y-114681000D02*
X147876641Y-114681000D01*
X154956580Y-116221580D02*
X155321000Y-116586000D01*
X154432000Y-115697000D02*
X154956580Y-116221580D01*
X154956580Y-116221580D02*
X153416000Y-114681000D01*
X147253000Y-114681000D02*
X144754000Y-112182000D01*
X144754000Y-112182000D02*
X144200000Y-112182000D01*
X144780000Y-123190000D02*
X144780000Y-122809000D01*
X151780240Y-117536000D02*
X151780240Y-117078760D01*
X155321000Y-118643400D02*
X157327600Y-120650000D01*
X151780240Y-117078760D02*
X153162000Y-115697000D01*
X153162000Y-115697000D02*
X154432000Y-115697000D01*
X155321000Y-116586000D02*
X155321000Y-118643400D01*
X157327600Y-120650000D02*
X157480000Y-120650000D01*
X149606000Y-117036000D02*
X151280240Y-117036000D01*
X151280240Y-117036000D02*
X151780240Y-117536000D01*
X139827000Y-117247000D02*
X139877000Y-117247000D01*
X139877000Y-117247000D02*
X140909000Y-118279000D01*
X140909000Y-118279000D02*
X142498000Y-118279000D01*
X142498000Y-118279000D02*
X143002000Y-118279000D01*
X144200000Y-107782000D02*
X144200000Y-112182000D01*
X140250000Y-107442000D02*
X140716000Y-107442000D01*
X140716000Y-107442000D02*
X141351000Y-108077000D01*
X141351000Y-108077000D02*
X141351000Y-109982000D01*
X141351000Y-109982000D02*
X140970000Y-110363000D01*
X140970000Y-110363000D02*
X140542000Y-110363000D01*
X135628091Y-92067091D02*
X134747000Y-91186000D01*
X133350000Y-94345182D02*
X133350000Y-94615000D01*
X133350000Y-94615000D02*
X136248670Y-97513670D01*
X134612091Y-93083091D02*
X133350000Y-94345182D01*
X133350000Y-94345182D02*
X133350000Y-101943320D01*
X133350000Y-101943320D02*
X133694341Y-102287661D01*
X133694341Y-102287661D02*
X134194340Y-102787660D01*
X135628091Y-92067091D02*
X134612091Y-93083091D01*
X155590240Y-100772000D02*
X155590240Y-101965760D01*
X155590240Y-101965760D02*
X155575000Y-101981000D01*
X157041000Y-96520000D02*
X157041000Y-96620000D01*
X157041000Y-96620000D02*
X156718000Y-96943000D01*
X156718000Y-96943000D02*
X156718000Y-100298290D01*
X156718000Y-100298290D02*
X156244290Y-100772000D01*
X156244290Y-100772000D02*
X155590240Y-100772000D01*
X152142000Y-103969243D02*
X152142000Y-104475000D01*
X152142000Y-102931000D02*
X152142000Y-103969243D01*
X152142000Y-103969243D02*
X152824757Y-103969243D01*
X152824757Y-103969243D02*
X153162000Y-103632000D01*
X152142000Y-104475000D02*
X152442000Y-104775000D01*
X148717000Y-101497000D02*
X149709000Y-101497000D01*
X149709000Y-101497000D02*
X150114000Y-101092000D01*
X148755000Y-97663000D02*
X148336000Y-97663000D01*
X149267000Y-96647000D02*
X149267000Y-97151000D01*
X149267000Y-97151000D02*
X148755000Y-97663000D01*
X157480000Y-92710000D02*
X157480000Y-96081000D01*
X157480000Y-96081000D02*
X157041000Y-96520000D01*
X149267000Y-94167000D02*
X148500000Y-93400000D01*
X148500000Y-93400000D02*
X148200000Y-93400000D01*
X149267000Y-96647000D02*
X149267000Y-94167000D01*
X141986000Y-83397000D02*
X143764000Y-83397000D01*
X143764000Y-83397000D02*
X147913000Y-83397000D01*
X148505000Y-83989000D02*
X148505000Y-84328000D01*
X147913000Y-83397000D02*
X148505000Y-83989000D01*
X148505000Y-84328000D02*
X148505000Y-84794000D01*
X147405000Y-85259000D02*
X147405000Y-85725000D01*
X147701000Y-84963000D02*
X147405000Y-85259000D01*
X148336000Y-84963000D02*
X147701000Y-84963000D01*
X148505000Y-84794000D02*
X148336000Y-84963000D01*
X148505000Y-84328000D02*
X151257000Y-84328000D01*
D38*
X151257000Y-84328000D02*
X151384000Y-84455000D01*
D39*
X151384000Y-84455000D02*
X151442000Y-84513000D01*
X153035000Y-84513000D02*
X151442000Y-84513000D01*
X143510000Y-87122000D02*
X143764000Y-86868000D01*
X143510000Y-87122000D02*
X143002000Y-87122000D01*
X137753000Y-85725000D02*
X137753000Y-86699000D01*
X137753000Y-86699000D02*
X138176000Y-87122000D01*
X139065000Y-87122000D02*
X138176000Y-87122000D01*
X138176000Y-87122000D02*
X136271000Y-87122000D01*
X135255000Y-86614000D02*
X134754909Y-87114091D01*
X135763000Y-86614000D02*
X135255000Y-86614000D01*
X136271000Y-87122000D02*
X135763000Y-86614000D01*
X138515000Y-88011000D02*
X138515000Y-87418000D01*
D38*
X138811000Y-87122000D02*
X139065000Y-87122000D01*
D39*
X139065000Y-87122000D02*
X143002000Y-87122000D01*
X138515000Y-87418000D02*
X138811000Y-87122000D01*
X136248670Y-97513670D02*
X136607340Y-97155000D01*
X136607340Y-97155000D02*
X138303000Y-97155000D01*
D38*
X138303000Y-97155000D02*
X138534670Y-96923330D01*
D39*
X137533091Y-91447909D02*
X137160000Y-91821000D01*
X135874182Y-91821000D02*
X135628091Y-92067091D01*
X137160000Y-91821000D02*
X135874182Y-91821000D01*
X139311091Y-91701909D02*
X137787091Y-91701909D01*
X137787091Y-91701909D02*
X137533091Y-91447909D01*
X148167000Y-96647000D02*
X148167000Y-94967000D01*
X148167000Y-94967000D02*
X147400000Y-94200000D01*
X140589000Y-94869000D02*
X142331000Y-94869000D01*
X142331000Y-94869000D02*
X143000000Y-94200000D01*
X137842000Y-110363000D02*
X137742000Y-110363000D01*
X137742000Y-110363000D02*
X136652000Y-109273000D01*
X136652000Y-109273000D02*
X136652000Y-106680000D01*
X136652000Y-106680000D02*
X137033000Y-106299000D01*
X137033000Y-106299000D02*
X137287000Y-106299000D01*
X138430000Y-107442000D02*
X137591799Y-106603799D01*
X139150000Y-107442000D02*
X138430000Y-107442000D01*
X137591799Y-106603799D02*
X137287000Y-106299000D01*
X143510000Y-105606000D02*
X143510000Y-106060000D01*
X141277000Y-113643000D02*
X141277000Y-114197000D01*
X143510000Y-106060000D02*
X142875000Y-106695000D01*
X142875000Y-106695000D02*
X142875000Y-112045000D01*
X142875000Y-112045000D02*
X141277000Y-113643000D01*
X141277000Y-115697000D02*
X141520000Y-115697000D01*
X141520000Y-115697000D02*
X143002000Y-117179000D01*
X141277000Y-114197000D02*
X141277000Y-115697000D01*
X136315660Y-100666340D02*
X135255000Y-101727000D01*
X134301802Y-99251198D02*
X134872604Y-99822000D01*
X134872604Y-99822000D02*
X135471320Y-99822000D01*
X135471320Y-99822000D02*
X136315660Y-100666340D01*
X139595330Y-95862670D02*
X140589000Y-94869000D01*
X154813000Y-93853000D02*
X154813000Y-92202000D01*
X154813000Y-92202000D02*
X156845000Y-90170000D01*
X156845000Y-90170000D02*
X157480000Y-90170000D01*
X154813000Y-93853000D02*
X154813000Y-92271000D01*
X154813000Y-92271000D02*
X153035000Y-92271000D01*
X146050000Y-99695000D02*
X146050000Y-100896000D01*
X146050000Y-100896000D02*
X146177000Y-101023000D01*
X147955000Y-96647000D02*
X147066000Y-97536000D01*
X151642000Y-104475000D02*
X151642000Y-101031000D01*
D38*
X151342000Y-104775000D02*
X151642000Y-104475000D01*
X151142000Y-102931000D02*
X151642000Y-102931000D01*
D39*
X148270000Y-102931000D02*
X151642000Y-102931000D01*
X146362000Y-101023000D02*
X148270000Y-102931000D01*
D38*
X146177000Y-101023000D02*
X146362000Y-101023000D01*
D39*
X147378000Y-99822000D02*
X148267000Y-99822000D01*
X146177000Y-101023000D02*
X147378000Y-99822000D01*
D38*
X157422000Y-115512000D02*
X157480000Y-115570000D01*
D39*
X157422000Y-111760000D02*
X157422000Y-115512000D01*
X139150000Y-106595000D02*
X140139000Y-105606000D01*
X140139000Y-105606000D02*
X141097000Y-105606000D01*
X139150000Y-107442000D02*
X139150000Y-106595000D01*
X145230000Y-101023000D02*
X144780000Y-101473000D01*
X144780000Y-101473000D02*
X144780000Y-105029000D01*
X144780000Y-105029000D02*
X144203000Y-105606000D01*
X144203000Y-105606000D02*
X143510000Y-105606000D01*
X146177000Y-101023000D02*
X145230000Y-101023000D01*
X157422000Y-108342000D02*
X157422000Y-111760000D01*
X156464000Y-107384000D02*
X157422000Y-108342000D01*
D38*
X135047984Y-89104223D02*
X135047984Y-88962802D01*
X135047984Y-88962802D02*
X133977091Y-87891909D01*
X141888000Y-88944000D02*
X137839000Y-88944000D01*
X136144000Y-89281000D02*
X135224761Y-89281000D01*
X137033000Y-88392000D02*
X136144000Y-89281000D01*
X137287000Y-88392000D02*
X137033000Y-88392000D01*
X137839000Y-88944000D02*
X137287000Y-88392000D01*
X135224761Y-89281000D02*
X135047984Y-89104223D01*
X135224761Y-89281000D02*
X135047984Y-89104223D01*
X137240016Y-89457777D02*
X137240016Y-89599198D01*
X137240016Y-89599198D02*
X138310909Y-90670091D01*
X141888000Y-89444000D02*
X137253793Y-89444000D01*
X137253793Y-89444000D02*
X137240016Y-89457777D01*
X146246000Y-84328000D02*
X146246000Y-86354000D01*
X145400000Y-87200000D02*
X145400000Y-88200000D01*
X146246000Y-86354000D02*
X145400000Y-87200000D01*
X146246000Y-84328000D02*
X147405000Y-84328000D01*
X141986000Y-85640000D02*
X142071000Y-85725000D01*
X141986000Y-84497000D02*
X141986000Y-85640000D01*
X140912000Y-85725000D02*
X142071000Y-85725000D01*
X144330000Y-85725000D02*
X144600000Y-85995000D01*
X144600000Y-85995000D02*
X144600000Y-88200000D01*
X144330000Y-85725000D02*
X143171000Y-85725000D01*
D40*
X140009460Y-80180340D02*
X140006760Y-80177640D01*
D38*
X139979760Y-80445640D02*
X140006760Y-80418640D01*
X138853000Y-85725000D02*
X140012000Y-85725000D01*
X140006760Y-85719760D02*
X140012000Y-85725000D01*
D40*
X140006760Y-80177640D02*
X140006760Y-85719760D01*
D38*
X141213000Y-89800000D02*
X141888000Y-89800000D01*
X140088909Y-90924091D02*
X141213000Y-89800000D01*
X143400000Y-88200000D02*
X143000000Y-88200000D01*
X143000000Y-88200000D02*
X141032000Y-88200000D01*
X141032000Y-88200000D02*
X140843000Y-88011000D01*
X134938198Y-98614802D02*
X137268858Y-98614802D01*
X137268858Y-98614802D02*
X137309330Y-98574330D01*
X134366002Y-96901000D02*
X134366002Y-98042606D01*
X134366002Y-98042606D02*
X134938198Y-98614802D01*
X139615000Y-88011000D02*
X140843000Y-88011000D01*
X137309330Y-98574330D02*
X137309330Y-98575726D01*
X137309330Y-98575726D02*
X138365802Y-99632198D01*
X148505000Y-85725000D02*
X147330000Y-86900000D01*
X145800000Y-87300000D02*
X145800000Y-88200000D01*
X146200000Y-86900000D02*
X145800000Y-87300000D01*
X147330000Y-86900000D02*
X146200000Y-86900000D01*
X147610700Y-103390700D02*
X148717000Y-104497000D01*
X146177000Y-103390700D02*
X146177000Y-101923000D01*
X146177000Y-103390700D02*
X147610700Y-103390700D01*
X138551883Y-93477117D02*
X139829000Y-92200000D01*
X139829000Y-92200000D02*
X142088000Y-92200000D01*
X136405909Y-92844909D02*
X137038117Y-93477117D01*
X137038117Y-93477117D02*
X138551883Y-93477117D01*
X136784117Y-95244883D02*
X137284116Y-95744882D01*
X137284116Y-95744882D02*
X138189118Y-95744882D01*
X138189118Y-95744882D02*
X141334000Y-92600000D01*
X141334000Y-92600000D02*
X141988000Y-92600000D01*
X135389909Y-93860909D02*
X136773883Y-95244883D01*
X136773883Y-95244883D02*
X136784117Y-95244883D01*
D39*
X157589220Y-99822000D02*
X157589220Y-102138480D01*
X157589220Y-102138480D02*
X156464000Y-103263700D01*
X156464000Y-104762300D02*
X156464000Y-106484000D01*
D38*
X153035000Y-88404700D02*
X150695300Y-88404700D01*
X149300000Y-89800000D02*
X148200000Y-89800000D01*
X150695300Y-88404700D02*
X149300000Y-89800000D01*
X153022300Y-88392000D02*
X153035000Y-88404700D01*
X145230000Y-85725000D02*
X145000000Y-85955000D01*
X145000000Y-85955000D02*
X145000000Y-88200000D01*
X145230000Y-85021000D02*
X145346000Y-84905000D01*
X145346000Y-84905000D02*
X145346000Y-84328000D01*
X145230000Y-85725000D02*
X145230000Y-85021000D01*
X143400000Y-95487000D02*
X143400000Y-94194000D01*
X140865330Y-97132670D02*
X141754330Y-97132670D01*
X141754330Y-97132670D02*
X143400000Y-95487000D01*
X139002198Y-98995802D02*
X139804670Y-98193330D01*
X156464000Y-86741000D02*
X150495000Y-86741000D01*
X150495000Y-86741000D02*
X149987000Y-87249000D01*
X149987000Y-87249000D02*
X149987000Y-88646000D01*
X149987000Y-88646000D02*
X149233000Y-89400000D01*
X157607000Y-87884000D02*
X156464000Y-86741000D01*
X149233000Y-89400000D02*
X148188000Y-89400000D01*
X157157000Y-85413000D02*
X157480000Y-85090000D01*
X153035000Y-85413000D02*
X157157000Y-85413000D01*
X152088000Y-86360000D02*
X153035000Y-85413000D01*
X150368000Y-86360000D02*
X149606000Y-87122000D01*
X149606000Y-87122000D02*
X149606000Y-88519000D01*
X149606000Y-88519000D02*
X149125000Y-89000000D01*
X148088000Y-89000000D02*
X149125000Y-89000000D01*
X150368000Y-86360000D02*
X152088000Y-86360000D01*
X137160000Y-123037600D02*
X137160000Y-123190000D01*
X133604000Y-106202538D02*
X133604000Y-118872000D01*
X136144000Y-121412000D02*
X136144000Y-122021600D01*
X143515202Y-96291336D02*
X133604000Y-106202538D01*
X133604000Y-118872000D02*
X136144000Y-121412000D01*
X136144000Y-122021600D02*
X137160000Y-123037600D01*
X143843064Y-96291336D02*
X143515202Y-96291336D01*
X144600000Y-95534400D02*
X143843064Y-96291336D01*
X144600000Y-94394000D02*
X144600000Y-95534400D01*
X138328400Y-121666000D02*
X139700000Y-123037600D01*
X144038256Y-96596144D02*
X143641459Y-96596145D01*
X133985000Y-106252604D02*
X133985000Y-118618000D01*
X145000000Y-95634400D02*
X144038256Y-96596144D01*
X137033000Y-121666000D02*
X138328400Y-121666000D01*
X143641459Y-96596145D02*
X133985000Y-106252604D01*
X133985000Y-118618000D02*
X137033000Y-121666000D01*
X139700000Y-123037600D02*
X139700000Y-123190000D01*
X145000000Y-94194000D02*
X145000000Y-95634400D01*
X140487400Y-121285000D02*
X142240000Y-123037600D01*
X145400000Y-95734400D02*
X144233446Y-96900954D01*
X134366000Y-106302670D02*
X134366000Y-118364000D01*
X137287000Y-121285000D02*
X140487400Y-121285000D01*
X143767716Y-96900954D02*
X134366000Y-106302670D01*
X144233446Y-96900954D02*
X143767716Y-96900954D01*
X145400000Y-93994000D02*
X145400000Y-95734400D01*
X142240000Y-123037600D02*
X142240000Y-123190000D01*
X134366000Y-118364000D02*
X137287000Y-121285000D01*
X137033000Y-120396000D02*
X147218400Y-120396000D01*
X134747000Y-118110000D02*
X137033000Y-120396000D01*
X134747000Y-106352736D02*
X134747000Y-118110000D01*
X149860000Y-123037600D02*
X149860000Y-123190000D01*
X145800000Y-94094000D02*
X145800000Y-95834400D01*
X144428638Y-97205762D02*
X143893973Y-97205763D01*
X145800000Y-95834400D02*
X144428638Y-97205762D01*
X143893973Y-97205763D02*
X134747000Y-106352736D01*
X147218400Y-120396000D02*
X149860000Y-123037600D01*
X152400000Y-123037600D02*
X152400000Y-123190000D01*
X144623828Y-97510572D02*
X144020230Y-97510572D01*
X137287000Y-120015000D02*
X149377400Y-120015000D01*
X149377400Y-120015000D02*
X152400000Y-123037600D01*
X144020230Y-97510572D02*
X135128000Y-106402802D01*
X135128000Y-106402802D02*
X135128000Y-117856000D01*
X146200000Y-93994000D02*
X146200000Y-95934400D01*
X135128000Y-117856000D02*
X137287000Y-120015000D01*
X146200000Y-95934400D02*
X144623828Y-97510572D01*
X154559000Y-99187000D02*
X154559000Y-111506000D01*
X151892000Y-96520000D02*
X154559000Y-99187000D01*
X149600000Y-91400000D02*
X151892000Y-93692000D01*
X154559000Y-111506000D02*
X154305000Y-111760000D01*
X148288000Y-91400000D02*
X149600000Y-91400000D01*
X151892000Y-93692000D02*
X151892000Y-96520000D01*
X156649000Y-118110000D02*
X157480000Y-118110000D01*
X154305000Y-111760000D02*
X154305000Y-114935000D01*
X154305000Y-114935000D02*
X157480000Y-118110000D01*
X156522000Y-111760000D02*
X154305000Y-111760000D01*
X156141000Y-96520000D02*
X155520000Y-96520000D01*
X149200000Y-90200000D02*
X148200000Y-90200000D01*
X155520000Y-96520000D02*
X149200000Y-90200000D01*
X156141000Y-98321240D02*
X155590240Y-98872000D01*
X156141000Y-96520000D02*
X156141000Y-98321240D01*
X148200000Y-92600000D02*
X149000000Y-92600000D01*
X149297500Y-92897500D02*
X150749000Y-94349000D01*
X150749000Y-94349000D02*
X150749000Y-98044000D01*
X149000000Y-92600000D02*
X149297500Y-92897500D01*
X142367000Y-102743000D02*
X142367000Y-108585000D01*
X142367000Y-101854000D02*
X142367000Y-102743000D01*
X142367000Y-108585000D02*
X142367000Y-108585000D01*
X142367000Y-109347000D02*
X142367000Y-109538000D01*
X142367000Y-108585000D02*
X142367000Y-109347000D01*
X150114000Y-98806000D02*
X145415000Y-98806000D01*
X150749000Y-98171000D02*
X150114000Y-98806000D01*
X145415000Y-98806000D02*
X142367000Y-101854000D01*
X142367000Y-111252000D02*
X142367000Y-109347000D01*
X142367000Y-111363000D02*
X142367000Y-111252000D01*
X140542000Y-111363000D02*
X142367000Y-111363000D01*
X139827000Y-114173000D02*
X139827000Y-115747000D01*
X139827000Y-115747000D02*
X138377000Y-117197000D01*
X142367000Y-111252000D02*
X142367000Y-111633000D01*
X140589000Y-113411000D02*
X142367000Y-111633000D01*
X140589000Y-113411000D02*
X139827000Y-114173000D01*
X152642000Y-101031000D02*
X152642000Y-99937000D01*
X143510000Y-103886000D02*
X142367000Y-102743000D01*
X143510000Y-104706000D02*
X143510000Y-103886000D01*
X150749000Y-98044000D02*
X150749000Y-98171000D01*
X152642000Y-99937000D02*
X150749000Y-98044000D01*
X150368000Y-97917000D02*
X150368000Y-97790000D01*
X148756000Y-93000000D02*
X150368000Y-94612000D01*
X148188000Y-93000000D02*
X148756000Y-93000000D01*
X150368000Y-94612000D02*
X150368000Y-97790000D01*
X149606000Y-97790000D02*
X150368000Y-97790000D01*
X136271000Y-106553000D02*
X139790672Y-103033328D01*
X139790672Y-103033328D02*
X144399000Y-98425000D01*
X141097000Y-104706000D02*
X141097000Y-104353600D01*
X141097000Y-104353600D02*
X139790672Y-103047272D01*
X139790672Y-103047272D02*
X139790672Y-103033328D01*
X137842000Y-111363000D02*
X136287000Y-111363000D01*
X136287000Y-111363000D02*
X136271000Y-111379000D01*
X150368000Y-98044000D02*
X150368000Y-97917000D01*
X136271000Y-111379000D02*
X136271000Y-106553000D01*
X144399000Y-98425000D02*
X149987000Y-98425000D01*
X149987000Y-98425000D02*
X150368000Y-98044000D01*
X136271000Y-111363000D02*
X136271000Y-111379000D01*
X136271000Y-114300000D02*
X137668000Y-115697000D01*
X137668000Y-115697000D02*
X138377000Y-115697000D01*
X136271000Y-111379000D02*
X136271000Y-113665000D01*
X136271000Y-113665000D02*
X136271000Y-114300000D01*
X152146000Y-101027000D02*
X152142000Y-101031000D01*
X152142000Y-100326000D02*
X150876000Y-99060000D01*
X152142000Y-101031000D02*
X152142000Y-100326000D01*
X149167000Y-99822000D02*
X150114000Y-99822000D01*
X150114000Y-99822000D02*
X150241000Y-99949000D01*
X149200000Y-92200000D02*
X151130000Y-94130000D01*
X151130000Y-94130000D02*
X151130000Y-97409000D01*
X151130000Y-97409000D02*
X152400000Y-98679000D01*
X150241000Y-99949000D02*
X150241000Y-100130000D01*
X150241000Y-100130000D02*
X151142000Y-101031000D01*
X148188000Y-92200000D02*
X149200000Y-92200000D01*
X147000000Y-93994000D02*
X147000000Y-96134400D01*
X148336000Y-117306000D02*
X149506000Y-116136000D01*
X147828000Y-119253000D02*
X148336000Y-118745000D01*
X149506000Y-116136000D02*
X149606000Y-116136000D01*
X148336000Y-118745000D02*
X148336000Y-117306000D01*
X135890000Y-117348000D02*
X137795000Y-119253000D01*
X144272744Y-98120190D02*
X135890000Y-106502934D01*
X145014210Y-98120190D02*
X144272744Y-98120190D01*
X147000000Y-96134400D02*
X145014210Y-98120190D01*
X137795000Y-119253000D02*
X147828000Y-119253000D01*
X135890000Y-106502934D02*
X135890000Y-117348000D01*
X150106000Y-115636000D02*
X151780240Y-115636000D01*
X149606000Y-116136000D02*
X150106000Y-115636000D01*
X148188000Y-91800000D02*
X149400000Y-91800000D01*
X149400000Y-91800000D02*
X151511000Y-93911000D01*
X151511000Y-93911000D02*
X151511000Y-96774000D01*
X151511000Y-96774000D02*
X154178000Y-99441000D01*
X154178000Y-105537000D02*
X151933000Y-107782000D01*
X151933000Y-107782000D02*
X147900000Y-107782000D01*
X154178000Y-99441000D02*
X154178000Y-105537000D01*
X147900000Y-107782000D02*
X147900000Y-112182000D01*
X146600000Y-94094000D02*
X146600000Y-96034400D01*
X137541000Y-119634000D02*
X151536400Y-119634000D01*
X154940000Y-123037600D02*
X154940000Y-123190000D01*
X135509000Y-117602000D02*
X137541000Y-119634000D01*
X144146487Y-97815381D02*
X135509000Y-106452868D01*
X144819020Y-97815380D02*
X144146487Y-97815381D01*
X146600000Y-96034400D02*
X144819020Y-97815380D01*
X135509000Y-106452868D02*
X135509000Y-117602000D01*
X151536400Y-119634000D02*
X154940000Y-123037600D01*
X134620000Y-122021600D02*
X134620000Y-123190000D01*
X134620000Y-120523000D02*
X134620000Y-122021600D01*
X133223000Y-119126000D02*
X134620000Y-120523000D01*
X144200000Y-95434400D02*
X143647873Y-95986527D01*
X133223000Y-106152472D02*
X133223000Y-119126000D01*
X144200000Y-94094000D02*
X144200000Y-95434400D01*
X143647873Y-95986527D02*
X143388945Y-95986527D01*
X143388945Y-95986527D02*
X133223000Y-106152472D01*
X153779220Y-116586000D02*
X153779220Y-119489220D01*
X153779220Y-119489220D02*
X156311600Y-122021600D01*
X156311600Y-122021600D02*
X157480000Y-123190000D01*
X146177000Y-104889300D02*
X146177000Y-105537000D01*
X146177000Y-105537000D02*
X146431000Y-105791000D01*
X146431000Y-105791000D02*
X153162000Y-105791000D01*
X153162000Y-105791000D02*
X153797000Y-105156000D01*
X153797000Y-103251000D02*
X153477000Y-102931000D01*
X153797000Y-105156000D02*
X153797000Y-103251000D01*
X153477000Y-102931000D02*
X152642000Y-102931000D01*
X153035000Y-89903300D02*
X153035000Y-91371000D01*
M02*
