G04 #@! TF.FileFunction,Soldermask,Top*
%FSLAX46Y46*%
G04 Gerber Fmt 4.6, Leading zero omitted, Abs format (unit mm)*
G04 Created by KiCad (PCBNEW 0.201506192325+5795~23~ubuntu14.04.1-product) date Wed 04 Nov 2015 01:33:26 GMT*
%MOMM*%
G01*
G04 APERTURE LIST*
%ADD10C,0.100000*%
%ADD11R,0.600000X0.500000*%
%ADD12R,0.500000X0.600000*%
%ADD13R,1.600000X1.000000*%
%ADD14R,0.797560X0.797560*%
%ADD15R,2.032000X1.727200*%
%ADD16O,2.032000X1.727200*%
%ADD17R,0.400000X0.600000*%
%ADD18R,0.600000X0.400000*%
%ADD19R,0.600000X1.000000*%
%ADD20R,0.450000X1.000000*%
%ADD21R,0.800000X0.300000*%
%ADD22R,0.300000X0.800000*%
%ADD23R,1.500000X2.400000*%
%ADD24R,0.800100X0.800100*%
%ADD25R,1.727200X2.032000*%
%ADD26O,1.727200X2.032000*%
%ADD27R,0.200000X0.800000*%
%ADD28R,0.800000X0.200000*%
%ADD29R,1.112500X1.112500*%
G04 APERTURE END LIST*
D10*
G36*
X134790264Y-86725182D02*
X135143818Y-87078736D01*
X134719554Y-87503000D01*
X134366000Y-87149446D01*
X134790264Y-86725182D01*
X134790264Y-86725182D01*
G37*
G36*
X134012446Y-87503000D02*
X134366000Y-87856554D01*
X133941736Y-88280818D01*
X133588182Y-87927264D01*
X134012446Y-87503000D01*
X134012446Y-87503000D01*
G37*
G36*
X137497736Y-91836818D02*
X137144182Y-91483264D01*
X137568446Y-91059000D01*
X137922000Y-91412554D01*
X137497736Y-91836818D01*
X137497736Y-91836818D01*
G37*
G36*
X138275554Y-91059000D02*
X137922000Y-90705446D01*
X138346264Y-90281182D01*
X138699818Y-90634736D01*
X138275554Y-91059000D01*
X138275554Y-91059000D01*
G37*
D11*
X147405000Y-84328000D03*
X148505000Y-84328000D03*
D12*
X141986000Y-84497000D03*
X141986000Y-83397000D03*
D11*
X143171000Y-85725000D03*
X142071000Y-85725000D03*
X138853000Y-85725000D03*
X137753000Y-85725000D03*
D10*
G36*
X140124264Y-90535182D02*
X140477818Y-90888736D01*
X140053554Y-91313000D01*
X139700000Y-90959446D01*
X140124264Y-90535182D01*
X140124264Y-90535182D01*
G37*
G36*
X139346446Y-91313000D02*
X139700000Y-91666554D01*
X139275736Y-92090818D01*
X138922182Y-91737264D01*
X139346446Y-91313000D01*
X139346446Y-91313000D01*
G37*
D11*
X139615000Y-88011000D03*
X138515000Y-88011000D03*
X148505000Y-85725000D03*
X147405000Y-85725000D03*
X148167000Y-96647000D03*
X149267000Y-96647000D03*
D12*
X143002000Y-117179000D03*
X143002000Y-118279000D03*
D11*
X151342000Y-104775000D03*
X152442000Y-104775000D03*
D13*
X148717000Y-104497000D03*
X148717000Y-101497000D03*
D11*
X139150000Y-107442000D03*
X140250000Y-107442000D03*
D10*
G36*
X135239182Y-92031736D02*
X135592736Y-91678182D01*
X136017000Y-92102446D01*
X135663446Y-92456000D01*
X135239182Y-92031736D01*
X135239182Y-92031736D01*
G37*
G36*
X136017000Y-92809554D02*
X136370554Y-92456000D01*
X136794818Y-92880264D01*
X136441264Y-93233818D01*
X136017000Y-92809554D01*
X136017000Y-92809554D01*
G37*
G36*
X134223182Y-93047736D02*
X134576736Y-92694182D01*
X135001000Y-93118446D01*
X134647446Y-93472000D01*
X134223182Y-93047736D01*
X134223182Y-93047736D01*
G37*
G36*
X135001000Y-93825554D02*
X135354554Y-93472000D01*
X135778818Y-93896264D01*
X135425264Y-94249818D01*
X135001000Y-93825554D01*
X135001000Y-93825554D01*
G37*
D14*
X156464000Y-103263700D03*
X156464000Y-104762300D03*
X146177000Y-104889300D03*
X146177000Y-103390700D03*
X153035000Y-88404700D03*
X153035000Y-89903300D03*
D15*
X157480000Y-92710000D03*
D16*
X157480000Y-90170000D03*
X157480000Y-87630000D03*
X157480000Y-85090000D03*
D10*
G36*
X134867487Y-98261249D02*
X135291751Y-98685513D01*
X135008909Y-98968355D01*
X134584645Y-98544091D01*
X134867487Y-98261249D01*
X134867487Y-98261249D01*
G37*
G36*
X134231091Y-98897645D02*
X134655355Y-99321909D01*
X134372513Y-99604751D01*
X133948249Y-99180487D01*
X134231091Y-98897645D01*
X134231091Y-98897645D01*
G37*
D17*
X157422000Y-111760000D03*
X156522000Y-111760000D03*
D18*
X153035000Y-84513000D03*
X153035000Y-85413000D03*
D17*
X156141000Y-96520000D03*
X157041000Y-96520000D03*
D18*
X156464000Y-107384000D03*
X156464000Y-106484000D03*
X143510000Y-105606000D03*
X143510000Y-104706000D03*
X141097000Y-105606000D03*
X141097000Y-104706000D03*
D17*
X148267000Y-99822000D03*
X149167000Y-99822000D03*
D18*
X146177000Y-101023000D03*
X146177000Y-101923000D03*
X149606000Y-116136000D03*
X149606000Y-117036000D03*
X153035000Y-92271000D03*
X153035000Y-91371000D03*
D19*
X144200000Y-107782000D03*
X147900000Y-107782000D03*
X144200000Y-112182000D03*
X147900000Y-112182000D03*
D20*
X143525000Y-109982000D03*
X148575000Y-109982000D03*
D15*
X157480000Y-120650000D03*
D16*
X157480000Y-118110000D03*
X157480000Y-115570000D03*
D12*
X138377000Y-114197000D03*
X138377000Y-115697000D03*
X138377000Y-117197000D03*
X141277000Y-117197000D03*
X141277000Y-115697000D03*
X141277000Y-114197000D03*
D11*
X139827000Y-117247000D03*
D21*
X152842000Y-101981000D03*
X150942000Y-101981000D03*
D22*
X152642000Y-101031000D03*
X152142000Y-101031000D03*
X151642000Y-101031000D03*
X151142000Y-101031000D03*
X152642000Y-102931000D03*
X152142000Y-102931000D03*
X151642000Y-102931000D03*
X151142000Y-102931000D03*
D23*
X139192000Y-110363000D03*
D18*
X140542000Y-111363000D03*
X140542000Y-110363000D03*
X140542000Y-109363000D03*
X137842000Y-109363000D03*
X137842000Y-110363000D03*
X137842000Y-111363000D03*
D10*
G36*
X134270167Y-89033512D02*
X134977273Y-88326406D01*
X135825801Y-89174934D01*
X135118695Y-89882040D01*
X134270167Y-89033512D01*
X134270167Y-89033512D01*
G37*
G36*
X136462199Y-89387066D02*
X137169305Y-88679960D01*
X138017833Y-89528488D01*
X137310727Y-90235594D01*
X136462199Y-89387066D01*
X136462199Y-89387066D01*
G37*
G36*
X135542960Y-90306305D02*
X136250066Y-89599199D01*
X137098594Y-90447727D01*
X136391488Y-91154833D01*
X135542960Y-90306305D01*
X135542960Y-90306305D01*
G37*
G36*
X135189406Y-88114273D02*
X135896512Y-87407167D01*
X136745040Y-88255695D01*
X136037934Y-88962801D01*
X135189406Y-88114273D01*
X135189406Y-88114273D01*
G37*
G36*
X136501274Y-94254934D02*
X137774066Y-95527726D01*
X137066960Y-96234832D01*
X135794168Y-94962040D01*
X136501274Y-94254934D01*
X136501274Y-94254934D01*
G37*
G36*
X138269040Y-92487168D02*
X139541832Y-93759960D01*
X138834726Y-94467066D01*
X137561934Y-93194274D01*
X138269040Y-92487168D01*
X138269040Y-92487168D01*
G37*
G36*
X136103528Y-99747101D02*
X137234899Y-100878472D01*
X136527792Y-101585579D01*
X135396421Y-100454208D01*
X136103528Y-99747101D01*
X136103528Y-99747101D01*
G37*
G36*
X133982208Y-101868421D02*
X135113579Y-102999792D01*
X134406472Y-103706899D01*
X133275101Y-102575528D01*
X133982208Y-101868421D01*
X133982208Y-101868421D01*
G37*
D24*
X155590240Y-98872000D03*
X155590240Y-100772000D03*
X157589220Y-99822000D03*
X151780240Y-115636000D03*
X151780240Y-117536000D03*
X153779220Y-116586000D03*
D10*
G36*
X139613008Y-95314662D02*
X140143338Y-95844992D01*
X139577652Y-96410678D01*
X139047322Y-95880348D01*
X139613008Y-95314662D01*
X139613008Y-95314662D01*
G37*
G36*
X138552348Y-96375322D02*
X139082678Y-96905652D01*
X138516992Y-97471338D01*
X137986662Y-96941008D01*
X138552348Y-96375322D01*
X138552348Y-96375322D01*
G37*
G36*
X137857338Y-98592008D02*
X137327008Y-99122338D01*
X136761322Y-98556652D01*
X137291652Y-98026322D01*
X137857338Y-98592008D01*
X137857338Y-98592008D01*
G37*
G36*
X136796678Y-97531348D02*
X136266348Y-98061678D01*
X135700662Y-97495992D01*
X136230992Y-96965662D01*
X136796678Y-97531348D01*
X136796678Y-97531348D01*
G37*
D17*
X144330000Y-85725000D03*
X145230000Y-85725000D03*
X145346000Y-84328000D03*
X146246000Y-84328000D03*
X140912000Y-85725000D03*
X140012000Y-85725000D03*
D10*
G36*
X140723909Y-96637695D02*
X141360305Y-97274091D01*
X141006751Y-97627645D01*
X140370355Y-96991249D01*
X140723909Y-96637695D01*
X140723909Y-96637695D01*
G37*
G36*
X139663249Y-97698355D02*
X140299645Y-98334751D01*
X139946091Y-98688305D01*
X139309695Y-98051909D01*
X139663249Y-97698355D01*
X139663249Y-97698355D01*
G37*
G36*
X138931487Y-98642249D02*
X139355751Y-99066513D01*
X139072909Y-99349355D01*
X138648645Y-98925091D01*
X138931487Y-98642249D01*
X138931487Y-98642249D01*
G37*
G36*
X138295091Y-99278645D02*
X138719355Y-99702909D01*
X138436513Y-99985751D01*
X138012249Y-99561487D01*
X138295091Y-99278645D01*
X138295091Y-99278645D01*
G37*
D25*
X134620000Y-123190000D03*
D26*
X137160000Y-123190000D03*
X139700000Y-123190000D03*
X142240000Y-123190000D03*
X144780000Y-123190000D03*
X147320000Y-123190000D03*
X149860000Y-123190000D03*
X152400000Y-123190000D03*
X154940000Y-123190000D03*
X157480000Y-123190000D03*
D27*
X143000000Y-94200000D03*
X143400000Y-94200000D03*
X143800000Y-94200000D03*
X144200000Y-94200000D03*
X144600000Y-94200000D03*
X145000000Y-94200000D03*
X145400000Y-94200000D03*
X145800000Y-94200000D03*
X146200000Y-94200000D03*
X146600000Y-94200000D03*
X147000000Y-94200000D03*
X147400000Y-94200000D03*
D28*
X148200000Y-93400000D03*
X148200000Y-93000000D03*
X148200000Y-92600000D03*
X148200000Y-92200000D03*
X148200000Y-91800000D03*
X148200000Y-91400000D03*
X148200000Y-91000000D03*
X148200000Y-90600000D03*
X148200000Y-90200000D03*
X148200000Y-89800000D03*
X148200000Y-89400000D03*
X148200000Y-89000000D03*
D27*
X147400000Y-88200000D03*
X147000000Y-88200000D03*
X146600000Y-88200000D03*
X146200000Y-88200000D03*
X145800000Y-88200000D03*
X145400000Y-88200000D03*
X145000000Y-88200000D03*
X144600000Y-88200000D03*
X144200000Y-88200000D03*
X143800000Y-88200000D03*
X143400000Y-88200000D03*
X143000000Y-88200000D03*
D28*
X142200000Y-89000000D03*
X142200000Y-89400000D03*
X142200000Y-89800000D03*
X142200000Y-90200000D03*
X142200000Y-90600000D03*
X142200000Y-91000000D03*
X142200000Y-91400000D03*
X142200000Y-91800000D03*
X142200000Y-92200000D03*
X142200000Y-92600000D03*
X142200000Y-93000000D03*
X142200000Y-93400000D03*
D29*
X146868750Y-89531250D03*
X145756250Y-89531250D03*
X144643750Y-89531250D03*
X143531250Y-89531250D03*
X146868750Y-90643750D03*
X145756250Y-90643750D03*
X144643750Y-90643750D03*
X143531250Y-90643750D03*
X146868750Y-91756250D03*
X145756250Y-91756250D03*
X144643750Y-91756250D03*
X143531250Y-91756250D03*
X146868750Y-92868750D03*
X145756250Y-92868750D03*
X144643750Y-92868750D03*
X143531250Y-92868750D03*
M02*
