G04 #@! TF.FileFunction,Copper,L1,Top,Signal*
%FSLAX46Y46*%
G04 Gerber Fmt 4.6, Leading zero omitted, Abs format (unit mm)*
G04 Created by KiCad (PCBNEW 0.201506192325+5795~23~ubuntu14.04.1-product) date Wed 04 Nov 2015 02:35:11 GMT*
%MOMM*%
G01*
G04 APERTURE LIST*
%ADD10C,0.100000*%
%ADD11R,0.600000X0.500000*%
%ADD12R,0.500000X0.600000*%
%ADD13R,1.600000X1.000000*%
%ADD14R,0.797560X0.797560*%
%ADD15R,2.032000X1.727200*%
%ADD16O,2.032000X1.727200*%
%ADD17R,0.400000X0.600000*%
%ADD18R,0.600000X0.400000*%
%ADD19R,0.600000X1.000000*%
%ADD20R,0.450000X1.000000*%
%ADD21R,0.800000X0.300000*%
%ADD22R,0.300000X0.800000*%
%ADD23R,1.500000X2.400000*%
%ADD24R,0.800100X0.800100*%
%ADD25R,0.900000X4.900000*%
%ADD26R,5.000000X0.500000*%
%ADD27R,0.500000X4.900000*%
%ADD28R,0.500000X2.640000*%
%ADD29R,2.000000X0.500000*%
%ADD30R,2.700000X0.500000*%
%ADD31R,0.500000X3.940000*%
%ADD32R,1.727200X2.032000*%
%ADD33O,1.727200X2.032000*%
%ADD34R,0.200000X0.800000*%
%ADD35R,0.800000X0.200000*%
%ADD36R,1.112500X1.112500*%
%ADD37C,0.609600*%
%ADD38C,0.200000*%
%ADD39C,0.254000*%
%ADD40C,0.500000*%
%ADD41C,0.152400*%
G04 APERTURE END LIST*
D10*
G36*
X134790264Y-86725182D02*
X135143818Y-87078736D01*
X134719554Y-87503000D01*
X134366000Y-87149446D01*
X134790264Y-86725182D01*
X134790264Y-86725182D01*
G37*
G36*
X134012446Y-87503000D02*
X134366000Y-87856554D01*
X133941736Y-88280818D01*
X133588182Y-87927264D01*
X134012446Y-87503000D01*
X134012446Y-87503000D01*
G37*
G36*
X137497736Y-91836818D02*
X137144182Y-91483264D01*
X137568446Y-91059000D01*
X137922000Y-91412554D01*
X137497736Y-91836818D01*
X137497736Y-91836818D01*
G37*
G36*
X138275554Y-91059000D02*
X137922000Y-90705446D01*
X138346264Y-90281182D01*
X138699818Y-90634736D01*
X138275554Y-91059000D01*
X138275554Y-91059000D01*
G37*
D11*
X147405000Y-84328000D03*
X148505000Y-84328000D03*
D12*
X141986000Y-84497000D03*
X141986000Y-83397000D03*
D11*
X143171000Y-85725000D03*
X142071000Y-85725000D03*
X138853000Y-85725000D03*
X137753000Y-85725000D03*
D10*
G36*
X140124264Y-90535182D02*
X140477818Y-90888736D01*
X140053554Y-91313000D01*
X139700000Y-90959446D01*
X140124264Y-90535182D01*
X140124264Y-90535182D01*
G37*
G36*
X139346446Y-91313000D02*
X139700000Y-91666554D01*
X139275736Y-92090818D01*
X138922182Y-91737264D01*
X139346446Y-91313000D01*
X139346446Y-91313000D01*
G37*
D11*
X139615000Y-88011000D03*
X138515000Y-88011000D03*
X148505000Y-85725000D03*
X147405000Y-85725000D03*
X148167000Y-96647000D03*
X149267000Y-96647000D03*
D12*
X143002000Y-117179000D03*
X143002000Y-118279000D03*
D11*
X151342000Y-104775000D03*
X152442000Y-104775000D03*
D13*
X148717000Y-104497000D03*
X148717000Y-101497000D03*
D11*
X139150000Y-107442000D03*
X140250000Y-107442000D03*
D10*
G36*
X135239182Y-92031736D02*
X135592736Y-91678182D01*
X136017000Y-92102446D01*
X135663446Y-92456000D01*
X135239182Y-92031736D01*
X135239182Y-92031736D01*
G37*
G36*
X136017000Y-92809554D02*
X136370554Y-92456000D01*
X136794818Y-92880264D01*
X136441264Y-93233818D01*
X136017000Y-92809554D01*
X136017000Y-92809554D01*
G37*
G36*
X134223182Y-93047736D02*
X134576736Y-92694182D01*
X135001000Y-93118446D01*
X134647446Y-93472000D01*
X134223182Y-93047736D01*
X134223182Y-93047736D01*
G37*
G36*
X135001000Y-93825554D02*
X135354554Y-93472000D01*
X135778818Y-93896264D01*
X135425264Y-94249818D01*
X135001000Y-93825554D01*
X135001000Y-93825554D01*
G37*
D14*
X156464000Y-103263700D03*
X156464000Y-104762300D03*
X146177000Y-104889300D03*
X146177000Y-103390700D03*
X153035000Y-88404700D03*
X153035000Y-89903300D03*
D15*
X157480000Y-92710000D03*
D16*
X157480000Y-90170000D03*
X157480000Y-87630000D03*
X157480000Y-85090000D03*
D10*
G36*
X134867487Y-98261249D02*
X135291751Y-98685513D01*
X135008909Y-98968355D01*
X134584645Y-98544091D01*
X134867487Y-98261249D01*
X134867487Y-98261249D01*
G37*
G36*
X134231091Y-98897645D02*
X134655355Y-99321909D01*
X134372513Y-99604751D01*
X133948249Y-99180487D01*
X134231091Y-98897645D01*
X134231091Y-98897645D01*
G37*
D17*
X157422000Y-111760000D03*
X156522000Y-111760000D03*
D18*
X153035000Y-84513000D03*
X153035000Y-85413000D03*
D17*
X156141000Y-96520000D03*
X157041000Y-96520000D03*
D18*
X156464000Y-107384000D03*
X156464000Y-106484000D03*
X143510000Y-105606000D03*
X143510000Y-104706000D03*
X141097000Y-105606000D03*
X141097000Y-104706000D03*
D17*
X148267000Y-99822000D03*
X149167000Y-99822000D03*
D18*
X146177000Y-101023000D03*
X146177000Y-101923000D03*
X149606000Y-116136000D03*
X149606000Y-117036000D03*
X153035000Y-92271000D03*
X153035000Y-91371000D03*
D19*
X144200000Y-107782000D03*
X147900000Y-107782000D03*
X144200000Y-112182000D03*
X147900000Y-112182000D03*
D20*
X143525000Y-109982000D03*
X148575000Y-109982000D03*
D15*
X157480000Y-120650000D03*
D16*
X157480000Y-118110000D03*
X157480000Y-115570000D03*
D12*
X138377000Y-114197000D03*
X138377000Y-115697000D03*
X138377000Y-117197000D03*
X141277000Y-117197000D03*
X141277000Y-115697000D03*
X141277000Y-114197000D03*
D11*
X139827000Y-117247000D03*
D21*
X152842000Y-101981000D03*
X150942000Y-101981000D03*
D22*
X152642000Y-101031000D03*
X152142000Y-101031000D03*
X151642000Y-101031000D03*
X151142000Y-101031000D03*
X152642000Y-102931000D03*
X152142000Y-102931000D03*
X151642000Y-102931000D03*
X151142000Y-102931000D03*
D23*
X139192000Y-110363000D03*
D18*
X140542000Y-111363000D03*
X140542000Y-110363000D03*
X140542000Y-109363000D03*
X137842000Y-109363000D03*
X137842000Y-110363000D03*
X137842000Y-111363000D03*
D10*
G36*
X134270167Y-89033512D02*
X134977273Y-88326406D01*
X135825801Y-89174934D01*
X135118695Y-89882040D01*
X134270167Y-89033512D01*
X134270167Y-89033512D01*
G37*
G36*
X136462199Y-89387066D02*
X137169305Y-88679960D01*
X138017833Y-89528488D01*
X137310727Y-90235594D01*
X136462199Y-89387066D01*
X136462199Y-89387066D01*
G37*
G36*
X135542960Y-90306305D02*
X136250066Y-89599199D01*
X137098594Y-90447727D01*
X136391488Y-91154833D01*
X135542960Y-90306305D01*
X135542960Y-90306305D01*
G37*
G36*
X135189406Y-88114273D02*
X135896512Y-87407167D01*
X136745040Y-88255695D01*
X136037934Y-88962801D01*
X135189406Y-88114273D01*
X135189406Y-88114273D01*
G37*
G36*
X136501274Y-94254934D02*
X137774066Y-95527726D01*
X137066960Y-96234832D01*
X135794168Y-94962040D01*
X136501274Y-94254934D01*
X136501274Y-94254934D01*
G37*
G36*
X138269040Y-92487168D02*
X139541832Y-93759960D01*
X138834726Y-94467066D01*
X137561934Y-93194274D01*
X138269040Y-92487168D01*
X138269040Y-92487168D01*
G37*
G36*
X136103528Y-99747101D02*
X137234899Y-100878472D01*
X136527792Y-101585579D01*
X135396421Y-100454208D01*
X136103528Y-99747101D01*
X136103528Y-99747101D01*
G37*
G36*
X133982208Y-101868421D02*
X135113579Y-102999792D01*
X134406472Y-103706899D01*
X133275101Y-102575528D01*
X133982208Y-101868421D01*
X133982208Y-101868421D01*
G37*
D24*
X155590240Y-98872000D03*
X155590240Y-100772000D03*
X157589220Y-99822000D03*
X151780240Y-115636000D03*
X151780240Y-117536000D03*
X153779220Y-116586000D03*
D10*
G36*
X139613008Y-95314662D02*
X140143338Y-95844992D01*
X139577652Y-96410678D01*
X139047322Y-95880348D01*
X139613008Y-95314662D01*
X139613008Y-95314662D01*
G37*
G36*
X138552348Y-96375322D02*
X139082678Y-96905652D01*
X138516992Y-97471338D01*
X137986662Y-96941008D01*
X138552348Y-96375322D01*
X138552348Y-96375322D01*
G37*
G36*
X137857338Y-98592008D02*
X137327008Y-99122338D01*
X136761322Y-98556652D01*
X137291652Y-98026322D01*
X137857338Y-98592008D01*
X137857338Y-98592008D01*
G37*
G36*
X136796678Y-97531348D02*
X136266348Y-98061678D01*
X135700662Y-97495992D01*
X136230992Y-96965662D01*
X136796678Y-97531348D01*
X136796678Y-97531348D01*
G37*
D17*
X144330000Y-85725000D03*
X145230000Y-85725000D03*
X145346000Y-84328000D03*
X146246000Y-84328000D03*
X140912000Y-85725000D03*
X140012000Y-85725000D03*
D10*
G36*
X140723909Y-96637695D02*
X141360305Y-97274091D01*
X141006751Y-97627645D01*
X140370355Y-96991249D01*
X140723909Y-96637695D01*
X140723909Y-96637695D01*
G37*
G36*
X139663249Y-97698355D02*
X140299645Y-98334751D01*
X139946091Y-98688305D01*
X139309695Y-98051909D01*
X139663249Y-97698355D01*
X139663249Y-97698355D01*
G37*
G36*
X138931487Y-98642249D02*
X139355751Y-99066513D01*
X139072909Y-99349355D01*
X138648645Y-98925091D01*
X138931487Y-98642249D01*
X138931487Y-98642249D01*
G37*
G36*
X138295091Y-99278645D02*
X138719355Y-99702909D01*
X138436513Y-99985751D01*
X138012249Y-99561487D01*
X138295091Y-99278645D01*
X138295091Y-99278645D01*
G37*
D25*
X137906760Y-79993440D03*
D26*
X139956760Y-77377640D03*
D27*
X140006760Y-80077640D03*
D28*
X142206760Y-78947640D03*
X144706760Y-78947640D03*
D29*
X143456760Y-80017640D03*
D30*
X145806760Y-77377640D03*
X150506760Y-77377640D03*
D28*
X146906760Y-78947640D03*
X149406760Y-78947640D03*
D29*
X148156760Y-80017640D03*
D31*
X151606760Y-79597640D03*
D32*
X134620000Y-123190000D03*
D33*
X137160000Y-123190000D03*
X139700000Y-123190000D03*
X142240000Y-123190000D03*
X144780000Y-123190000D03*
X147320000Y-123190000D03*
X149860000Y-123190000D03*
X152400000Y-123190000D03*
X154940000Y-123190000D03*
X157480000Y-123190000D03*
D34*
X143000000Y-94200000D03*
X143400000Y-94200000D03*
X143800000Y-94200000D03*
X144200000Y-94200000D03*
X144600000Y-94200000D03*
X145000000Y-94200000D03*
X145400000Y-94200000D03*
X145800000Y-94200000D03*
X146200000Y-94200000D03*
X146600000Y-94200000D03*
X147000000Y-94200000D03*
X147400000Y-94200000D03*
D35*
X148200000Y-93400000D03*
X148200000Y-93000000D03*
X148200000Y-92600000D03*
X148200000Y-92200000D03*
X148200000Y-91800000D03*
X148200000Y-91400000D03*
X148200000Y-91000000D03*
X148200000Y-90600000D03*
X148200000Y-90200000D03*
X148200000Y-89800000D03*
X148200000Y-89400000D03*
X148200000Y-89000000D03*
D34*
X147400000Y-88200000D03*
X147000000Y-88200000D03*
X146600000Y-88200000D03*
X146200000Y-88200000D03*
X145800000Y-88200000D03*
X145400000Y-88200000D03*
X145000000Y-88200000D03*
X144600000Y-88200000D03*
X144200000Y-88200000D03*
X143800000Y-88200000D03*
X143400000Y-88200000D03*
X143000000Y-88200000D03*
D35*
X142200000Y-89000000D03*
X142200000Y-89400000D03*
X142200000Y-89800000D03*
X142200000Y-90200000D03*
X142200000Y-90600000D03*
X142200000Y-91000000D03*
X142200000Y-91400000D03*
X142200000Y-91800000D03*
X142200000Y-92200000D03*
X142200000Y-92600000D03*
X142200000Y-93000000D03*
X142200000Y-93400000D03*
D36*
X146868750Y-89531250D03*
X145756250Y-89531250D03*
X144643750Y-89531250D03*
X143531250Y-89531250D03*
X146868750Y-90643750D03*
X145756250Y-90643750D03*
X144643750Y-90643750D03*
X143531250Y-90643750D03*
X146868750Y-91756250D03*
X145756250Y-91756250D03*
X144643750Y-91756250D03*
X143531250Y-91756250D03*
X146868750Y-92868750D03*
X145756250Y-92868750D03*
X144643750Y-92868750D03*
X143531250Y-92868750D03*
D37*
X146868750Y-92868750D03*
X146868750Y-90643750D03*
X146868750Y-89531250D03*
X146868750Y-91756250D03*
X145756250Y-89531250D03*
X145756250Y-92868750D03*
X145756250Y-90643750D03*
X145756250Y-91756250D03*
X144643750Y-92868750D03*
X144643750Y-90643750D03*
X144643750Y-89531250D03*
X144643750Y-91756250D03*
X143531250Y-92868750D03*
X143531250Y-90643750D03*
X143531250Y-91756250D03*
X143531250Y-89531250D03*
X148100000Y-83100000D03*
X149700000Y-83100000D03*
X146500000Y-83100000D03*
X144900000Y-83100000D03*
X143300000Y-83400000D03*
X141200000Y-83400000D03*
X138700000Y-83400000D03*
X136800000Y-83400000D03*
X135800000Y-84700000D03*
X134800000Y-83300000D03*
X137236210Y-107074395D03*
X139573000Y-118364000D03*
X144780000Y-121031000D03*
X134747000Y-91186000D03*
X155575000Y-101981000D03*
X153162000Y-103632000D03*
X150114000Y-101092000D03*
X148336000Y-97663000D03*
X151384000Y-84455000D03*
X143764000Y-86868000D03*
X137287000Y-106299000D03*
X135255000Y-101727000D03*
X140589000Y-94869000D03*
X154813000Y-93853000D03*
X146050000Y-99695000D03*
X147066000Y-97536000D03*
X134366002Y-96901000D03*
X140843000Y-88011000D03*
X150876000Y-99060000D03*
X149606000Y-97790000D03*
X152400000Y-98679000D03*
X150241000Y-99949000D03*
D38*
X148200000Y-93400000D02*
X147400000Y-93400000D01*
X147400000Y-93400000D02*
X146868750Y-92868750D01*
X143800000Y-88200000D02*
X143800000Y-89262500D01*
X143800000Y-89262500D02*
X143531250Y-89531250D01*
X143800000Y-89262500D02*
X143531250Y-89531250D01*
X144200000Y-88200000D02*
X143800000Y-88200000D01*
X143800000Y-88200000D02*
X143800000Y-87412000D01*
X143800000Y-87412000D02*
X143510000Y-87122000D01*
D39*
X149700000Y-83100000D02*
X150029000Y-83100000D01*
X150029000Y-83100000D02*
X151384000Y-84455000D01*
X148100000Y-83100000D02*
X148505000Y-83505000D01*
X148505000Y-83505000D02*
X148505000Y-84328000D01*
X146500000Y-83100000D02*
X148100000Y-83100000D01*
X143600000Y-83100000D02*
X144900000Y-83100000D01*
X143300000Y-83400000D02*
X143600000Y-83100000D01*
X141986000Y-83397000D02*
X141983000Y-83400000D01*
X141983000Y-83400000D02*
X141200000Y-83400000D01*
X138700000Y-83400000D02*
X136800000Y-83400000D01*
X135800000Y-84700000D02*
X135800000Y-84600000D01*
X135800000Y-84600000D02*
X134800000Y-83300000D01*
X137906760Y-80093440D02*
X137909300Y-85568700D01*
X137909300Y-85568700D02*
X137753000Y-85725000D01*
D40*
X137750460Y-80249740D02*
X137906760Y-80093440D01*
D39*
X137720760Y-80363640D02*
X137906760Y-80177640D01*
X140250000Y-107442000D02*
X140200000Y-107442000D01*
X140200000Y-107442000D02*
X139670599Y-107971401D01*
X139670599Y-107971401D02*
X138133216Y-107971401D01*
X138133216Y-107971401D02*
X137236210Y-107074395D01*
X139573000Y-118364000D02*
X139573000Y-117501000D01*
X139573000Y-117501000D02*
X139827000Y-117247000D01*
X144780000Y-123190000D02*
X144780000Y-121031000D01*
X153416000Y-114681000D02*
X147876641Y-114681000D01*
X143002000Y-118279000D02*
X143506000Y-118279000D01*
X147876641Y-114681000D02*
X147253000Y-114681000D01*
X143506000Y-118279000D02*
X147104000Y-114681000D01*
X147104000Y-114681000D02*
X147876641Y-114681000D01*
X154956580Y-116221580D02*
X155321000Y-116586000D01*
X154432000Y-115697000D02*
X154956580Y-116221580D01*
X154956580Y-116221580D02*
X153416000Y-114681000D01*
X147253000Y-114681000D02*
X144754000Y-112182000D01*
X144754000Y-112182000D02*
X144200000Y-112182000D01*
X144780000Y-123190000D02*
X144780000Y-122809000D01*
X151780240Y-117536000D02*
X151780240Y-117078760D01*
X155321000Y-118643400D02*
X157327600Y-120650000D01*
X151780240Y-117078760D02*
X153162000Y-115697000D01*
X153162000Y-115697000D02*
X154432000Y-115697000D01*
X155321000Y-116586000D02*
X155321000Y-118643400D01*
X157327600Y-120650000D02*
X157480000Y-120650000D01*
X149606000Y-117036000D02*
X151280240Y-117036000D01*
X151280240Y-117036000D02*
X151780240Y-117536000D01*
X139827000Y-117247000D02*
X139877000Y-117247000D01*
X139877000Y-117247000D02*
X140909000Y-118279000D01*
X140909000Y-118279000D02*
X142498000Y-118279000D01*
X142498000Y-118279000D02*
X143002000Y-118279000D01*
X144200000Y-107782000D02*
X144200000Y-112182000D01*
X140250000Y-107442000D02*
X140716000Y-107442000D01*
X140716000Y-107442000D02*
X141351000Y-108077000D01*
X141351000Y-108077000D02*
X141351000Y-109982000D01*
X141351000Y-109982000D02*
X140970000Y-110363000D01*
X140970000Y-110363000D02*
X140542000Y-110363000D01*
X135628091Y-92067091D02*
X134747000Y-91186000D01*
X133350000Y-94345182D02*
X133350000Y-94615000D01*
X133350000Y-94615000D02*
X136248670Y-97513670D01*
X134612091Y-93083091D02*
X133350000Y-94345182D01*
X133350000Y-94345182D02*
X133350000Y-101943320D01*
X133350000Y-101943320D02*
X133694341Y-102287661D01*
X133694341Y-102287661D02*
X134194340Y-102787660D01*
X135628091Y-92067091D02*
X134612091Y-93083091D01*
X155590240Y-100772000D02*
X155590240Y-101965760D01*
X155590240Y-101965760D02*
X155575000Y-101981000D01*
X157041000Y-96520000D02*
X157041000Y-96620000D01*
X157041000Y-96620000D02*
X156718000Y-96943000D01*
X156718000Y-96943000D02*
X156718000Y-100298290D01*
X156718000Y-100298290D02*
X156244290Y-100772000D01*
X156244290Y-100772000D02*
X155590240Y-100772000D01*
X152142000Y-103969243D02*
X152142000Y-104475000D01*
X152142000Y-102931000D02*
X152142000Y-103969243D01*
X152142000Y-103969243D02*
X152824757Y-103969243D01*
X152824757Y-103969243D02*
X153162000Y-103632000D01*
X152142000Y-104475000D02*
X152442000Y-104775000D01*
X148717000Y-101497000D02*
X149709000Y-101497000D01*
X149709000Y-101497000D02*
X150114000Y-101092000D01*
X148755000Y-97663000D02*
X148336000Y-97663000D01*
X149267000Y-96647000D02*
X149267000Y-97151000D01*
X149267000Y-97151000D02*
X148755000Y-97663000D01*
X157480000Y-92710000D02*
X157480000Y-96081000D01*
X157480000Y-96081000D02*
X157041000Y-96520000D01*
X149267000Y-94167000D02*
X148500000Y-93400000D01*
X148500000Y-93400000D02*
X148200000Y-93400000D01*
X149267000Y-96647000D02*
X149267000Y-94167000D01*
X148505000Y-84328000D02*
X148505000Y-84794000D01*
X148505000Y-84794000D02*
X148336000Y-84963000D01*
X148336000Y-84963000D02*
X147701000Y-84963000D01*
X147701000Y-84963000D02*
X147405000Y-85259000D01*
X147405000Y-85259000D02*
X147405000Y-85725000D01*
X148505000Y-84328000D02*
X151257000Y-84328000D01*
D41*
X151257000Y-84328000D02*
X151384000Y-84455000D01*
D39*
X151384000Y-84455000D02*
X151442000Y-84513000D01*
X153035000Y-84513000D02*
X151442000Y-84513000D01*
X143510000Y-87122000D02*
X143764000Y-86868000D01*
X143510000Y-87122000D02*
X143002000Y-87122000D01*
X137753000Y-85725000D02*
X137753000Y-86699000D01*
X137753000Y-86699000D02*
X138176000Y-87122000D01*
X139065000Y-87122000D02*
X138176000Y-87122000D01*
X138176000Y-87122000D02*
X136271000Y-87122000D01*
X135255000Y-86614000D02*
X134754909Y-87114091D01*
X135763000Y-86614000D02*
X135255000Y-86614000D01*
X136271000Y-87122000D02*
X135763000Y-86614000D01*
X138515000Y-88011000D02*
X138515000Y-87418000D01*
D41*
X138811000Y-87122000D02*
X139065000Y-87122000D01*
D39*
X139065000Y-87122000D02*
X143002000Y-87122000D01*
X138515000Y-87418000D02*
X138811000Y-87122000D01*
X136248670Y-97513670D02*
X136607340Y-97155000D01*
X136607340Y-97155000D02*
X138303000Y-97155000D01*
D41*
X138303000Y-97155000D02*
X138534670Y-96923330D01*
D39*
X137533091Y-91447909D02*
X137160000Y-91821000D01*
X135874182Y-91821000D02*
X135628091Y-92067091D01*
X137160000Y-91821000D02*
X135874182Y-91821000D01*
X139311091Y-91701909D02*
X137787091Y-91701909D01*
X137787091Y-91701909D02*
X137533091Y-91447909D01*
X148167000Y-96647000D02*
X148167000Y-94967000D01*
X148167000Y-94967000D02*
X147400000Y-94200000D01*
X140589000Y-94869000D02*
X142331000Y-94869000D01*
X142331000Y-94869000D02*
X143000000Y-94200000D01*
X137842000Y-110363000D02*
X137742000Y-110363000D01*
X137742000Y-110363000D02*
X136652000Y-109273000D01*
X136652000Y-109273000D02*
X136652000Y-106680000D01*
X136652000Y-106680000D02*
X137033000Y-106299000D01*
X137033000Y-106299000D02*
X137287000Y-106299000D01*
X138430000Y-107442000D02*
X137591799Y-106603799D01*
X139150000Y-107442000D02*
X138430000Y-107442000D01*
X137591799Y-106603799D02*
X137287000Y-106299000D01*
X143510000Y-105606000D02*
X143510000Y-106060000D01*
X141277000Y-113643000D02*
X141277000Y-114197000D01*
X143510000Y-106060000D02*
X142875000Y-106695000D01*
X142875000Y-106695000D02*
X142875000Y-112045000D01*
X142875000Y-112045000D02*
X141277000Y-113643000D01*
X141277000Y-115697000D02*
X141520000Y-115697000D01*
X141520000Y-115697000D02*
X143002000Y-117179000D01*
X141277000Y-114197000D02*
X141277000Y-115697000D01*
X136315660Y-100666340D02*
X135255000Y-101727000D01*
X134301802Y-99251198D02*
X134872604Y-99822000D01*
X134872604Y-99822000D02*
X135471320Y-99822000D01*
X135471320Y-99822000D02*
X136315660Y-100666340D01*
X139595330Y-95862670D02*
X140589000Y-94869000D01*
X154813000Y-93853000D02*
X154813000Y-92202000D01*
X154813000Y-92202000D02*
X156845000Y-90170000D01*
X156845000Y-90170000D02*
X157480000Y-90170000D01*
X154813000Y-93853000D02*
X154813000Y-92271000D01*
X154813000Y-92271000D02*
X153035000Y-92271000D01*
X146050000Y-99695000D02*
X146050000Y-100896000D01*
X146050000Y-100896000D02*
X146177000Y-101023000D01*
X147955000Y-96647000D02*
X147066000Y-97536000D01*
X151642000Y-104475000D02*
X151642000Y-101031000D01*
D41*
X151342000Y-104775000D02*
X151642000Y-104475000D01*
X151142000Y-102931000D02*
X151642000Y-102931000D01*
D39*
X148270000Y-102931000D02*
X151642000Y-102931000D01*
X146362000Y-101023000D02*
X148270000Y-102931000D01*
D41*
X146177000Y-101023000D02*
X146362000Y-101023000D01*
D39*
X147378000Y-99822000D02*
X148267000Y-99822000D01*
X146177000Y-101023000D02*
X147378000Y-99822000D01*
D41*
X157422000Y-115512000D02*
X157480000Y-115570000D01*
D39*
X157422000Y-111760000D02*
X157422000Y-115512000D01*
X139150000Y-106595000D02*
X140139000Y-105606000D01*
X140139000Y-105606000D02*
X141097000Y-105606000D01*
X139150000Y-107442000D02*
X139150000Y-106595000D01*
X145230000Y-101023000D02*
X144780000Y-101473000D01*
X144780000Y-101473000D02*
X144780000Y-105029000D01*
X144780000Y-105029000D02*
X144203000Y-105606000D01*
X144203000Y-105606000D02*
X143510000Y-105606000D01*
X146177000Y-101023000D02*
X145230000Y-101023000D01*
X157422000Y-108342000D02*
X157422000Y-111760000D01*
X156464000Y-107384000D02*
X157422000Y-108342000D01*
D41*
X142200000Y-89000000D02*
X138000000Y-89000000D01*
X135900000Y-89500000D02*
X135443761Y-89500000D01*
X137100000Y-88300000D02*
X135900000Y-89500000D01*
X137300000Y-88300000D02*
X137100000Y-88300000D01*
X138000000Y-89000000D02*
X137300000Y-88300000D01*
X135443761Y-89500000D02*
X135047984Y-89104223D01*
X135047984Y-89104223D02*
X135047984Y-88962802D01*
X135047984Y-88962802D02*
X133977091Y-87891909D01*
X135224761Y-89281000D02*
X135047984Y-89104223D01*
X135224761Y-89281000D02*
X135047984Y-89104223D01*
X142200000Y-89400000D02*
X137297793Y-89400000D01*
X137297793Y-89400000D02*
X137240016Y-89457777D01*
X137240016Y-89457777D02*
X137240016Y-89599198D01*
X137240016Y-89599198D02*
X138310909Y-90670091D01*
X137253793Y-89444000D02*
X137240016Y-89457777D01*
X146246000Y-84328000D02*
X146246000Y-86354000D01*
X145400000Y-87200000D02*
X145400000Y-88200000D01*
X146246000Y-86354000D02*
X145400000Y-87200000D01*
X146246000Y-84328000D02*
X147405000Y-84328000D01*
X141986000Y-85640000D02*
X142071000Y-85725000D01*
X141986000Y-84497000D02*
X141986000Y-85640000D01*
X140912000Y-85725000D02*
X142071000Y-85725000D01*
X144330000Y-85725000D02*
X144600000Y-85995000D01*
X144600000Y-85995000D02*
X144600000Y-88200000D01*
X144330000Y-85725000D02*
X143171000Y-85725000D01*
D40*
X140009460Y-80180340D02*
X140006760Y-80177640D01*
D41*
X139979760Y-80445640D02*
X140006760Y-80418640D01*
X138853000Y-85725000D02*
X140012000Y-85725000D01*
X140006760Y-85719760D02*
X140012000Y-85725000D01*
D40*
X140006760Y-80177640D02*
X140006760Y-85719760D01*
D41*
X141213000Y-89800000D02*
X141888000Y-89800000D01*
X140088909Y-90924091D02*
X141213000Y-89800000D01*
X143400000Y-88200000D02*
X143000000Y-88200000D01*
X143000000Y-88200000D02*
X141032000Y-88200000D01*
X141032000Y-88200000D02*
X140843000Y-88011000D01*
X134938198Y-98614802D02*
X137268858Y-98614802D01*
X137268858Y-98614802D02*
X137309330Y-98574330D01*
X134366002Y-96901000D02*
X134366002Y-98042606D01*
X134366002Y-98042606D02*
X134938198Y-98614802D01*
X139615000Y-88011000D02*
X140843000Y-88011000D01*
X137309330Y-98574330D02*
X137309330Y-98575726D01*
X137309330Y-98575726D02*
X138365802Y-99632198D01*
X148505000Y-85725000D02*
X147330000Y-86900000D01*
X145800000Y-87300000D02*
X145800000Y-88200000D01*
X146200000Y-86900000D02*
X145800000Y-87300000D01*
X147330000Y-86900000D02*
X146200000Y-86900000D01*
X147610700Y-103390700D02*
X148717000Y-104497000D01*
X146177000Y-103390700D02*
X146177000Y-101923000D01*
X146177000Y-103390700D02*
X147610700Y-103390700D01*
X138551883Y-93477117D02*
X139829000Y-92200000D01*
X139829000Y-92200000D02*
X142088000Y-92200000D01*
X136405909Y-92844909D02*
X137038117Y-93477117D01*
X137038117Y-93477117D02*
X138551883Y-93477117D01*
X136784117Y-95244883D02*
X137284116Y-95744882D01*
X137284116Y-95744882D02*
X138189118Y-95744882D01*
X138189118Y-95744882D02*
X141334000Y-92600000D01*
X141334000Y-92600000D02*
X141988000Y-92600000D01*
X135389909Y-93860909D02*
X136773883Y-95244883D01*
X136773883Y-95244883D02*
X136784117Y-95244883D01*
D39*
X157589220Y-99822000D02*
X157589220Y-102138480D01*
X157589220Y-102138480D02*
X156464000Y-103263700D01*
X156464000Y-104762300D02*
X156464000Y-106484000D01*
D41*
X153035000Y-88404700D02*
X150695300Y-88404700D01*
X149300000Y-89800000D02*
X148200000Y-89800000D01*
X150695300Y-88404700D02*
X149300000Y-89800000D01*
X153022300Y-88392000D02*
X153035000Y-88404700D01*
X145230000Y-85725000D02*
X145000000Y-85955000D01*
X145000000Y-85955000D02*
X145000000Y-88200000D01*
X145230000Y-85021000D02*
X145346000Y-84905000D01*
X145346000Y-84905000D02*
X145346000Y-84328000D01*
X145230000Y-85725000D02*
X145230000Y-85021000D01*
X143400000Y-95487000D02*
X143400000Y-94194000D01*
X140865330Y-97132670D02*
X141754330Y-97132670D01*
X141754330Y-97132670D02*
X143400000Y-95487000D01*
X139002198Y-98995802D02*
X139804670Y-98193330D01*
X156464000Y-86741000D02*
X150495000Y-86741000D01*
X150495000Y-86741000D02*
X149987000Y-87249000D01*
X149987000Y-87249000D02*
X149987000Y-88646000D01*
X149987000Y-88646000D02*
X149233000Y-89400000D01*
X157607000Y-87884000D02*
X156464000Y-86741000D01*
X149233000Y-89400000D02*
X148188000Y-89400000D01*
X157157000Y-85413000D02*
X157480000Y-85090000D01*
X153035000Y-85413000D02*
X157157000Y-85413000D01*
X152088000Y-86360000D02*
X153035000Y-85413000D01*
X150368000Y-86360000D02*
X149606000Y-87122000D01*
X149606000Y-87122000D02*
X149606000Y-88519000D01*
X149606000Y-88519000D02*
X149125000Y-89000000D01*
X148088000Y-89000000D02*
X149125000Y-89000000D01*
X150368000Y-86360000D02*
X152088000Y-86360000D01*
X133604000Y-106202538D02*
X144600000Y-95206538D01*
X137160000Y-123037600D02*
X136144000Y-122021600D01*
X133604000Y-118872000D02*
X136144000Y-121412000D01*
X136144000Y-121412000D02*
X136144000Y-122021600D01*
X133604000Y-106202538D02*
X133604000Y-118872000D01*
X144600000Y-95206538D02*
X144600000Y-94200000D01*
X137160000Y-123037600D02*
X137160000Y-123190000D01*
X133985000Y-106252604D02*
X145000000Y-95237604D01*
X133985000Y-118618000D02*
X137033000Y-121666000D01*
X137033000Y-121666000D02*
X138328400Y-121666000D01*
X133985000Y-106252604D02*
X133985000Y-118618000D01*
X139700000Y-123037600D02*
X138328400Y-121666000D01*
X145000000Y-95237604D02*
X145000000Y-94200000D01*
X139700000Y-123037600D02*
X139700000Y-123190000D01*
X134366000Y-106302670D02*
X145400000Y-95268670D01*
X134366000Y-118364000D02*
X137287000Y-121285000D01*
X137287000Y-121285000D02*
X140487400Y-121285000D01*
X134366000Y-106302670D02*
X134366000Y-118364000D01*
X142240000Y-123037600D02*
X140487400Y-121285000D01*
X145400000Y-95268670D02*
X145400000Y-94200000D01*
X142240000Y-123037600D02*
X142240000Y-123190000D01*
X134747000Y-106352736D02*
X145800000Y-95299736D01*
X149860000Y-123037600D02*
X147218400Y-120396000D01*
X134747000Y-106352736D02*
X134747000Y-118110000D01*
X134747000Y-118110000D02*
X137033000Y-120396000D01*
X137033000Y-120396000D02*
X147218400Y-120396000D01*
X145800000Y-95299736D02*
X145800000Y-94200000D01*
X149860000Y-123037600D02*
X149860000Y-123190000D01*
X135128000Y-106402802D02*
X146200000Y-95330802D01*
X135128000Y-117856000D02*
X137287000Y-120015000D01*
X135128000Y-106402802D02*
X135128000Y-117856000D01*
X152400000Y-123037600D02*
X149377400Y-120015000D01*
X137287000Y-120015000D02*
X149377400Y-120015000D01*
X146200000Y-95330802D02*
X146200000Y-94200000D01*
X152400000Y-123037600D02*
X152400000Y-123190000D01*
X154559000Y-99187000D02*
X154559000Y-111506000D01*
X151892000Y-96520000D02*
X154559000Y-99187000D01*
X149600000Y-91400000D02*
X151892000Y-93692000D01*
X154559000Y-111506000D02*
X154305000Y-111760000D01*
X148288000Y-91400000D02*
X149600000Y-91400000D01*
X151892000Y-93692000D02*
X151892000Y-96520000D01*
X156649000Y-118110000D02*
X157480000Y-118110000D01*
X154305000Y-111760000D02*
X154305000Y-114935000D01*
X154305000Y-114935000D02*
X157480000Y-118110000D01*
X156522000Y-111760000D02*
X154305000Y-111760000D01*
X156141000Y-96520000D02*
X155520000Y-96520000D01*
X149200000Y-90200000D02*
X148200000Y-90200000D01*
X155520000Y-96520000D02*
X149200000Y-90200000D01*
X156141000Y-98321240D02*
X155590240Y-98872000D01*
X156141000Y-96520000D02*
X156141000Y-98321240D01*
X148200000Y-92600000D02*
X149000000Y-92600000D01*
X149297500Y-92897500D02*
X150749000Y-94349000D01*
X150749000Y-94349000D02*
X150749000Y-98044000D01*
X149000000Y-92600000D02*
X149297500Y-92897500D01*
X142367000Y-102743000D02*
X142367000Y-108585000D01*
X142367000Y-101854000D02*
X142367000Y-102743000D01*
X142367000Y-108585000D02*
X142367000Y-108585000D01*
X142367000Y-109347000D02*
X142367000Y-109538000D01*
X142367000Y-108585000D02*
X142367000Y-109347000D01*
X150114000Y-98806000D02*
X145415000Y-98806000D01*
X150749000Y-98171000D02*
X150114000Y-98806000D01*
X145415000Y-98806000D02*
X142367000Y-101854000D01*
X142367000Y-111252000D02*
X142367000Y-109347000D01*
X142367000Y-111363000D02*
X142367000Y-111252000D01*
X140542000Y-111363000D02*
X142367000Y-111363000D01*
X139827000Y-114173000D02*
X139827000Y-115747000D01*
X139827000Y-115747000D02*
X138377000Y-117197000D01*
X142367000Y-111252000D02*
X142367000Y-111633000D01*
X140589000Y-113411000D02*
X142367000Y-111633000D01*
X140589000Y-113411000D02*
X139827000Y-114173000D01*
X152642000Y-101031000D02*
X152642000Y-99937000D01*
X143510000Y-103886000D02*
X142367000Y-102743000D01*
X143510000Y-104706000D02*
X143510000Y-103886000D01*
X150749000Y-98044000D02*
X150749000Y-98171000D01*
X152642000Y-99937000D02*
X150749000Y-98044000D01*
X150368000Y-97917000D02*
X150368000Y-97790000D01*
X148756000Y-93000000D02*
X150368000Y-94612000D01*
X148188000Y-93000000D02*
X148756000Y-93000000D01*
X150368000Y-94612000D02*
X150368000Y-97790000D01*
X149606000Y-97790000D02*
X150368000Y-97790000D01*
X136271000Y-106553000D02*
X139790672Y-103033328D01*
X139790672Y-103033328D02*
X144399000Y-98425000D01*
X141097000Y-104706000D02*
X141097000Y-104353600D01*
X141097000Y-104353600D02*
X139790672Y-103047272D01*
X139790672Y-103047272D02*
X139790672Y-103033328D01*
X137842000Y-111363000D02*
X136287000Y-111363000D01*
X136287000Y-111363000D02*
X136271000Y-111379000D01*
X150368000Y-98044000D02*
X150368000Y-97917000D01*
X136271000Y-111379000D02*
X136271000Y-106553000D01*
X144399000Y-98425000D02*
X149987000Y-98425000D01*
X149987000Y-98425000D02*
X150368000Y-98044000D01*
X136271000Y-111363000D02*
X136271000Y-111379000D01*
X136271000Y-114300000D02*
X137668000Y-115697000D01*
X137668000Y-115697000D02*
X138377000Y-115697000D01*
X136271000Y-111379000D02*
X136271000Y-113665000D01*
X136271000Y-113665000D02*
X136271000Y-114300000D01*
X152146000Y-101027000D02*
X152142000Y-101031000D01*
X152142000Y-100326000D02*
X150876000Y-99060000D01*
X152142000Y-101031000D02*
X152142000Y-100326000D01*
X149167000Y-99822000D02*
X150114000Y-99822000D01*
X150114000Y-99822000D02*
X150241000Y-99949000D01*
X149200000Y-92200000D02*
X151130000Y-94130000D01*
X151130000Y-94130000D02*
X151130000Y-97409000D01*
X151130000Y-97409000D02*
X152400000Y-98679000D01*
X150241000Y-99949000D02*
X150241000Y-100130000D01*
X150241000Y-100130000D02*
X151142000Y-101031000D01*
X148188000Y-92200000D02*
X149200000Y-92200000D01*
X135890000Y-106502934D02*
X147000000Y-95392934D01*
X135890000Y-106502934D02*
X135890000Y-117348000D01*
X137795000Y-119253000D02*
X147828000Y-119253000D01*
X135890000Y-117348000D02*
X137795000Y-119253000D01*
X148336000Y-118745000D02*
X148336000Y-117306000D01*
X147828000Y-119253000D02*
X148336000Y-118745000D01*
X149506000Y-116136000D02*
X148336000Y-117306000D01*
X147000000Y-95392934D02*
X147000000Y-94200000D01*
X149506000Y-116136000D02*
X149606000Y-116136000D01*
X150106000Y-115636000D02*
X151780240Y-115636000D01*
X149606000Y-116136000D02*
X150106000Y-115636000D01*
X148188000Y-91800000D02*
X149400000Y-91800000D01*
X149400000Y-91800000D02*
X151511000Y-93911000D01*
X151511000Y-93911000D02*
X151511000Y-96774000D01*
X151511000Y-96774000D02*
X154178000Y-99441000D01*
X154178000Y-105537000D02*
X151933000Y-107782000D01*
X151933000Y-107782000D02*
X147900000Y-107782000D01*
X154178000Y-99441000D02*
X154178000Y-105537000D01*
X147900000Y-107782000D02*
X147900000Y-112182000D01*
X135509000Y-106452868D02*
X146600000Y-95361868D01*
X154940000Y-123037600D02*
X151536400Y-119634000D01*
X135509000Y-106452868D02*
X135509000Y-117602000D01*
X135509000Y-117602000D02*
X137541000Y-119634000D01*
X137541000Y-119634000D02*
X151536400Y-119634000D01*
X146600000Y-95361868D02*
X146600000Y-94200000D01*
X154940000Y-123037600D02*
X154940000Y-123190000D01*
X144200000Y-94200000D02*
X144200000Y-95175472D01*
X134620000Y-120523000D02*
X134620000Y-122021600D01*
X133223000Y-119126000D02*
X134620000Y-120523000D01*
X133223000Y-106152472D02*
X133223000Y-119126000D01*
X134620000Y-122021600D02*
X134620000Y-123190000D01*
X144200000Y-95175472D02*
X133223000Y-106152472D01*
X153779220Y-116586000D02*
X153779220Y-119489220D01*
X153779220Y-119489220D02*
X156311600Y-122021600D01*
X156311600Y-122021600D02*
X157480000Y-123190000D01*
X146177000Y-104889300D02*
X146177000Y-105537000D01*
X146177000Y-105537000D02*
X146431000Y-105791000D01*
X146431000Y-105791000D02*
X153162000Y-105791000D01*
X153162000Y-105791000D02*
X153797000Y-105156000D01*
X153797000Y-103251000D02*
X153477000Y-102931000D01*
X153797000Y-105156000D02*
X153797000Y-103251000D01*
X153477000Y-102931000D02*
X152642000Y-102931000D01*
X153035000Y-89903300D02*
X153035000Y-91371000D01*
D39*
G36*
X147324078Y-121507466D02*
X147320000Y-121506655D01*
X146746511Y-121620729D01*
X146260330Y-121945585D01*
X146053539Y-122255069D01*
X145682036Y-121839268D01*
X145154791Y-121585291D01*
X145139026Y-121582642D01*
X144907000Y-121703783D01*
X144907000Y-123063000D01*
X144927000Y-123063000D01*
X144927000Y-123317000D01*
X144907000Y-123317000D01*
X144907000Y-123337000D01*
X144653000Y-123337000D01*
X144653000Y-123317000D01*
X144633000Y-123317000D01*
X144633000Y-123063000D01*
X144653000Y-123063000D01*
X144653000Y-121703783D01*
X144420974Y-121582642D01*
X144405209Y-121585291D01*
X143877964Y-121839268D01*
X143506461Y-122255069D01*
X143299670Y-121945585D01*
X142813489Y-121620729D01*
X142240000Y-121506655D01*
X141801973Y-121593784D01*
X141315388Y-121107200D01*
X146923812Y-121107200D01*
X147324078Y-121507466D01*
X147324078Y-121507466D01*
G37*
X147324078Y-121507466D02*
X147320000Y-121506655D01*
X146746511Y-121620729D01*
X146260330Y-121945585D01*
X146053539Y-122255069D01*
X145682036Y-121839268D01*
X145154791Y-121585291D01*
X145139026Y-121582642D01*
X144907000Y-121703783D01*
X144907000Y-123063000D01*
X144927000Y-123063000D01*
X144927000Y-123317000D01*
X144907000Y-123317000D01*
X144907000Y-123337000D01*
X144653000Y-123337000D01*
X144653000Y-123317000D01*
X144633000Y-123317000D01*
X144633000Y-123063000D01*
X144653000Y-123063000D01*
X144653000Y-121703783D01*
X144420974Y-121582642D01*
X144405209Y-121585291D01*
X143877964Y-121839268D01*
X143506461Y-122255069D01*
X143299670Y-121945585D01*
X142813489Y-121620729D01*
X142240000Y-121506655D01*
X141801973Y-121593784D01*
X141315388Y-121107200D01*
X146923812Y-121107200D01*
X147324078Y-121507466D01*
G36*
X150919517Y-116490977D02*
X150919517Y-116490977D01*
X151055825Y-116582987D01*
X151020491Y-116597623D01*
X150841863Y-116776252D01*
X150745190Y-117009641D01*
X150745190Y-117250250D01*
X150903940Y-117409000D01*
X151653240Y-117409000D01*
X151653240Y-117389000D01*
X151907240Y-117389000D01*
X151907240Y-117409000D01*
X152656540Y-117409000D01*
X152801963Y-117263577D01*
X152918497Y-117440977D01*
X153068020Y-117541907D01*
X153068020Y-119489220D01*
X153122157Y-119761385D01*
X153276326Y-119992114D01*
X154815610Y-121531398D01*
X154501973Y-121593784D01*
X152039294Y-119131106D01*
X151808565Y-118976937D01*
X151536400Y-118922800D01*
X149011833Y-118922800D01*
X149047200Y-118745000D01*
X149047200Y-117816121D01*
X149179690Y-117871000D01*
X149320250Y-117871000D01*
X149479000Y-117712250D01*
X149479000Y-117168788D01*
X149511788Y-117136000D01*
X149733000Y-117136000D01*
X149733000Y-117712250D01*
X149891750Y-117871000D01*
X150032310Y-117871000D01*
X150265699Y-117774327D01*
X150377025Y-117663000D01*
X150903940Y-117663000D01*
X150745190Y-117821750D01*
X150745190Y-118062359D01*
X150841863Y-118295748D01*
X151020491Y-118474377D01*
X151253880Y-118571050D01*
X151494490Y-118571050D01*
X151653240Y-118412300D01*
X151653240Y-117663000D01*
X151907240Y-117663000D01*
X151907240Y-118412300D01*
X152065990Y-118571050D01*
X152306600Y-118571050D01*
X152539989Y-118474377D01*
X152718617Y-118295748D01*
X152815290Y-118062359D01*
X152815290Y-117821750D01*
X152656540Y-117663000D01*
X151907240Y-117663000D01*
X151653240Y-117663000D01*
X151653240Y-117663000D01*
X150903940Y-117663000D01*
X150377025Y-117663000D01*
X150444327Y-117595698D01*
X150541000Y-117362309D01*
X150541000Y-117294750D01*
X150382250Y-117136000D01*
X149733000Y-117136000D01*
X149511788Y-117136000D01*
X149664348Y-116983440D01*
X149906000Y-116983440D01*
X150148123Y-116936463D01*
X150148828Y-116936000D01*
X150382250Y-116936000D01*
X150541000Y-116777250D01*
X150541000Y-116709691D01*
X150494849Y-116598273D01*
X150503377Y-116585640D01*
X150551194Y-116347200D01*
X150825071Y-116347200D01*
X150919517Y-116490977D01*
X150919517Y-116490977D01*
G37*
X150919517Y-116490977D02*
X150919517Y-116490977D01*
X151055825Y-116582987D01*
X151020491Y-116597623D01*
X150841863Y-116776252D01*
X150745190Y-117009641D01*
X150745190Y-117250250D01*
X150903940Y-117409000D01*
X151653240Y-117409000D01*
X151653240Y-117389000D01*
X151907240Y-117389000D01*
X151907240Y-117409000D01*
X152656540Y-117409000D01*
X152801963Y-117263577D01*
X152918497Y-117440977D01*
X153068020Y-117541907D01*
X153068020Y-119489220D01*
X153122157Y-119761385D01*
X153276326Y-119992114D01*
X154815610Y-121531398D01*
X154501973Y-121593784D01*
X152039294Y-119131106D01*
X151808565Y-118976937D01*
X151536400Y-118922800D01*
X149011833Y-118922800D01*
X149047200Y-118745000D01*
X149047200Y-117816121D01*
X149179690Y-117871000D01*
X149320250Y-117871000D01*
X149479000Y-117712250D01*
X149479000Y-117168788D01*
X149511788Y-117136000D01*
X149733000Y-117136000D01*
X149733000Y-117712250D01*
X149891750Y-117871000D01*
X150032310Y-117871000D01*
X150265699Y-117774327D01*
X150377025Y-117663000D01*
X150903940Y-117663000D01*
X150745190Y-117821750D01*
X150745190Y-118062359D01*
X150841863Y-118295748D01*
X151020491Y-118474377D01*
X151253880Y-118571050D01*
X151494490Y-118571050D01*
X151653240Y-118412300D01*
X151653240Y-117663000D01*
X151907240Y-117663000D01*
X151907240Y-118412300D01*
X152065990Y-118571050D01*
X152306600Y-118571050D01*
X152539989Y-118474377D01*
X152718617Y-118295748D01*
X152815290Y-118062359D01*
X152815290Y-117821750D01*
X152656540Y-117663000D01*
X151907240Y-117663000D01*
X151653240Y-117663000D01*
X151653240Y-117663000D01*
X150903940Y-117663000D01*
X150377025Y-117663000D01*
X150444327Y-117595698D01*
X150541000Y-117362309D01*
X150541000Y-117294750D01*
X150382250Y-117136000D01*
X149733000Y-117136000D01*
X149511788Y-117136000D01*
X149664348Y-116983440D01*
X149906000Y-116983440D01*
X150148123Y-116936463D01*
X150148828Y-116936000D01*
X150382250Y-116936000D01*
X150541000Y-116777250D01*
X150541000Y-116709691D01*
X150494849Y-116598273D01*
X150503377Y-116585640D01*
X150551194Y-116347200D01*
X150825071Y-116347200D01*
X150919517Y-116490977D01*
G36*
X157607000Y-120523000D02*
X157627000Y-120523000D01*
X157627000Y-120777000D01*
X157607000Y-120777000D01*
X157607000Y-120797000D01*
X157353000Y-120797000D01*
X157353000Y-120777000D01*
X157333000Y-120777000D01*
X157333000Y-120523000D01*
X157353000Y-120523000D01*
X157353000Y-120503000D01*
X157607000Y-120503000D01*
X157607000Y-120523000D01*
X157607000Y-120523000D01*
G37*
X157607000Y-120523000D02*
X157627000Y-120523000D01*
X157627000Y-120777000D01*
X157607000Y-120777000D01*
X157607000Y-120797000D01*
X157353000Y-120797000D01*
X157353000Y-120777000D01*
X157333000Y-120777000D01*
X157333000Y-120523000D01*
X157353000Y-120523000D01*
X157353000Y-120503000D01*
X157607000Y-120503000D01*
X157607000Y-120523000D01*
G36*
X155909069Y-117544857D02*
X155796655Y-118110000D01*
X155910729Y-118683489D01*
X156235585Y-119169670D01*
X156257780Y-119184500D01*
X156104301Y-119248073D01*
X155925673Y-119426702D01*
X155829000Y-119660091D01*
X155829000Y-120364250D01*
X155987748Y-120522998D01*
X155829000Y-120522998D01*
X155829000Y-120533212D01*
X154490420Y-119194632D01*
X154490420Y-117541169D01*
X154634197Y-117446723D01*
X154776647Y-117235690D01*
X154826710Y-116986050D01*
X154826710Y-116462498D01*
X155909069Y-117544857D01*
X155909069Y-117544857D01*
G37*
X155909069Y-117544857D02*
X155796655Y-118110000D01*
X155910729Y-118683489D01*
X156235585Y-119169670D01*
X156257780Y-119184500D01*
X156104301Y-119248073D01*
X155925673Y-119426702D01*
X155829000Y-119660091D01*
X155829000Y-120364250D01*
X155987748Y-120522998D01*
X155829000Y-120522998D01*
X155829000Y-120533212D01*
X154490420Y-119194632D01*
X154490420Y-117541169D01*
X154634197Y-117446723D01*
X154776647Y-117235690D01*
X154826710Y-116986050D01*
X154826710Y-116462498D01*
X155909069Y-117544857D01*
G36*
X145317547Y-105743007D02*
X145317547Y-105743007D01*
X145528580Y-105885457D01*
X145577464Y-105895260D01*
X145674106Y-106039894D01*
X145928105Y-106293894D01*
X146158835Y-106448063D01*
X146203990Y-106457045D01*
X146431000Y-106502200D01*
X152207012Y-106502200D01*
X151638412Y-107070800D01*
X148806463Y-107070800D01*
X148800463Y-107039877D01*
X148660673Y-106827073D01*
X148449640Y-106684623D01*
X148200000Y-106634560D01*
X147600000Y-106634560D01*
X147357877Y-106681537D01*
X147145073Y-106821327D01*
X147002623Y-107032360D01*
X146952560Y-107282000D01*
X146952560Y-108282000D01*
X146999537Y-108524123D01*
X147139327Y-108736927D01*
X147188800Y-108770322D01*
X147188800Y-111192603D01*
X147145073Y-111221327D01*
X147002623Y-111432360D01*
X146952560Y-111682000D01*
X146952560Y-112682000D01*
X146999537Y-112924123D01*
X147139327Y-113136927D01*
X147350360Y-113279377D01*
X147600000Y-113329440D01*
X148200000Y-113329440D01*
X148442123Y-113282463D01*
X148654927Y-113142673D01*
X148797377Y-112931640D01*
X148847440Y-112682000D01*
X148847440Y-111682000D01*
X148800463Y-111439877D01*
X148660673Y-111227073D01*
X148611200Y-111193678D01*
X148611200Y-111129440D01*
X148800000Y-111129440D01*
X149042123Y-111082463D01*
X149254927Y-110942673D01*
X149397377Y-110731640D01*
X149447440Y-110482000D01*
X149447440Y-109482000D01*
X149400463Y-109239877D01*
X149260673Y-109027073D01*
X149049640Y-108884623D01*
X148800000Y-108834560D01*
X148611200Y-108834560D01*
X148611200Y-108771397D01*
X148654927Y-108742673D01*
X148797377Y-108531640D01*
X148805086Y-108493200D01*
X151933000Y-108493200D01*
X152205165Y-108439063D01*
X152435894Y-108284894D01*
X153847800Y-106872989D01*
X153847800Y-111211412D01*
X153802106Y-111257106D01*
X153647937Y-111487835D01*
X153618631Y-111635165D01*
X153593800Y-111760000D01*
X153593800Y-114935000D01*
X153647937Y-115207165D01*
X153802106Y-115437894D01*
X153902722Y-115538510D01*
X153379170Y-115538510D01*
X153137047Y-115585487D01*
X152924243Y-115725277D01*
X152827730Y-115868256D01*
X152827730Y-115235950D01*
X152780753Y-114993827D01*
X152640963Y-114781023D01*
X152429930Y-114638573D01*
X152180290Y-114588510D01*
X151380190Y-114588510D01*
X151138067Y-114635487D01*
X150925263Y-114775277D01*
X150824333Y-114924800D01*
X150106000Y-114924800D01*
X149833835Y-114978937D01*
X149603106Y-115133106D01*
X149447652Y-115288560D01*
X149306000Y-115288560D01*
X149063877Y-115335537D01*
X148851073Y-115475327D01*
X148708623Y-115686360D01*
X148658560Y-115936000D01*
X148658560Y-115977652D01*
X147833106Y-116803106D01*
X147678937Y-117033835D01*
X147646096Y-117198937D01*
X147624800Y-117306000D01*
X147624800Y-118450411D01*
X147533412Y-118541800D01*
X143864050Y-118541800D01*
X143728250Y-118406000D01*
X143127000Y-118406000D01*
X143127000Y-118426000D01*
X142877000Y-118426000D01*
X142877000Y-118406000D01*
X142275750Y-118406000D01*
X142139950Y-118541800D01*
X138089588Y-118541800D01*
X136601200Y-117053412D01*
X136601200Y-115635989D01*
X137165105Y-116199894D01*
X137282803Y-116278537D01*
X137395836Y-116354063D01*
X137633034Y-116401245D01*
X137663967Y-116448335D01*
X137529623Y-116647360D01*
X137479560Y-116897000D01*
X137479560Y-117497000D01*
X137526537Y-117739123D01*
X137666327Y-117951927D01*
X137877360Y-118094377D01*
X138127000Y-118144440D01*
X138627000Y-118144440D01*
X138869123Y-118097463D01*
X139081927Y-117957673D01*
X139085038Y-117953064D01*
X139167301Y-118035327D01*
X139400690Y-118132000D01*
X139541250Y-118132000D01*
X139700000Y-117973250D01*
X139700000Y-117372000D01*
X139680000Y-117372000D01*
X139680000Y-117122000D01*
X139700000Y-117122000D01*
X139700000Y-117100000D01*
X139954000Y-117100000D01*
X139954000Y-117122000D01*
X139974000Y-117122000D01*
X139974000Y-117372000D01*
X139954000Y-117372000D01*
X139954000Y-117973250D01*
X140112750Y-118132000D01*
X140253310Y-118132000D01*
X140486699Y-118035327D01*
X140568579Y-117953447D01*
X140777360Y-118094377D01*
X141027000Y-118144440D01*
X141527000Y-118144440D01*
X141769123Y-118097463D01*
X141981927Y-117957673D01*
X142124377Y-117746640D01*
X142140698Y-117665256D01*
X142151537Y-117721123D01*
X142163778Y-117739758D01*
X142117000Y-117852691D01*
X142117000Y-117993250D01*
X142275750Y-118152000D01*
X142877000Y-118152000D01*
X142877000Y-118132000D01*
X143127000Y-118132000D01*
X143127000Y-118152000D01*
X143728250Y-118152000D01*
X143887000Y-117993250D01*
X143887000Y-117852691D01*
X143840849Y-117741273D01*
X143849377Y-117728640D01*
X143899440Y-117479000D01*
X143899440Y-116879000D01*
X143852463Y-116636877D01*
X143712673Y-116424073D01*
X143501640Y-116281623D01*
X143252000Y-116231560D01*
X143132191Y-116231560D01*
X142144785Y-115244155D01*
X142127463Y-115154877D01*
X142039000Y-115020209D01*
X142039000Y-114873122D01*
X142124377Y-114746640D01*
X142174440Y-114497000D01*
X142174440Y-113897000D01*
X142162446Y-113835184D01*
X143265000Y-112732631D01*
X143265000Y-112808310D01*
X143361673Y-113041699D01*
X143540302Y-113220327D01*
X143773691Y-113317000D01*
X143914250Y-113317000D01*
X144073000Y-113158250D01*
X144073000Y-112309000D01*
X144327000Y-112309000D01*
X144327000Y-113158250D01*
X144485750Y-113317000D01*
X144626309Y-113317000D01*
X144859698Y-113220327D01*
X145038327Y-113041699D01*
X145135000Y-112808310D01*
X145135000Y-112467750D01*
X144976250Y-112309000D01*
X144327000Y-112309000D01*
X144073000Y-112309000D01*
X144073000Y-112309000D01*
X144053000Y-112309000D01*
X144053000Y-112055000D01*
X144073000Y-112055000D01*
X144073000Y-111205750D01*
X143956604Y-111089354D01*
X143992123Y-111082463D01*
X144046108Y-111047000D01*
X144485750Y-111047000D01*
X144327000Y-111205750D01*
X144327000Y-112055000D01*
X144976250Y-112055000D01*
X145135000Y-111896250D01*
X145135000Y-111555690D01*
X145038327Y-111322301D01*
X144859698Y-111143673D01*
X144626309Y-111047000D01*
X144485750Y-111047000D01*
X144046108Y-111047000D01*
X144204927Y-110942673D01*
X144347377Y-110731640D01*
X144397440Y-110482000D01*
X144397440Y-109482000D01*
X144350463Y-109239877D01*
X144210673Y-109027073D01*
X143999640Y-108884623D01*
X143955482Y-108875768D01*
X144073000Y-108758250D01*
X144073000Y-107909000D01*
X144327000Y-107909000D01*
X144327000Y-108758250D01*
X144485750Y-108917000D01*
X144626309Y-108917000D01*
X144859698Y-108820327D01*
X145038327Y-108641699D01*
X145135000Y-108408310D01*
X145135000Y-108067750D01*
X144976250Y-107909000D01*
X144327000Y-107909000D01*
X144073000Y-107909000D01*
X144073000Y-107909000D01*
X144053000Y-107909000D01*
X144053000Y-107655000D01*
X144073000Y-107655000D01*
X144073000Y-106805750D01*
X143957440Y-106690190D01*
X144000630Y-106647000D01*
X144485750Y-106647000D01*
X144327000Y-106805750D01*
X144327000Y-107655000D01*
X144976250Y-107655000D01*
X145135000Y-107496250D01*
X145135000Y-107155690D01*
X145038327Y-106922301D01*
X144859698Y-106743673D01*
X144626309Y-106647000D01*
X144485750Y-106647000D01*
X144000630Y-106647000D01*
X144048816Y-106598815D01*
X144189413Y-106388396D01*
X144203047Y-106367991D01*
X144494605Y-106309996D01*
X144741815Y-106144815D01*
X145248593Y-105638038D01*
X145317547Y-105743007D01*
X145317547Y-105743007D01*
G37*
X145317547Y-105743007D02*
X145317547Y-105743007D01*
X145528580Y-105885457D01*
X145577464Y-105895260D01*
X145674106Y-106039894D01*
X145928105Y-106293894D01*
X146158835Y-106448063D01*
X146203990Y-106457045D01*
X146431000Y-106502200D01*
X152207012Y-106502200D01*
X151638412Y-107070800D01*
X148806463Y-107070800D01*
X148800463Y-107039877D01*
X148660673Y-106827073D01*
X148449640Y-106684623D01*
X148200000Y-106634560D01*
X147600000Y-106634560D01*
X147357877Y-106681537D01*
X147145073Y-106821327D01*
X147002623Y-107032360D01*
X146952560Y-107282000D01*
X146952560Y-108282000D01*
X146999537Y-108524123D01*
X147139327Y-108736927D01*
X147188800Y-108770322D01*
X147188800Y-111192603D01*
X147145073Y-111221327D01*
X147002623Y-111432360D01*
X146952560Y-111682000D01*
X146952560Y-112682000D01*
X146999537Y-112924123D01*
X147139327Y-113136927D01*
X147350360Y-113279377D01*
X147600000Y-113329440D01*
X148200000Y-113329440D01*
X148442123Y-113282463D01*
X148654927Y-113142673D01*
X148797377Y-112931640D01*
X148847440Y-112682000D01*
X148847440Y-111682000D01*
X148800463Y-111439877D01*
X148660673Y-111227073D01*
X148611200Y-111193678D01*
X148611200Y-111129440D01*
X148800000Y-111129440D01*
X149042123Y-111082463D01*
X149254927Y-110942673D01*
X149397377Y-110731640D01*
X149447440Y-110482000D01*
X149447440Y-109482000D01*
X149400463Y-109239877D01*
X149260673Y-109027073D01*
X149049640Y-108884623D01*
X148800000Y-108834560D01*
X148611200Y-108834560D01*
X148611200Y-108771397D01*
X148654927Y-108742673D01*
X148797377Y-108531640D01*
X148805086Y-108493200D01*
X151933000Y-108493200D01*
X152205165Y-108439063D01*
X152435894Y-108284894D01*
X153847800Y-106872989D01*
X153847800Y-111211412D01*
X153802106Y-111257106D01*
X153647937Y-111487835D01*
X153618631Y-111635165D01*
X153593800Y-111760000D01*
X153593800Y-114935000D01*
X153647937Y-115207165D01*
X153802106Y-115437894D01*
X153902722Y-115538510D01*
X153379170Y-115538510D01*
X153137047Y-115585487D01*
X152924243Y-115725277D01*
X152827730Y-115868256D01*
X152827730Y-115235950D01*
X152780753Y-114993827D01*
X152640963Y-114781023D01*
X152429930Y-114638573D01*
X152180290Y-114588510D01*
X151380190Y-114588510D01*
X151138067Y-114635487D01*
X150925263Y-114775277D01*
X150824333Y-114924800D01*
X150106000Y-114924800D01*
X149833835Y-114978937D01*
X149603106Y-115133106D01*
X149447652Y-115288560D01*
X149306000Y-115288560D01*
X149063877Y-115335537D01*
X148851073Y-115475327D01*
X148708623Y-115686360D01*
X148658560Y-115936000D01*
X148658560Y-115977652D01*
X147833106Y-116803106D01*
X147678937Y-117033835D01*
X147646096Y-117198937D01*
X147624800Y-117306000D01*
X147624800Y-118450411D01*
X147533412Y-118541800D01*
X143864050Y-118541800D01*
X143728250Y-118406000D01*
X143127000Y-118406000D01*
X143127000Y-118426000D01*
X142877000Y-118426000D01*
X142877000Y-118406000D01*
X142275750Y-118406000D01*
X142139950Y-118541800D01*
X138089588Y-118541800D01*
X136601200Y-117053412D01*
X136601200Y-115635989D01*
X137165105Y-116199894D01*
X137282803Y-116278537D01*
X137395836Y-116354063D01*
X137633034Y-116401245D01*
X137663967Y-116448335D01*
X137529623Y-116647360D01*
X137479560Y-116897000D01*
X137479560Y-117497000D01*
X137526537Y-117739123D01*
X137666327Y-117951927D01*
X137877360Y-118094377D01*
X138127000Y-118144440D01*
X138627000Y-118144440D01*
X138869123Y-118097463D01*
X139081927Y-117957673D01*
X139085038Y-117953064D01*
X139167301Y-118035327D01*
X139400690Y-118132000D01*
X139541250Y-118132000D01*
X139700000Y-117973250D01*
X139700000Y-117372000D01*
X139680000Y-117372000D01*
X139680000Y-117122000D01*
X139700000Y-117122000D01*
X139700000Y-117100000D01*
X139954000Y-117100000D01*
X139954000Y-117122000D01*
X139974000Y-117122000D01*
X139974000Y-117372000D01*
X139954000Y-117372000D01*
X139954000Y-117973250D01*
X140112750Y-118132000D01*
X140253310Y-118132000D01*
X140486699Y-118035327D01*
X140568579Y-117953447D01*
X140777360Y-118094377D01*
X141027000Y-118144440D01*
X141527000Y-118144440D01*
X141769123Y-118097463D01*
X141981927Y-117957673D01*
X142124377Y-117746640D01*
X142140698Y-117665256D01*
X142151537Y-117721123D01*
X142163778Y-117739758D01*
X142117000Y-117852691D01*
X142117000Y-117993250D01*
X142275750Y-118152000D01*
X142877000Y-118152000D01*
X142877000Y-118132000D01*
X143127000Y-118132000D01*
X143127000Y-118152000D01*
X143728250Y-118152000D01*
X143887000Y-117993250D01*
X143887000Y-117852691D01*
X143840849Y-117741273D01*
X143849377Y-117728640D01*
X143899440Y-117479000D01*
X143899440Y-116879000D01*
X143852463Y-116636877D01*
X143712673Y-116424073D01*
X143501640Y-116281623D01*
X143252000Y-116231560D01*
X143132191Y-116231560D01*
X142144785Y-115244155D01*
X142127463Y-115154877D01*
X142039000Y-115020209D01*
X142039000Y-114873122D01*
X142124377Y-114746640D01*
X142174440Y-114497000D01*
X142174440Y-113897000D01*
X142162446Y-113835184D01*
X143265000Y-112732631D01*
X143265000Y-112808310D01*
X143361673Y-113041699D01*
X143540302Y-113220327D01*
X143773691Y-113317000D01*
X143914250Y-113317000D01*
X144073000Y-113158250D01*
X144073000Y-112309000D01*
X144327000Y-112309000D01*
X144327000Y-113158250D01*
X144485750Y-113317000D01*
X144626309Y-113317000D01*
X144859698Y-113220327D01*
X145038327Y-113041699D01*
X145135000Y-112808310D01*
X145135000Y-112467750D01*
X144976250Y-112309000D01*
X144327000Y-112309000D01*
X144073000Y-112309000D01*
X144073000Y-112309000D01*
X144053000Y-112309000D01*
X144053000Y-112055000D01*
X144073000Y-112055000D01*
X144073000Y-111205750D01*
X143956604Y-111089354D01*
X143992123Y-111082463D01*
X144046108Y-111047000D01*
X144485750Y-111047000D01*
X144327000Y-111205750D01*
X144327000Y-112055000D01*
X144976250Y-112055000D01*
X145135000Y-111896250D01*
X145135000Y-111555690D01*
X145038327Y-111322301D01*
X144859698Y-111143673D01*
X144626309Y-111047000D01*
X144485750Y-111047000D01*
X144046108Y-111047000D01*
X144204927Y-110942673D01*
X144347377Y-110731640D01*
X144397440Y-110482000D01*
X144397440Y-109482000D01*
X144350463Y-109239877D01*
X144210673Y-109027073D01*
X143999640Y-108884623D01*
X143955482Y-108875768D01*
X144073000Y-108758250D01*
X144073000Y-107909000D01*
X144327000Y-107909000D01*
X144327000Y-108758250D01*
X144485750Y-108917000D01*
X144626309Y-108917000D01*
X144859698Y-108820327D01*
X145038327Y-108641699D01*
X145135000Y-108408310D01*
X145135000Y-108067750D01*
X144976250Y-107909000D01*
X144327000Y-107909000D01*
X144073000Y-107909000D01*
X144073000Y-107909000D01*
X144053000Y-107909000D01*
X144053000Y-107655000D01*
X144073000Y-107655000D01*
X144073000Y-106805750D01*
X143957440Y-106690190D01*
X144000630Y-106647000D01*
X144485750Y-106647000D01*
X144327000Y-106805750D01*
X144327000Y-107655000D01*
X144976250Y-107655000D01*
X145135000Y-107496250D01*
X145135000Y-107155690D01*
X145038327Y-106922301D01*
X144859698Y-106743673D01*
X144626309Y-106647000D01*
X144485750Y-106647000D01*
X144000630Y-106647000D01*
X144048816Y-106598815D01*
X144189413Y-106388396D01*
X144203047Y-106367991D01*
X144494605Y-106309996D01*
X144741815Y-106144815D01*
X145248593Y-105638038D01*
X145317547Y-105743007D01*
G36*
X155829000Y-92424250D02*
X155829000Y-92424250D01*
X155987750Y-92583000D01*
X157353000Y-92583000D01*
X157353000Y-92563000D01*
X157607000Y-92563000D01*
X157607000Y-92583000D01*
X157627000Y-92583000D01*
X157627000Y-92837000D01*
X157607000Y-92837000D01*
X157607000Y-94049850D01*
X157765750Y-94208600D01*
X158622310Y-94208600D01*
X158855699Y-94111927D01*
X159034327Y-93933298D01*
X159081000Y-93820620D01*
X159081000Y-115156024D01*
X159049271Y-114996511D01*
X158724415Y-114510330D01*
X158238234Y-114185474D01*
X158184000Y-114174686D01*
X158184000Y-112362049D01*
X158219377Y-112309640D01*
X158269440Y-112060000D01*
X158269440Y-111460000D01*
X158222463Y-111217877D01*
X158184000Y-111159324D01*
X158184000Y-108342000D01*
X158178199Y-108312836D01*
X158125997Y-108050396D01*
X157960816Y-107803185D01*
X157411440Y-107253810D01*
X157411440Y-107184000D01*
X157364463Y-106941877D01*
X157360199Y-106935386D01*
X157361377Y-106933640D01*
X157411440Y-106684000D01*
X157411440Y-106284000D01*
X157364463Y-106041877D01*
X157226000Y-105831093D01*
X157226000Y-105681995D01*
X157317707Y-105621753D01*
X157460157Y-105410720D01*
X157510220Y-105161080D01*
X157510220Y-104363520D01*
X157463243Y-104121397D01*
X157392049Y-104013018D01*
X157460157Y-103912120D01*
X157510220Y-103662480D01*
X157510220Y-103295110D01*
X158128035Y-102677296D01*
X158293216Y-102430085D01*
X158293610Y-102428106D01*
X158351220Y-102138480D01*
X158351220Y-100743799D01*
X158444197Y-100682723D01*
X158586647Y-100471690D01*
X158636710Y-100222050D01*
X158636710Y-99421950D01*
X158589733Y-99179827D01*
X158449943Y-98967023D01*
X158238910Y-98824573D01*
X157989270Y-98774510D01*
X157189170Y-98774510D01*
X156947047Y-98821487D01*
X156734243Y-98961277D01*
X156637730Y-99104256D01*
X156637730Y-98830299D01*
X156643894Y-98824135D01*
X156798063Y-98593405D01*
X156814709Y-98509718D01*
X156852200Y-98321240D01*
X156852200Y-97385050D01*
X156941000Y-97296250D01*
X156941000Y-97056560D01*
X156988440Y-96820000D01*
X156988440Y-96647000D01*
X157141000Y-96647000D01*
X157141000Y-97296250D01*
X157299750Y-97455000D01*
X157367309Y-97455000D01*
X157600698Y-97358327D01*
X157779327Y-97179699D01*
X157876000Y-96946310D01*
X157876000Y-96805750D01*
X157717250Y-96647000D01*
X157141000Y-96647000D01*
X156988440Y-96647000D01*
X156988440Y-96220000D01*
X156941463Y-95977877D01*
X156941000Y-95977172D01*
X156941000Y-95743750D01*
X156782250Y-95585000D01*
X157299750Y-95585000D01*
X157141000Y-95743750D01*
X157141000Y-96393000D01*
X157717250Y-96393000D01*
X157876000Y-96234250D01*
X157876000Y-96093690D01*
X157779327Y-95860301D01*
X157600698Y-95681673D01*
X157367309Y-95585000D01*
X157299750Y-95585000D01*
X156782250Y-95585000D01*
X156782250Y-95585000D01*
X156714691Y-95585000D01*
X156603273Y-95631151D01*
X156590640Y-95622623D01*
X156341000Y-95572560D01*
X155941000Y-95572560D01*
X155698877Y-95619537D01*
X155654486Y-95648697D01*
X154798577Y-94792788D01*
X154999118Y-94792963D01*
X155344659Y-94650188D01*
X155609259Y-94386049D01*
X155752637Y-94040758D01*
X155752963Y-93666882D01*
X155610188Y-93321341D01*
X155575000Y-93286092D01*
X155575000Y-92837000D01*
X155987750Y-92837000D01*
X155829000Y-92995750D01*
X155829000Y-93699909D01*
X155925673Y-93933298D01*
X156104301Y-94111927D01*
X156337690Y-94208600D01*
X157194250Y-94208600D01*
X157353000Y-94049850D01*
X157353000Y-92837000D01*
X155987750Y-92837000D01*
X155575000Y-92837000D01*
X155575000Y-92517630D01*
X155829000Y-92263630D01*
X155829000Y-92424250D01*
X155829000Y-92424250D01*
G37*
X155829000Y-92424250D02*
X155829000Y-92424250D01*
X155987750Y-92583000D01*
X157353000Y-92583000D01*
X157353000Y-92563000D01*
X157607000Y-92563000D01*
X157607000Y-92583000D01*
X157627000Y-92583000D01*
X157627000Y-92837000D01*
X157607000Y-92837000D01*
X157607000Y-94049850D01*
X157765750Y-94208600D01*
X158622310Y-94208600D01*
X158855699Y-94111927D01*
X159034327Y-93933298D01*
X159081000Y-93820620D01*
X159081000Y-115156024D01*
X159049271Y-114996511D01*
X158724415Y-114510330D01*
X158238234Y-114185474D01*
X158184000Y-114174686D01*
X158184000Y-112362049D01*
X158219377Y-112309640D01*
X158269440Y-112060000D01*
X158269440Y-111460000D01*
X158222463Y-111217877D01*
X158184000Y-111159324D01*
X158184000Y-108342000D01*
X158178199Y-108312836D01*
X158125997Y-108050396D01*
X157960816Y-107803185D01*
X157411440Y-107253810D01*
X157411440Y-107184000D01*
X157364463Y-106941877D01*
X157360199Y-106935386D01*
X157361377Y-106933640D01*
X157411440Y-106684000D01*
X157411440Y-106284000D01*
X157364463Y-106041877D01*
X157226000Y-105831093D01*
X157226000Y-105681995D01*
X157317707Y-105621753D01*
X157460157Y-105410720D01*
X157510220Y-105161080D01*
X157510220Y-104363520D01*
X157463243Y-104121397D01*
X157392049Y-104013018D01*
X157460157Y-103912120D01*
X157510220Y-103662480D01*
X157510220Y-103295110D01*
X158128035Y-102677296D01*
X158293216Y-102430085D01*
X158293610Y-102428106D01*
X158351220Y-102138480D01*
X158351220Y-100743799D01*
X158444197Y-100682723D01*
X158586647Y-100471690D01*
X158636710Y-100222050D01*
X158636710Y-99421950D01*
X158589733Y-99179827D01*
X158449943Y-98967023D01*
X158238910Y-98824573D01*
X157989270Y-98774510D01*
X157189170Y-98774510D01*
X156947047Y-98821487D01*
X156734243Y-98961277D01*
X156637730Y-99104256D01*
X156637730Y-98830299D01*
X156643894Y-98824135D01*
X156798063Y-98593405D01*
X156814709Y-98509718D01*
X156852200Y-98321240D01*
X156852200Y-97385050D01*
X156941000Y-97296250D01*
X156941000Y-97056560D01*
X156988440Y-96820000D01*
X156988440Y-96647000D01*
X157141000Y-96647000D01*
X157141000Y-97296250D01*
X157299750Y-97455000D01*
X157367309Y-97455000D01*
X157600698Y-97358327D01*
X157779327Y-97179699D01*
X157876000Y-96946310D01*
X157876000Y-96805750D01*
X157717250Y-96647000D01*
X157141000Y-96647000D01*
X156988440Y-96647000D01*
X156988440Y-96220000D01*
X156941463Y-95977877D01*
X156941000Y-95977172D01*
X156941000Y-95743750D01*
X156782250Y-95585000D01*
X157299750Y-95585000D01*
X157141000Y-95743750D01*
X157141000Y-96393000D01*
X157717250Y-96393000D01*
X157876000Y-96234250D01*
X157876000Y-96093690D01*
X157779327Y-95860301D01*
X157600698Y-95681673D01*
X157367309Y-95585000D01*
X157299750Y-95585000D01*
X156782250Y-95585000D01*
X156782250Y-95585000D01*
X156714691Y-95585000D01*
X156603273Y-95631151D01*
X156590640Y-95622623D01*
X156341000Y-95572560D01*
X155941000Y-95572560D01*
X155698877Y-95619537D01*
X155654486Y-95648697D01*
X154798577Y-94792788D01*
X154999118Y-94792963D01*
X155344659Y-94650188D01*
X155609259Y-94386049D01*
X155752637Y-94040758D01*
X155752963Y-93666882D01*
X155610188Y-93321341D01*
X155575000Y-93286092D01*
X155575000Y-92837000D01*
X155987750Y-92837000D01*
X155829000Y-92995750D01*
X155829000Y-93699909D01*
X155925673Y-93933298D01*
X156104301Y-94111927D01*
X156337690Y-94208600D01*
X157194250Y-94208600D01*
X157353000Y-94049850D01*
X157353000Y-92837000D01*
X155987750Y-92837000D01*
X155575000Y-92837000D01*
X155575000Y-92517630D01*
X155829000Y-92263630D01*
X155829000Y-92424250D01*
G36*
X156728497Y-100676977D02*
X156728497Y-100676977D01*
X156827220Y-100743616D01*
X156827220Y-101822849D01*
X156432590Y-102217480D01*
X156065220Y-102217480D01*
X155823097Y-102264457D01*
X155610293Y-102404247D01*
X155467843Y-102615280D01*
X155417780Y-102864920D01*
X155417780Y-103662480D01*
X155464757Y-103904603D01*
X155535951Y-104012982D01*
X155467843Y-104113880D01*
X155417780Y-104363520D01*
X155417780Y-105161080D01*
X155464757Y-105403203D01*
X155604547Y-105616007D01*
X155702000Y-105681789D01*
X155702000Y-105833805D01*
X155566623Y-106034360D01*
X155516560Y-106284000D01*
X155516560Y-106684000D01*
X155563537Y-106926123D01*
X155567801Y-106932614D01*
X155566623Y-106934360D01*
X155516560Y-107184000D01*
X155516560Y-107584000D01*
X155563537Y-107826123D01*
X155703327Y-108038927D01*
X155914360Y-108181377D01*
X156164000Y-108231440D01*
X156233810Y-108231440D01*
X156660000Y-108657631D01*
X156660000Y-110812560D01*
X156322000Y-110812560D01*
X156079877Y-110859537D01*
X155867073Y-110999327D01*
X155833678Y-111048800D01*
X155270200Y-111048800D01*
X155270200Y-101807050D01*
X155304490Y-101807050D01*
X155463240Y-101648300D01*
X155463240Y-100899000D01*
X155717240Y-100899000D01*
X155717240Y-101648300D01*
X155875990Y-101807050D01*
X156116600Y-101807050D01*
X156349989Y-101710377D01*
X156528617Y-101531748D01*
X156625290Y-101298359D01*
X156625290Y-101057750D01*
X156466540Y-100899000D01*
X155717240Y-100899000D01*
X155463240Y-100899000D01*
X155463240Y-100899000D01*
X155443240Y-100899000D01*
X155443240Y-100645000D01*
X155463240Y-100645000D01*
X155463240Y-100625000D01*
X155717240Y-100625000D01*
X155717240Y-100645000D01*
X156466540Y-100645000D01*
X156611963Y-100499577D01*
X156728497Y-100676977D01*
X156728497Y-100676977D01*
G37*
X156728497Y-100676977D02*
X156728497Y-100676977D01*
X156827220Y-100743616D01*
X156827220Y-101822849D01*
X156432590Y-102217480D01*
X156065220Y-102217480D01*
X155823097Y-102264457D01*
X155610293Y-102404247D01*
X155467843Y-102615280D01*
X155417780Y-102864920D01*
X155417780Y-103662480D01*
X155464757Y-103904603D01*
X155535951Y-104012982D01*
X155467843Y-104113880D01*
X155417780Y-104363520D01*
X155417780Y-105161080D01*
X155464757Y-105403203D01*
X155604547Y-105616007D01*
X155702000Y-105681789D01*
X155702000Y-105833805D01*
X155566623Y-106034360D01*
X155516560Y-106284000D01*
X155516560Y-106684000D01*
X155563537Y-106926123D01*
X155567801Y-106932614D01*
X155566623Y-106934360D01*
X155516560Y-107184000D01*
X155516560Y-107584000D01*
X155563537Y-107826123D01*
X155703327Y-108038927D01*
X155914360Y-108181377D01*
X156164000Y-108231440D01*
X156233810Y-108231440D01*
X156660000Y-108657631D01*
X156660000Y-110812560D01*
X156322000Y-110812560D01*
X156079877Y-110859537D01*
X155867073Y-110999327D01*
X155833678Y-111048800D01*
X155270200Y-111048800D01*
X155270200Y-101807050D01*
X155304490Y-101807050D01*
X155463240Y-101648300D01*
X155463240Y-100899000D01*
X155717240Y-100899000D01*
X155717240Y-101648300D01*
X155875990Y-101807050D01*
X156116600Y-101807050D01*
X156349989Y-101710377D01*
X156528617Y-101531748D01*
X156625290Y-101298359D01*
X156625290Y-101057750D01*
X156466540Y-100899000D01*
X155717240Y-100899000D01*
X155463240Y-100899000D01*
X155463240Y-100899000D01*
X155443240Y-100899000D01*
X155443240Y-100645000D01*
X155463240Y-100645000D01*
X155463240Y-100625000D01*
X155717240Y-100625000D01*
X155717240Y-100645000D01*
X156466540Y-100645000D01*
X156611963Y-100499577D01*
X156728497Y-100676977D01*
G36*
X140547360Y-106403377D02*
X140547360Y-106403377D01*
X140797000Y-106453440D01*
X141397000Y-106453440D01*
X141639123Y-106406463D01*
X141655800Y-106395508D01*
X141655800Y-110651800D01*
X141477000Y-110651800D01*
X141477000Y-110621750D01*
X141318250Y-110463000D01*
X140669000Y-110463000D01*
X140669000Y-110510000D01*
X140589440Y-110510000D01*
X140589440Y-110216000D01*
X140669000Y-110216000D01*
X140669000Y-110263000D01*
X141318250Y-110263000D01*
X141477000Y-110104250D01*
X141477000Y-110036691D01*
X141405180Y-109863302D01*
X141439377Y-109812640D01*
X141489440Y-109563000D01*
X141489440Y-109163000D01*
X141442463Y-108920877D01*
X141302673Y-108708073D01*
X141091640Y-108565623D01*
X140842000Y-108515560D01*
X140242000Y-108515560D01*
X140089521Y-108545144D01*
X139942000Y-108515560D01*
X138442000Y-108515560D01*
X138289521Y-108545144D01*
X138142000Y-108515560D01*
X137542000Y-108515560D01*
X137414000Y-108540395D01*
X137414000Y-107503630D01*
X137891184Y-107980815D01*
X138021292Y-108067750D01*
X138138395Y-108145996D01*
X138430000Y-108204000D01*
X138473878Y-108204000D01*
X138600360Y-108289377D01*
X138850000Y-108339440D01*
X139450000Y-108339440D01*
X139692123Y-108292463D01*
X139710758Y-108280222D01*
X139823691Y-108327000D01*
X139964250Y-108327000D01*
X140123000Y-108168250D01*
X140123000Y-107567000D01*
X140377000Y-107567000D01*
X140377000Y-108168250D01*
X140535750Y-108327000D01*
X140676309Y-108327000D01*
X140909698Y-108230327D01*
X141088327Y-108051699D01*
X141185000Y-107818310D01*
X141185000Y-107725750D01*
X141026250Y-107567000D01*
X140377000Y-107567000D01*
X140123000Y-107567000D01*
X140123000Y-107567000D01*
X140103000Y-107567000D01*
X140103000Y-107317000D01*
X140123000Y-107317000D01*
X140123000Y-107295000D01*
X140377000Y-107295000D01*
X140377000Y-107317000D01*
X141026250Y-107317000D01*
X141185000Y-107158250D01*
X141185000Y-107065690D01*
X141088327Y-106832301D01*
X140909698Y-106653673D01*
X140676309Y-106557000D01*
X140535750Y-106557000D01*
X140377002Y-106715748D01*
X140377002Y-106557000D01*
X140265630Y-106557000D01*
X140454631Y-106368000D01*
X140494951Y-106368000D01*
X140547360Y-106403377D01*
X140547360Y-106403377D01*
G37*
X140547360Y-106403377D02*
X140547360Y-106403377D01*
X140797000Y-106453440D01*
X141397000Y-106453440D01*
X141639123Y-106406463D01*
X141655800Y-106395508D01*
X141655800Y-110651800D01*
X141477000Y-110651800D01*
X141477000Y-110621750D01*
X141318250Y-110463000D01*
X140669000Y-110463000D01*
X140669000Y-110510000D01*
X140589440Y-110510000D01*
X140589440Y-110216000D01*
X140669000Y-110216000D01*
X140669000Y-110263000D01*
X141318250Y-110263000D01*
X141477000Y-110104250D01*
X141477000Y-110036691D01*
X141405180Y-109863302D01*
X141439377Y-109812640D01*
X141489440Y-109563000D01*
X141489440Y-109163000D01*
X141442463Y-108920877D01*
X141302673Y-108708073D01*
X141091640Y-108565623D01*
X140842000Y-108515560D01*
X140242000Y-108515560D01*
X140089521Y-108545144D01*
X139942000Y-108515560D01*
X138442000Y-108515560D01*
X138289521Y-108545144D01*
X138142000Y-108515560D01*
X137542000Y-108515560D01*
X137414000Y-108540395D01*
X137414000Y-107503630D01*
X137891184Y-107980815D01*
X138021292Y-108067750D01*
X138138395Y-108145996D01*
X138430000Y-108204000D01*
X138473878Y-108204000D01*
X138600360Y-108289377D01*
X138850000Y-108339440D01*
X139450000Y-108339440D01*
X139692123Y-108292463D01*
X139710758Y-108280222D01*
X139823691Y-108327000D01*
X139964250Y-108327000D01*
X140123000Y-108168250D01*
X140123000Y-107567000D01*
X140377000Y-107567000D01*
X140377000Y-108168250D01*
X140535750Y-108327000D01*
X140676309Y-108327000D01*
X140909698Y-108230327D01*
X141088327Y-108051699D01*
X141185000Y-107818310D01*
X141185000Y-107725750D01*
X141026250Y-107567000D01*
X140377000Y-107567000D01*
X140123000Y-107567000D01*
X140123000Y-107567000D01*
X140103000Y-107567000D01*
X140103000Y-107317000D01*
X140123000Y-107317000D01*
X140123000Y-107295000D01*
X140377000Y-107295000D01*
X140377000Y-107317000D01*
X141026250Y-107317000D01*
X141185000Y-107158250D01*
X141185000Y-107065690D01*
X141088327Y-106832301D01*
X140909698Y-106653673D01*
X140676309Y-106557000D01*
X140535750Y-106557000D01*
X140377002Y-106715748D01*
X140377002Y-106557000D01*
X140265630Y-106557000D01*
X140454631Y-106368000D01*
X140494951Y-106368000D01*
X140547360Y-106403377D01*
G36*
X133130373Y-88385073D02*
X133130373Y-88385073D01*
X133483927Y-88738627D01*
X133658553Y-88856502D01*
X133622739Y-89029449D01*
X133671236Y-89279399D01*
X133812358Y-89491321D01*
X134660886Y-90339849D01*
X134865311Y-90477838D01*
X134932294Y-90491709D01*
X134944029Y-90552192D01*
X135085151Y-90764114D01*
X135394155Y-91073118D01*
X135233038Y-91139855D01*
X135167588Y-91205305D01*
X135167588Y-91429811D01*
X135626677Y-91888900D01*
X135642234Y-91873344D01*
X135821839Y-92052949D01*
X135806282Y-92068505D01*
X135820425Y-92082648D01*
X135643648Y-92259425D01*
X135629505Y-92245282D01*
X134790282Y-93084505D01*
X134804425Y-93098648D01*
X134627648Y-93275425D01*
X134613505Y-93261282D01*
X134188357Y-93686430D01*
X134188357Y-93910936D01*
X134287747Y-94010326D01*
X134399166Y-94056477D01*
X134402069Y-94071441D01*
X134543191Y-94283363D01*
X134967455Y-94707627D01*
X135170238Y-94844507D01*
X135146740Y-94957977D01*
X135195237Y-95207927D01*
X135336359Y-95419849D01*
X136247173Y-96330663D01*
X136104683Y-96330662D01*
X135871294Y-96427335D01*
X135718870Y-96579759D01*
X135718870Y-96804265D01*
X136248670Y-97334065D01*
X136262813Y-97319923D01*
X136442418Y-97499528D01*
X136428275Y-97513670D01*
X136442418Y-97527813D01*
X136262813Y-97707418D01*
X136248670Y-97693275D01*
X136234528Y-97707418D01*
X136054923Y-97527813D01*
X136069065Y-97513670D01*
X135539265Y-96983870D01*
X135314759Y-96983870D01*
X135305723Y-96992906D01*
X135305965Y-96714882D01*
X135163190Y-96369341D01*
X134899051Y-96104741D01*
X134553760Y-95961363D01*
X134179884Y-95961037D01*
X133834343Y-96103812D01*
X133569743Y-96367951D01*
X133426365Y-96713242D01*
X133426039Y-97087118D01*
X133568814Y-97432659D01*
X133654802Y-97518797D01*
X133654802Y-98042606D01*
X133708939Y-98314771D01*
X133786586Y-98430977D01*
X133773282Y-98439836D01*
X133490440Y-98722678D01*
X133352451Y-98927103D01*
X133300821Y-99176424D01*
X133349318Y-99426374D01*
X133490440Y-99638296D01*
X133914704Y-100062560D01*
X134119129Y-100200549D01*
X134187729Y-100214755D01*
X134333789Y-100360815D01*
X134580999Y-100525996D01*
X134771045Y-100563799D01*
X134797490Y-100700095D01*
X134901454Y-100856217D01*
X134723341Y-100929812D01*
X134458741Y-101193951D01*
X134384516Y-101372704D01*
X134341906Y-101330094D01*
X134108517Y-101233421D01*
X133855898Y-101233422D01*
X133622509Y-101330094D01*
X133381698Y-101570906D01*
X133381698Y-101795412D01*
X134194340Y-102608055D01*
X134208482Y-102593912D01*
X134388088Y-102773518D01*
X134373945Y-102787660D01*
X134388088Y-102801802D01*
X134208482Y-102981408D01*
X134194340Y-102967265D01*
X133593830Y-103567776D01*
X133593830Y-103792282D01*
X133868145Y-104066598D01*
X134046774Y-104245226D01*
X134101705Y-104267979D01*
X133019000Y-105350684D01*
X133019000Y-103217453D01*
X133189718Y-103388170D01*
X133414224Y-103388170D01*
X134014735Y-102787660D01*
X133202092Y-101975018D01*
X133019000Y-101975018D01*
X133019000Y-92622588D01*
X133750305Y-92622588D01*
X133684855Y-92688038D01*
X133588182Y-92921427D01*
X133588183Y-93174045D01*
X133684856Y-93407435D01*
X133784246Y-93506825D01*
X134008752Y-93506825D01*
X134433900Y-93081677D01*
X133974811Y-92622588D01*
X133750305Y-92622588D01*
X133019000Y-92622588D01*
X133019000Y-91606588D01*
X134766305Y-91606588D01*
X134801892Y-91571000D01*
X134700855Y-91672038D01*
X134604182Y-91905427D01*
X134604183Y-92059183D01*
X134450427Y-92059182D01*
X134217038Y-92155855D01*
X134151588Y-92221305D01*
X134151588Y-92445811D01*
X134610677Y-92904900D01*
X135449900Y-92065677D01*
X134990811Y-91606588D01*
X134766305Y-91606588D01*
X133019000Y-91606588D01*
X133019000Y-88217825D01*
X133130373Y-88385073D01*
X133130373Y-88385073D01*
G37*
X133130373Y-88385073D02*
X133130373Y-88385073D01*
X133483927Y-88738627D01*
X133658553Y-88856502D01*
X133622739Y-89029449D01*
X133671236Y-89279399D01*
X133812358Y-89491321D01*
X134660886Y-90339849D01*
X134865311Y-90477838D01*
X134932294Y-90491709D01*
X134944029Y-90552192D01*
X135085151Y-90764114D01*
X135394155Y-91073118D01*
X135233038Y-91139855D01*
X135167588Y-91205305D01*
X135167588Y-91429811D01*
X135626677Y-91888900D01*
X135642234Y-91873344D01*
X135821839Y-92052949D01*
X135806282Y-92068505D01*
X135820425Y-92082648D01*
X135643648Y-92259425D01*
X135629505Y-92245282D01*
X134790282Y-93084505D01*
X134804425Y-93098648D01*
X134627648Y-93275425D01*
X134613505Y-93261282D01*
X134188357Y-93686430D01*
X134188357Y-93910936D01*
X134287747Y-94010326D01*
X134399166Y-94056477D01*
X134402069Y-94071441D01*
X134543191Y-94283363D01*
X134967455Y-94707627D01*
X135170238Y-94844507D01*
X135146740Y-94957977D01*
X135195237Y-95207927D01*
X135336359Y-95419849D01*
X136247173Y-96330663D01*
X136104683Y-96330662D01*
X135871294Y-96427335D01*
X135718870Y-96579759D01*
X135718870Y-96804265D01*
X136248670Y-97334065D01*
X136262813Y-97319923D01*
X136442418Y-97499528D01*
X136428275Y-97513670D01*
X136442418Y-97527813D01*
X136262813Y-97707418D01*
X136248670Y-97693275D01*
X136234528Y-97707418D01*
X136054923Y-97527813D01*
X136069065Y-97513670D01*
X135539265Y-96983870D01*
X135314759Y-96983870D01*
X135305723Y-96992906D01*
X135305965Y-96714882D01*
X135163190Y-96369341D01*
X134899051Y-96104741D01*
X134553760Y-95961363D01*
X134179884Y-95961037D01*
X133834343Y-96103812D01*
X133569743Y-96367951D01*
X133426365Y-96713242D01*
X133426039Y-97087118D01*
X133568814Y-97432659D01*
X133654802Y-97518797D01*
X133654802Y-98042606D01*
X133708939Y-98314771D01*
X133786586Y-98430977D01*
X133773282Y-98439836D01*
X133490440Y-98722678D01*
X133352451Y-98927103D01*
X133300821Y-99176424D01*
X133349318Y-99426374D01*
X133490440Y-99638296D01*
X133914704Y-100062560D01*
X134119129Y-100200549D01*
X134187729Y-100214755D01*
X134333789Y-100360815D01*
X134580999Y-100525996D01*
X134771045Y-100563799D01*
X134797490Y-100700095D01*
X134901454Y-100856217D01*
X134723341Y-100929812D01*
X134458741Y-101193951D01*
X134384516Y-101372704D01*
X134341906Y-101330094D01*
X134108517Y-101233421D01*
X133855898Y-101233422D01*
X133622509Y-101330094D01*
X133381698Y-101570906D01*
X133381698Y-101795412D01*
X134194340Y-102608055D01*
X134208482Y-102593912D01*
X134388088Y-102773518D01*
X134373945Y-102787660D01*
X134388088Y-102801802D01*
X134208482Y-102981408D01*
X134194340Y-102967265D01*
X133593830Y-103567776D01*
X133593830Y-103792282D01*
X133868145Y-104066598D01*
X134046774Y-104245226D01*
X134101705Y-104267979D01*
X133019000Y-105350684D01*
X133019000Y-103217453D01*
X133189718Y-103388170D01*
X133414224Y-103388170D01*
X134014735Y-102787660D01*
X133202092Y-101975018D01*
X133019000Y-101975018D01*
X133019000Y-92622588D01*
X133750305Y-92622588D01*
X133684855Y-92688038D01*
X133588182Y-92921427D01*
X133588183Y-93174045D01*
X133684856Y-93407435D01*
X133784246Y-93506825D01*
X134008752Y-93506825D01*
X134433900Y-93081677D01*
X133974811Y-92622588D01*
X133750305Y-92622588D01*
X133019000Y-92622588D01*
X133019000Y-91606588D01*
X134766305Y-91606588D01*
X134801892Y-91571000D01*
X134700855Y-91672038D01*
X134604182Y-91905427D01*
X134604183Y-92059183D01*
X134450427Y-92059182D01*
X134217038Y-92155855D01*
X134151588Y-92221305D01*
X134151588Y-92445811D01*
X134610677Y-92904900D01*
X135449900Y-92065677D01*
X134990811Y-91606588D01*
X134766305Y-91606588D01*
X133019000Y-91606588D01*
X133019000Y-88217825D01*
X133130373Y-88385073D01*
G36*
X152569000Y-104650000D02*
X152589000Y-104650000D01*
X152589000Y-104900000D01*
X152569000Y-104900000D01*
X152569000Y-104922000D01*
X152315000Y-104922000D01*
X152315000Y-104900000D01*
X152295000Y-104900000D01*
X152295000Y-104842926D01*
X152345996Y-104766605D01*
X152373566Y-104628000D01*
X152569000Y-104628000D01*
X152569000Y-104650000D01*
X152569000Y-104650000D01*
G37*
X152569000Y-104650000D02*
X152589000Y-104650000D01*
X152589000Y-104900000D01*
X152569000Y-104900000D01*
X152569000Y-104922000D01*
X152315000Y-104922000D01*
X152315000Y-104900000D01*
X152295000Y-104900000D01*
X152295000Y-104842926D01*
X152345996Y-104766605D01*
X152373566Y-104628000D01*
X152569000Y-104628000D01*
X152569000Y-104650000D01*
G36*
X148844000Y-101370000D02*
X148864000Y-101370000D01*
X148864000Y-101624000D01*
X148844000Y-101624000D01*
X148844000Y-101644000D01*
X148590000Y-101644000D01*
X148590000Y-101624000D01*
X148570000Y-101624000D01*
X148570000Y-101370000D01*
X148590000Y-101370000D01*
X148590000Y-101350000D01*
X148844000Y-101350000D01*
X148844000Y-101370000D01*
X148844000Y-101370000D01*
G37*
X148844000Y-101370000D02*
X148864000Y-101370000D01*
X148864000Y-101624000D01*
X148844000Y-101624000D01*
X148844000Y-101644000D01*
X148590000Y-101644000D01*
X148590000Y-101624000D01*
X148570000Y-101624000D01*
X148570000Y-101370000D01*
X148590000Y-101370000D01*
X148590000Y-101350000D01*
X148844000Y-101350000D01*
X148844000Y-101370000D01*
G36*
X148666363Y-97602242D02*
X148666266Y-97713800D01*
X148005646Y-97713800D01*
X148005680Y-97673950D01*
X148135190Y-97544440D01*
X148467000Y-97544440D01*
X148709123Y-97497463D01*
X148710152Y-97496787D01*
X148666363Y-97602242D01*
X148666363Y-97602242D01*
G37*
X148666363Y-97602242D02*
X148666266Y-97713800D01*
X148005646Y-97713800D01*
X148005680Y-97673950D01*
X148135190Y-97544440D01*
X148467000Y-97544440D01*
X148709123Y-97497463D01*
X148710152Y-97496787D01*
X148666363Y-97602242D01*
G36*
X138728418Y-96909188D02*
X138714275Y-96923330D01*
X138728418Y-96937473D01*
X138548813Y-97117078D01*
X138534670Y-97102935D01*
X138520528Y-97117078D01*
X138340923Y-96937473D01*
X138355065Y-96923330D01*
X138340923Y-96909188D01*
X138520528Y-96729583D01*
X138534670Y-96743725D01*
X138548813Y-96729583D01*
X138728418Y-96909188D01*
X138728418Y-96909188D01*
G37*
X138728418Y-96909188D02*
X138714275Y-96923330D01*
X138728418Y-96937473D01*
X138548813Y-97117078D01*
X138534670Y-97102935D01*
X138520528Y-97117078D01*
X138340923Y-96937473D01*
X138355065Y-96923330D01*
X138340923Y-96909188D01*
X138520528Y-96729583D01*
X138534670Y-96743725D01*
X138548813Y-96729583D01*
X138728418Y-96909188D01*
G36*
X148485750Y-94135000D02*
X148726309Y-94135000D01*
X148838670Y-94088458D01*
X149656800Y-94906589D01*
X149656800Y-95762000D01*
X149552750Y-95762000D01*
X149394000Y-95920750D01*
X149394000Y-96522000D01*
X149414000Y-96522000D01*
X149414000Y-96772000D01*
X149394000Y-96772000D01*
X149394000Y-96794000D01*
X149140000Y-96794000D01*
X149140000Y-96772000D01*
X149120000Y-96772000D01*
X149120000Y-96522000D01*
X149140000Y-96522000D01*
X149140000Y-95920750D01*
X148981250Y-95762000D01*
X148929000Y-95762000D01*
X148929000Y-94967000D01*
X148870996Y-94675395D01*
X148799279Y-94568063D01*
X148705816Y-94428185D01*
X148327002Y-94049372D01*
X148327002Y-93976252D01*
X148485750Y-94135000D01*
X148485750Y-94135000D01*
G37*
X148485750Y-94135000D02*
X148726309Y-94135000D01*
X148838670Y-94088458D01*
X149656800Y-94906589D01*
X149656800Y-95762000D01*
X149552750Y-95762000D01*
X149394000Y-95920750D01*
X149394000Y-96522000D01*
X149414000Y-96522000D01*
X149414000Y-96772000D01*
X149394000Y-96772000D01*
X149394000Y-96794000D01*
X149140000Y-96794000D01*
X149140000Y-96772000D01*
X149120000Y-96772000D01*
X149120000Y-96522000D01*
X149140000Y-96522000D01*
X149140000Y-95920750D01*
X148981250Y-95762000D01*
X148929000Y-95762000D01*
X148929000Y-94967000D01*
X148870996Y-94675395D01*
X148799279Y-94568063D01*
X148705816Y-94428185D01*
X148327002Y-94049372D01*
X148327002Y-93976252D01*
X148485750Y-94135000D01*
G36*
X143611250Y-89404250D02*
X143611250Y-89404250D01*
X144563750Y-89404250D01*
X144583750Y-89384250D01*
X144703750Y-89384250D01*
X144723750Y-89404250D01*
X145676250Y-89404250D01*
X145696250Y-89384250D01*
X145816250Y-89384250D01*
X145836250Y-89404250D01*
X146788750Y-89404250D01*
X146808750Y-89384250D01*
X146995750Y-89384250D01*
X146995750Y-89404250D01*
X147015750Y-89404250D01*
X147015750Y-89591250D01*
X146995750Y-89611250D01*
X146995750Y-90563750D01*
X147015750Y-90583750D01*
X147015750Y-90703750D01*
X146995750Y-90723750D01*
X146995750Y-91676250D01*
X147015750Y-91696250D01*
X147015750Y-91816250D01*
X146995750Y-91836250D01*
X146995750Y-92788750D01*
X147015750Y-92808750D01*
X147015750Y-92995750D01*
X146995750Y-92995750D01*
X146995750Y-93015750D01*
X146808750Y-93015750D01*
X146788750Y-92995750D01*
X145836250Y-92995750D01*
X145816250Y-93015750D01*
X145696250Y-93015750D01*
X145676250Y-92995750D01*
X144723750Y-92995750D01*
X144703750Y-93015750D01*
X144583750Y-93015750D01*
X144563750Y-92995750D01*
X143611250Y-92995750D01*
X143591250Y-93015750D01*
X143404250Y-93015750D01*
X143404250Y-92995750D01*
X143384250Y-92995750D01*
X143384250Y-92808750D01*
X143404250Y-92788750D01*
X143404250Y-91836250D01*
X143384250Y-91816250D01*
X143384250Y-91696250D01*
X143404250Y-91676250D01*
X143404250Y-90723750D01*
X143384250Y-90703750D01*
X143384250Y-90583750D01*
X143404250Y-90563750D01*
X143404250Y-89611250D01*
X143384250Y-89591250D01*
X143384250Y-89452500D01*
X143817000Y-89452500D01*
X143658250Y-89611250D01*
X143658250Y-89618724D01*
X143618725Y-89658250D01*
X143611250Y-89658250D01*
X143452500Y-89817000D01*
X143452500Y-90358000D01*
X143611250Y-90516750D01*
X143618725Y-90516750D01*
X143658250Y-90556276D01*
X143658250Y-90563750D01*
X143738250Y-90643750D01*
X143658250Y-90723750D01*
X143658250Y-90731224D01*
X143618725Y-90770750D01*
X143611250Y-90770750D01*
X143452500Y-90929500D01*
X143452500Y-91470500D01*
X143611250Y-91629250D01*
X143618725Y-91629250D01*
X143658250Y-91668776D01*
X143658250Y-91676250D01*
X143738250Y-91756250D01*
X143658250Y-91836250D01*
X143658250Y-91843724D01*
X143618725Y-91883250D01*
X143611250Y-91883250D01*
X143452500Y-92042000D01*
X143452500Y-92583000D01*
X143611250Y-92741750D01*
X143618725Y-92741750D01*
X143658250Y-92781276D01*
X143658250Y-92788750D01*
X143817000Y-92947500D01*
X144358000Y-92947500D01*
X144516750Y-92788750D01*
X144516750Y-92781276D01*
X144556275Y-92741750D01*
X144563750Y-92741750D01*
X144643750Y-92661750D01*
X144723750Y-92741750D01*
X144731225Y-92741750D01*
X144770750Y-92781276D01*
X144770750Y-92788750D01*
X144929500Y-92947500D01*
X145470500Y-92947500D01*
X145629250Y-92788750D01*
X145629250Y-92781276D01*
X145668775Y-92741750D01*
X145676250Y-92741750D01*
X145756250Y-92661750D01*
X145836250Y-92741750D01*
X145843725Y-92741750D01*
X145883250Y-92781276D01*
X145883250Y-92788750D01*
X146042000Y-92947500D01*
X146583000Y-92947500D01*
X146741750Y-92788750D01*
X146741750Y-92781276D01*
X146781275Y-92741750D01*
X146788750Y-92741750D01*
X146947500Y-92583000D01*
X146947500Y-92042000D01*
X146788750Y-91883250D01*
X146781275Y-91883250D01*
X146741750Y-91843724D01*
X146741750Y-91836250D01*
X146661750Y-91756250D01*
X146741750Y-91676250D01*
X146741750Y-91668776D01*
X146781275Y-91629250D01*
X146788750Y-91629250D01*
X146947500Y-91470500D01*
X146947500Y-90929500D01*
X146788750Y-90770750D01*
X146781275Y-90770750D01*
X146741750Y-90731224D01*
X146741750Y-90723750D01*
X146661750Y-90643750D01*
X146741750Y-90563750D01*
X146741750Y-90556276D01*
X146781275Y-90516750D01*
X146788750Y-90516750D01*
X146947500Y-90358000D01*
X146947500Y-89817000D01*
X146788750Y-89658250D01*
X146781275Y-89658250D01*
X146741750Y-89618724D01*
X146741750Y-89611250D01*
X146583000Y-89452500D01*
X146042000Y-89452500D01*
X145883250Y-89611250D01*
X145883250Y-89618724D01*
X145843725Y-89658250D01*
X145836250Y-89658250D01*
X145756250Y-89738250D01*
X145676250Y-89658250D01*
X145668775Y-89658250D01*
X145629250Y-89618724D01*
X145629250Y-89611250D01*
X145470500Y-89452500D01*
X144929500Y-89452500D01*
X144770750Y-89611250D01*
X144770750Y-89618724D01*
X144731225Y-89658250D01*
X144723750Y-89658250D01*
X144643750Y-89738250D01*
X144563750Y-89658250D01*
X144556275Y-89658250D01*
X144516750Y-89618724D01*
X144516750Y-89611250D01*
X144358000Y-89452500D01*
X143817000Y-89452500D01*
X143384250Y-89452500D01*
X143384250Y-89404250D01*
X143404250Y-89404250D01*
X143404250Y-89384250D01*
X143591250Y-89384250D01*
X143611250Y-89404250D01*
X143611250Y-89404250D01*
G37*
X143611250Y-89404250D02*
X143611250Y-89404250D01*
X144563750Y-89404250D01*
X144583750Y-89384250D01*
X144703750Y-89384250D01*
X144723750Y-89404250D01*
X145676250Y-89404250D01*
X145696250Y-89384250D01*
X145816250Y-89384250D01*
X145836250Y-89404250D01*
X146788750Y-89404250D01*
X146808750Y-89384250D01*
X146995750Y-89384250D01*
X146995750Y-89404250D01*
X147015750Y-89404250D01*
X147015750Y-89591250D01*
X146995750Y-89611250D01*
X146995750Y-90563750D01*
X147015750Y-90583750D01*
X147015750Y-90703750D01*
X146995750Y-90723750D01*
X146995750Y-91676250D01*
X147015750Y-91696250D01*
X147015750Y-91816250D01*
X146995750Y-91836250D01*
X146995750Y-92788750D01*
X147015750Y-92808750D01*
X147015750Y-92995750D01*
X146995750Y-92995750D01*
X146995750Y-93015750D01*
X146808750Y-93015750D01*
X146788750Y-92995750D01*
X145836250Y-92995750D01*
X145816250Y-93015750D01*
X145696250Y-93015750D01*
X145676250Y-92995750D01*
X144723750Y-92995750D01*
X144703750Y-93015750D01*
X144583750Y-93015750D01*
X144563750Y-92995750D01*
X143611250Y-92995750D01*
X143591250Y-93015750D01*
X143404250Y-93015750D01*
X143404250Y-92995750D01*
X143384250Y-92995750D01*
X143384250Y-92808750D01*
X143404250Y-92788750D01*
X143404250Y-91836250D01*
X143384250Y-91816250D01*
X143384250Y-91696250D01*
X143404250Y-91676250D01*
X143404250Y-90723750D01*
X143384250Y-90703750D01*
X143384250Y-90583750D01*
X143404250Y-90563750D01*
X143404250Y-89611250D01*
X143384250Y-89591250D01*
X143384250Y-89452500D01*
X143817000Y-89452500D01*
X143658250Y-89611250D01*
X143658250Y-89618724D01*
X143618725Y-89658250D01*
X143611250Y-89658250D01*
X143452500Y-89817000D01*
X143452500Y-90358000D01*
X143611250Y-90516750D01*
X143618725Y-90516750D01*
X143658250Y-90556276D01*
X143658250Y-90563750D01*
X143738250Y-90643750D01*
X143658250Y-90723750D01*
X143658250Y-90731224D01*
X143618725Y-90770750D01*
X143611250Y-90770750D01*
X143452500Y-90929500D01*
X143452500Y-91470500D01*
X143611250Y-91629250D01*
X143618725Y-91629250D01*
X143658250Y-91668776D01*
X143658250Y-91676250D01*
X143738250Y-91756250D01*
X143658250Y-91836250D01*
X143658250Y-91843724D01*
X143618725Y-91883250D01*
X143611250Y-91883250D01*
X143452500Y-92042000D01*
X143452500Y-92583000D01*
X143611250Y-92741750D01*
X143618725Y-92741750D01*
X143658250Y-92781276D01*
X143658250Y-92788750D01*
X143817000Y-92947500D01*
X144358000Y-92947500D01*
X144516750Y-92788750D01*
X144516750Y-92781276D01*
X144556275Y-92741750D01*
X144563750Y-92741750D01*
X144643750Y-92661750D01*
X144723750Y-92741750D01*
X144731225Y-92741750D01*
X144770750Y-92781276D01*
X144770750Y-92788750D01*
X144929500Y-92947500D01*
X145470500Y-92947500D01*
X145629250Y-92788750D01*
X145629250Y-92781276D01*
X145668775Y-92741750D01*
X145676250Y-92741750D01*
X145756250Y-92661750D01*
X145836250Y-92741750D01*
X145843725Y-92741750D01*
X145883250Y-92781276D01*
X145883250Y-92788750D01*
X146042000Y-92947500D01*
X146583000Y-92947500D01*
X146741750Y-92788750D01*
X146741750Y-92781276D01*
X146781275Y-92741750D01*
X146788750Y-92741750D01*
X146947500Y-92583000D01*
X146947500Y-92042000D01*
X146788750Y-91883250D01*
X146781275Y-91883250D01*
X146741750Y-91843724D01*
X146741750Y-91836250D01*
X146661750Y-91756250D01*
X146741750Y-91676250D01*
X146741750Y-91668776D01*
X146781275Y-91629250D01*
X146788750Y-91629250D01*
X146947500Y-91470500D01*
X146947500Y-90929500D01*
X146788750Y-90770750D01*
X146781275Y-90770750D01*
X146741750Y-90731224D01*
X146741750Y-90723750D01*
X146661750Y-90643750D01*
X146741750Y-90563750D01*
X146741750Y-90556276D01*
X146781275Y-90516750D01*
X146788750Y-90516750D01*
X146947500Y-90358000D01*
X146947500Y-89817000D01*
X146788750Y-89658250D01*
X146781275Y-89658250D01*
X146741750Y-89618724D01*
X146741750Y-89611250D01*
X146583000Y-89452500D01*
X146042000Y-89452500D01*
X145883250Y-89611250D01*
X145883250Y-89618724D01*
X145843725Y-89658250D01*
X145836250Y-89658250D01*
X145756250Y-89738250D01*
X145676250Y-89658250D01*
X145668775Y-89658250D01*
X145629250Y-89618724D01*
X145629250Y-89611250D01*
X145470500Y-89452500D01*
X144929500Y-89452500D01*
X144770750Y-89611250D01*
X144770750Y-89618724D01*
X144731225Y-89658250D01*
X144723750Y-89658250D01*
X144643750Y-89738250D01*
X144563750Y-89658250D01*
X144556275Y-89658250D01*
X144516750Y-89618724D01*
X144516750Y-89611250D01*
X144358000Y-89452500D01*
X143817000Y-89452500D01*
X143384250Y-89452500D01*
X143384250Y-89404250D01*
X143404250Y-89404250D01*
X143404250Y-89384250D01*
X143591250Y-89384250D01*
X143611250Y-89404250D01*
G36*
X145836250Y-91629250D02*
X145843725Y-91629250D01*
X145883250Y-91668776D01*
X145883250Y-91676250D01*
X145963250Y-91756250D01*
X145883250Y-91836250D01*
X145883250Y-91843724D01*
X145843725Y-91883250D01*
X145836250Y-91883250D01*
X145756250Y-91963250D01*
X145676250Y-91883250D01*
X145668775Y-91883250D01*
X145629250Y-91843724D01*
X145629250Y-91836250D01*
X145549250Y-91756250D01*
X145629250Y-91676250D01*
X145629250Y-91668776D01*
X145668775Y-91629250D01*
X145676250Y-91629250D01*
X145756250Y-91549250D01*
X145836250Y-91629250D01*
X145836250Y-91629250D01*
G37*
X145836250Y-91629250D02*
X145843725Y-91629250D01*
X145883250Y-91668776D01*
X145883250Y-91676250D01*
X145963250Y-91756250D01*
X145883250Y-91836250D01*
X145883250Y-91843724D01*
X145843725Y-91883250D01*
X145836250Y-91883250D01*
X145756250Y-91963250D01*
X145676250Y-91883250D01*
X145668775Y-91883250D01*
X145629250Y-91843724D01*
X145629250Y-91836250D01*
X145549250Y-91756250D01*
X145629250Y-91676250D01*
X145629250Y-91668776D01*
X145668775Y-91629250D01*
X145676250Y-91629250D01*
X145756250Y-91549250D01*
X145836250Y-91629250D01*
G36*
X144723750Y-91629250D02*
X144731225Y-91629250D01*
X144770750Y-91668776D01*
X144770750Y-91676250D01*
X144850750Y-91756250D01*
X144770750Y-91836250D01*
X144770750Y-91843724D01*
X144731225Y-91883250D01*
X144723750Y-91883250D01*
X144643750Y-91963250D01*
X144563750Y-91883250D01*
X144556275Y-91883250D01*
X144516750Y-91843724D01*
X144516750Y-91836250D01*
X144436750Y-91756250D01*
X144516750Y-91676250D01*
X144516750Y-91668776D01*
X144556275Y-91629250D01*
X144563750Y-91629250D01*
X144643750Y-91549250D01*
X144723750Y-91629250D01*
X144723750Y-91629250D01*
G37*
X144723750Y-91629250D02*
X144731225Y-91629250D01*
X144770750Y-91668776D01*
X144770750Y-91676250D01*
X144850750Y-91756250D01*
X144770750Y-91836250D01*
X144770750Y-91843724D01*
X144731225Y-91883250D01*
X144723750Y-91883250D01*
X144643750Y-91963250D01*
X144563750Y-91883250D01*
X144556275Y-91883250D01*
X144516750Y-91843724D01*
X144516750Y-91836250D01*
X144436750Y-91756250D01*
X144516750Y-91676250D01*
X144516750Y-91668776D01*
X144556275Y-91629250D01*
X144563750Y-91629250D01*
X144643750Y-91549250D01*
X144723750Y-91629250D01*
G36*
X145836250Y-90516750D02*
X145843725Y-90516750D01*
X145883250Y-90556276D01*
X145883250Y-90563750D01*
X145963250Y-90643750D01*
X145883250Y-90723750D01*
X145883250Y-90731224D01*
X145843725Y-90770750D01*
X145836250Y-90770750D01*
X145756250Y-90850750D01*
X145676250Y-90770750D01*
X145668775Y-90770750D01*
X145629250Y-90731224D01*
X145629250Y-90723750D01*
X145549250Y-90643750D01*
X145629250Y-90563750D01*
X145629250Y-90556276D01*
X145668775Y-90516750D01*
X145676250Y-90516750D01*
X145756250Y-90436750D01*
X145836250Y-90516750D01*
X145836250Y-90516750D01*
G37*
X145836250Y-90516750D02*
X145843725Y-90516750D01*
X145883250Y-90556276D01*
X145883250Y-90563750D01*
X145963250Y-90643750D01*
X145883250Y-90723750D01*
X145883250Y-90731224D01*
X145843725Y-90770750D01*
X145836250Y-90770750D01*
X145756250Y-90850750D01*
X145676250Y-90770750D01*
X145668775Y-90770750D01*
X145629250Y-90731224D01*
X145629250Y-90723750D01*
X145549250Y-90643750D01*
X145629250Y-90563750D01*
X145629250Y-90556276D01*
X145668775Y-90516750D01*
X145676250Y-90516750D01*
X145756250Y-90436750D01*
X145836250Y-90516750D01*
G36*
X144723750Y-90516750D02*
X144731225Y-90516750D01*
X144770750Y-90556276D01*
X144770750Y-90563750D01*
X144850750Y-90643750D01*
X144770750Y-90723750D01*
X144770750Y-90731224D01*
X144731225Y-90770750D01*
X144723750Y-90770750D01*
X144643750Y-90850750D01*
X144563750Y-90770750D01*
X144556275Y-90770750D01*
X144516750Y-90731224D01*
X144516750Y-90723750D01*
X144436750Y-90643750D01*
X144516750Y-90563750D01*
X144516750Y-90556276D01*
X144556275Y-90516750D01*
X144563750Y-90516750D01*
X144643750Y-90436750D01*
X144723750Y-90516750D01*
X144723750Y-90516750D01*
G37*
X144723750Y-90516750D02*
X144731225Y-90516750D01*
X144770750Y-90556276D01*
X144770750Y-90563750D01*
X144850750Y-90643750D01*
X144770750Y-90723750D01*
X144770750Y-90731224D01*
X144731225Y-90770750D01*
X144723750Y-90770750D01*
X144643750Y-90850750D01*
X144563750Y-90770750D01*
X144556275Y-90770750D01*
X144516750Y-90731224D01*
X144516750Y-90723750D01*
X144436750Y-90643750D01*
X144516750Y-90563750D01*
X144516750Y-90556276D01*
X144556275Y-90516750D01*
X144563750Y-90516750D01*
X144643750Y-90436750D01*
X144723750Y-90516750D01*
G36*
X139312505Y-91523718D02*
X139326648Y-91509576D01*
X139438847Y-91621775D01*
X139326106Y-91697106D01*
X139212252Y-91810960D01*
X139118758Y-91717466D01*
X139132900Y-91703323D01*
X139117344Y-91687767D01*
X139296949Y-91508162D01*
X139312505Y-91523718D01*
X139312505Y-91523718D01*
G37*
X139312505Y-91523718D02*
X139326648Y-91509576D01*
X139438847Y-91621775D01*
X139326106Y-91697106D01*
X139212252Y-91810960D01*
X139118758Y-91717466D01*
X139132900Y-91703323D01*
X139117344Y-91687767D01*
X139296949Y-91508162D01*
X139312505Y-91523718D01*
G36*
X137534505Y-91269718D02*
X137548648Y-91255576D01*
X137725425Y-91432353D01*
X137711282Y-91446495D01*
X137726839Y-91462052D01*
X137547234Y-91641657D01*
X137531677Y-91626100D01*
X137517535Y-91640243D01*
X137340758Y-91463466D01*
X137354900Y-91449323D01*
X137339344Y-91433767D01*
X137518949Y-91254162D01*
X137534505Y-91269718D01*
X137534505Y-91269718D01*
G37*
X137534505Y-91269718D02*
X137548648Y-91255576D01*
X137725425Y-91432353D01*
X137711282Y-91446495D01*
X137726839Y-91462052D01*
X137547234Y-91641657D01*
X137531677Y-91626100D01*
X137517535Y-91640243D01*
X137340758Y-91463466D01*
X137354900Y-91449323D01*
X137339344Y-91433767D01*
X137518949Y-91254162D01*
X137534505Y-91269718D01*
G36*
X159081000Y-84676024D02*
X159081000Y-84676024D01*
X159049271Y-84516511D01*
X158724415Y-84030330D01*
X158238234Y-83705474D01*
X157664745Y-83591400D01*
X157295255Y-83591400D01*
X156721766Y-83705474D01*
X156235585Y-84030330D01*
X155910729Y-84516511D01*
X155873873Y-84701800D01*
X153900050Y-84701800D01*
X153811250Y-84613000D01*
X153571560Y-84613000D01*
X153335000Y-84565560D01*
X152735000Y-84565560D01*
X152492877Y-84612537D01*
X152492172Y-84613000D01*
X152258750Y-84613000D01*
X152100000Y-84771750D01*
X152100000Y-84839309D01*
X152146151Y-84950727D01*
X152137623Y-84963360D01*
X152087560Y-85213000D01*
X152087560Y-85354651D01*
X151793412Y-85648800D01*
X150368000Y-85648800D01*
X150095835Y-85702937D01*
X149865106Y-85857105D01*
X149103106Y-86619106D01*
X148948937Y-86849835D01*
X148938959Y-86900000D01*
X148894800Y-87122000D01*
X148894800Y-88224411D01*
X148830412Y-88288800D01*
X148780711Y-88288800D01*
X148600000Y-88252560D01*
X148147440Y-88252560D01*
X148147440Y-87800000D01*
X148100463Y-87557877D01*
X147960673Y-87345073D01*
X147918907Y-87316881D01*
X148613348Y-86622440D01*
X148805000Y-86622440D01*
X149047123Y-86575463D01*
X149259927Y-86435673D01*
X149402377Y-86224640D01*
X149452440Y-85975000D01*
X149452440Y-85475000D01*
X149405463Y-85232877D01*
X149265673Y-85020073D01*
X149262855Y-85018171D01*
X149343327Y-84937699D01*
X149440000Y-84704310D01*
X149440000Y-84611750D01*
X149281250Y-84453000D01*
X148632000Y-84453000D01*
X148632000Y-84475000D01*
X148378000Y-84475000D01*
X148378000Y-84453000D01*
X148358000Y-84453000D01*
X148358000Y-84203000D01*
X148378000Y-84203000D01*
X148378000Y-83601750D01*
X148219250Y-83443000D01*
X148790750Y-83443000D01*
X148632000Y-83601750D01*
X148632000Y-84203000D01*
X149281250Y-84203000D01*
X149440000Y-84044250D01*
X149440000Y-83951690D01*
X149343327Y-83718301D01*
X149303026Y-83678000D01*
X152608690Y-83678000D01*
X152375301Y-83774673D01*
X152196673Y-83953302D01*
X152100000Y-84186691D01*
X152100000Y-84254250D01*
X152258750Y-84413000D01*
X152908000Y-84413000D01*
X152908000Y-83836750D01*
X152749250Y-83678000D01*
X153320750Y-83678000D01*
X153162000Y-83836750D01*
X153162000Y-84413000D01*
X153811250Y-84413000D01*
X153970000Y-84254250D01*
X153970000Y-84186691D01*
X153873327Y-83953302D01*
X153694699Y-83774673D01*
X153461310Y-83678000D01*
X153320750Y-83678000D01*
X152749250Y-83678000D01*
X152749250Y-83678000D01*
X152608690Y-83678000D01*
X149303026Y-83678000D01*
X149164698Y-83539673D01*
X148931309Y-83443000D01*
X148790750Y-83443000D01*
X148219250Y-83443000D01*
X148219250Y-83443000D01*
X148078691Y-83443000D01*
X147967273Y-83489151D01*
X147954640Y-83480623D01*
X147705000Y-83430560D01*
X147105000Y-83430560D01*
X146862877Y-83477537D01*
X146813344Y-83510075D01*
X146695640Y-83430623D01*
X146446000Y-83380560D01*
X146046000Y-83380560D01*
X145803877Y-83427537D01*
X145797386Y-83431801D01*
X145795640Y-83430623D01*
X145546000Y-83380560D01*
X145146000Y-83380560D01*
X144903877Y-83427537D01*
X144691073Y-83567327D01*
X144548623Y-83778360D01*
X144498560Y-84028000D01*
X144498560Y-84628000D01*
X144527578Y-84777560D01*
X144130000Y-84777560D01*
X143887877Y-84824537D01*
X143763264Y-84906395D01*
X143720640Y-84877623D01*
X143471000Y-84827560D01*
X142877311Y-84827560D01*
X142883440Y-84797000D01*
X142883440Y-84197000D01*
X142836463Y-83954877D01*
X142824222Y-83936242D01*
X142871000Y-83823309D01*
X142871000Y-83682750D01*
X142712250Y-83524000D01*
X142111000Y-83524000D01*
X142111000Y-83544000D01*
X141861000Y-83544000D01*
X141861000Y-83524000D01*
X141259750Y-83524000D01*
X141101000Y-83682750D01*
X141101000Y-83823309D01*
X141147151Y-83934727D01*
X141138623Y-83947360D01*
X141088560Y-84197000D01*
X141088560Y-84777560D01*
X140891760Y-84777560D01*
X140891760Y-82589672D01*
X140904200Y-82527640D01*
X140904200Y-82462000D01*
X141609690Y-82462000D01*
X141376301Y-82558673D01*
X141197673Y-82737302D01*
X141101000Y-82970691D01*
X141101000Y-83111250D01*
X141259750Y-83270000D01*
X141861000Y-83270000D01*
X141861000Y-82620750D01*
X141702250Y-82462000D01*
X142269750Y-82462000D01*
X142111000Y-82620750D01*
X142111000Y-83270000D01*
X142712250Y-83270000D01*
X142871000Y-83111250D01*
X142871000Y-82970691D01*
X142774327Y-82737302D01*
X142595699Y-82558673D01*
X142362310Y-82462000D01*
X142269750Y-82462000D01*
X141702250Y-82462000D01*
X141702250Y-82462000D01*
X141609690Y-82462000D01*
X140904200Y-82462000D01*
X140904200Y-82296000D01*
X159081000Y-82296000D01*
X159081000Y-84676024D01*
X159081000Y-84676024D01*
G37*
X159081000Y-84676024D02*
X159081000Y-84676024D01*
X159049271Y-84516511D01*
X158724415Y-84030330D01*
X158238234Y-83705474D01*
X157664745Y-83591400D01*
X157295255Y-83591400D01*
X156721766Y-83705474D01*
X156235585Y-84030330D01*
X155910729Y-84516511D01*
X155873873Y-84701800D01*
X153900050Y-84701800D01*
X153811250Y-84613000D01*
X153571560Y-84613000D01*
X153335000Y-84565560D01*
X152735000Y-84565560D01*
X152492877Y-84612537D01*
X152492172Y-84613000D01*
X152258750Y-84613000D01*
X152100000Y-84771750D01*
X152100000Y-84839309D01*
X152146151Y-84950727D01*
X152137623Y-84963360D01*
X152087560Y-85213000D01*
X152087560Y-85354651D01*
X151793412Y-85648800D01*
X150368000Y-85648800D01*
X150095835Y-85702937D01*
X149865106Y-85857105D01*
X149103106Y-86619106D01*
X148948937Y-86849835D01*
X148938959Y-86900000D01*
X148894800Y-87122000D01*
X148894800Y-88224411D01*
X148830412Y-88288800D01*
X148780711Y-88288800D01*
X148600000Y-88252560D01*
X148147440Y-88252560D01*
X148147440Y-87800000D01*
X148100463Y-87557877D01*
X147960673Y-87345073D01*
X147918907Y-87316881D01*
X148613348Y-86622440D01*
X148805000Y-86622440D01*
X149047123Y-86575463D01*
X149259927Y-86435673D01*
X149402377Y-86224640D01*
X149452440Y-85975000D01*
X149452440Y-85475000D01*
X149405463Y-85232877D01*
X149265673Y-85020073D01*
X149262855Y-85018171D01*
X149343327Y-84937699D01*
X149440000Y-84704310D01*
X149440000Y-84611750D01*
X149281250Y-84453000D01*
X148632000Y-84453000D01*
X148632000Y-84475000D01*
X148378000Y-84475000D01*
X148378000Y-84453000D01*
X148358000Y-84453000D01*
X148358000Y-84203000D01*
X148378000Y-84203000D01*
X148378000Y-83601750D01*
X148219250Y-83443000D01*
X148790750Y-83443000D01*
X148632000Y-83601750D01*
X148632000Y-84203000D01*
X149281250Y-84203000D01*
X149440000Y-84044250D01*
X149440000Y-83951690D01*
X149343327Y-83718301D01*
X149303026Y-83678000D01*
X152608690Y-83678000D01*
X152375301Y-83774673D01*
X152196673Y-83953302D01*
X152100000Y-84186691D01*
X152100000Y-84254250D01*
X152258750Y-84413000D01*
X152908000Y-84413000D01*
X152908000Y-83836750D01*
X152749250Y-83678000D01*
X153320750Y-83678000D01*
X153162000Y-83836750D01*
X153162000Y-84413000D01*
X153811250Y-84413000D01*
X153970000Y-84254250D01*
X153970000Y-84186691D01*
X153873327Y-83953302D01*
X153694699Y-83774673D01*
X153461310Y-83678000D01*
X153320750Y-83678000D01*
X152749250Y-83678000D01*
X152749250Y-83678000D01*
X152608690Y-83678000D01*
X149303026Y-83678000D01*
X149164698Y-83539673D01*
X148931309Y-83443000D01*
X148790750Y-83443000D01*
X148219250Y-83443000D01*
X148219250Y-83443000D01*
X148078691Y-83443000D01*
X147967273Y-83489151D01*
X147954640Y-83480623D01*
X147705000Y-83430560D01*
X147105000Y-83430560D01*
X146862877Y-83477537D01*
X146813344Y-83510075D01*
X146695640Y-83430623D01*
X146446000Y-83380560D01*
X146046000Y-83380560D01*
X145803877Y-83427537D01*
X145797386Y-83431801D01*
X145795640Y-83430623D01*
X145546000Y-83380560D01*
X145146000Y-83380560D01*
X144903877Y-83427537D01*
X144691073Y-83567327D01*
X144548623Y-83778360D01*
X144498560Y-84028000D01*
X144498560Y-84628000D01*
X144527578Y-84777560D01*
X144130000Y-84777560D01*
X143887877Y-84824537D01*
X143763264Y-84906395D01*
X143720640Y-84877623D01*
X143471000Y-84827560D01*
X142877311Y-84827560D01*
X142883440Y-84797000D01*
X142883440Y-84197000D01*
X142836463Y-83954877D01*
X142824222Y-83936242D01*
X142871000Y-83823309D01*
X142871000Y-83682750D01*
X142712250Y-83524000D01*
X142111000Y-83524000D01*
X142111000Y-83544000D01*
X141861000Y-83544000D01*
X141861000Y-83524000D01*
X141259750Y-83524000D01*
X141101000Y-83682750D01*
X141101000Y-83823309D01*
X141147151Y-83934727D01*
X141138623Y-83947360D01*
X141088560Y-84197000D01*
X141088560Y-84777560D01*
X140891760Y-84777560D01*
X140891760Y-82589672D01*
X140904200Y-82527640D01*
X140904200Y-82462000D01*
X141609690Y-82462000D01*
X141376301Y-82558673D01*
X141197673Y-82737302D01*
X141101000Y-82970691D01*
X141101000Y-83111250D01*
X141259750Y-83270000D01*
X141861000Y-83270000D01*
X141861000Y-82620750D01*
X141702250Y-82462000D01*
X142269750Y-82462000D01*
X142111000Y-82620750D01*
X142111000Y-83270000D01*
X142712250Y-83270000D01*
X142871000Y-83111250D01*
X142871000Y-82970691D01*
X142774327Y-82737302D01*
X142595699Y-82558673D01*
X142362310Y-82462000D01*
X142269750Y-82462000D01*
X141702250Y-82462000D01*
X141702250Y-82462000D01*
X141609690Y-82462000D01*
X140904200Y-82462000D01*
X140904200Y-82296000D01*
X159081000Y-82296000D01*
X159081000Y-84676024D01*
G36*
X136821760Y-82569750D02*
X136821760Y-82569750D01*
X136918433Y-82803139D01*
X137097062Y-82981767D01*
X137330451Y-83078440D01*
X137621010Y-83078440D01*
X137779760Y-82919690D01*
X137779760Y-82296000D01*
X138033760Y-82296000D01*
X138033760Y-82919690D01*
X138192510Y-83078440D01*
X138483069Y-83078440D01*
X138716458Y-82981767D01*
X138895087Y-82803139D01*
X138991760Y-82569750D01*
X138991760Y-82296000D01*
X139109320Y-82296000D01*
X139109320Y-82527640D01*
X139121760Y-82591757D01*
X139121760Y-84827560D01*
X138553000Y-84827560D01*
X138310877Y-84874537D01*
X138292242Y-84886778D01*
X138179309Y-84840000D01*
X138038750Y-84840000D01*
X137880000Y-84998750D01*
X137880000Y-85600000D01*
X137900000Y-85600000D01*
X137900000Y-85850000D01*
X137880000Y-85850000D01*
X137880000Y-86451250D01*
X138038750Y-86610000D01*
X138179309Y-86610000D01*
X138290727Y-86563849D01*
X138303360Y-86572377D01*
X138553000Y-86622440D01*
X139153000Y-86622440D01*
X139395123Y-86575463D01*
X139444656Y-86542925D01*
X139562360Y-86622377D01*
X139812000Y-86672440D01*
X140212000Y-86672440D01*
X140454123Y-86625463D01*
X140460614Y-86621199D01*
X140462360Y-86622377D01*
X140712000Y-86672440D01*
X141112000Y-86672440D01*
X141354123Y-86625463D01*
X141478736Y-86543605D01*
X141521360Y-86572377D01*
X141771000Y-86622440D01*
X142371000Y-86622440D01*
X142613123Y-86575463D01*
X142619614Y-86571199D01*
X142621360Y-86572377D01*
X142871000Y-86622440D01*
X143471000Y-86622440D01*
X143713123Y-86575463D01*
X143762656Y-86542925D01*
X143880360Y-86622377D01*
X143888800Y-86624070D01*
X143888800Y-87200163D01*
X143800301Y-87236820D01*
X143749640Y-87202623D01*
X143598579Y-87172329D01*
X143591250Y-87165000D01*
X143573690Y-87165000D01*
X143569887Y-87166575D01*
X143500000Y-87152560D01*
X143300000Y-87152560D01*
X143198348Y-87172283D01*
X143100000Y-87152560D01*
X142900000Y-87152560D01*
X142657877Y-87199537D01*
X142445073Y-87339327D01*
X142344177Y-87488800D01*
X141644096Y-87488800D01*
X141640188Y-87479341D01*
X141376049Y-87214741D01*
X141030758Y-87071363D01*
X140656882Y-87071037D01*
X140311341Y-87213812D01*
X140282155Y-87242947D01*
X140164640Y-87163623D01*
X139915000Y-87113560D01*
X139315000Y-87113560D01*
X139072877Y-87160537D01*
X139054242Y-87172778D01*
X138941309Y-87126000D01*
X138800750Y-87126000D01*
X138642000Y-87284750D01*
X138642000Y-87886000D01*
X138662000Y-87886000D01*
X138662000Y-88136000D01*
X138642000Y-88136000D01*
X138642000Y-88158000D01*
X138388000Y-88158000D01*
X138388000Y-88136000D01*
X138368000Y-88136000D01*
X138368000Y-87886000D01*
X138388000Y-87886000D01*
X138388000Y-87284750D01*
X138229250Y-87126000D01*
X138088691Y-87126000D01*
X137855302Y-87222673D01*
X137676673Y-87401301D01*
X137580000Y-87634690D01*
X137580000Y-87648172D01*
X137572165Y-87642937D01*
X137300000Y-87588800D01*
X137100000Y-87588800D01*
X137011389Y-87606426D01*
X136354321Y-86949358D01*
X136149896Y-86811369D01*
X135900575Y-86759739D01*
X135713999Y-86795940D01*
X135682145Y-86719038D01*
X135616695Y-86653588D01*
X135392189Y-86653588D01*
X134933100Y-87112677D01*
X134948657Y-87128234D01*
X134769052Y-87307839D01*
X134753495Y-87292282D01*
X134739353Y-87306425D01*
X134562576Y-87129648D01*
X134576718Y-87115505D01*
X134151570Y-86690357D01*
X133927064Y-86690357D01*
X133827674Y-86789747D01*
X133781523Y-86901166D01*
X133766559Y-86904069D01*
X133554637Y-87045191D01*
X133130373Y-87469455D01*
X133019000Y-87634449D01*
X133019000Y-86090182D01*
X134916573Y-86090182D01*
X134663955Y-86090183D01*
X134430565Y-86186856D01*
X134331175Y-86286246D01*
X134331175Y-86510752D01*
X134756323Y-86935900D01*
X135215412Y-86476811D01*
X135215412Y-86252305D01*
X135149962Y-86186855D01*
X134916573Y-86090182D01*
X133019000Y-86090182D01*
X133019000Y-85850000D01*
X136976750Y-85850000D01*
X136818000Y-86008750D01*
X136818000Y-86101310D01*
X136914673Y-86334699D01*
X137093302Y-86513327D01*
X137326691Y-86610000D01*
X137467250Y-86610000D01*
X137626000Y-86451250D01*
X137626000Y-85850000D01*
X136976750Y-85850000D01*
X133019000Y-85850000D01*
X133019000Y-84840000D01*
X137326691Y-84840000D01*
X137093302Y-84936673D01*
X136914673Y-85115301D01*
X136818000Y-85348690D01*
X136818000Y-85441250D01*
X136976750Y-85600000D01*
X137626000Y-85600000D01*
X137626000Y-84998750D01*
X137467250Y-84840000D01*
X137326691Y-84840000D01*
X133019000Y-84840000D01*
X133019000Y-82296000D01*
X136821760Y-82296000D01*
X136821760Y-82569750D01*
X136821760Y-82569750D01*
G37*
X136821760Y-82569750D02*
X136821760Y-82569750D01*
X136918433Y-82803139D01*
X137097062Y-82981767D01*
X137330451Y-83078440D01*
X137621010Y-83078440D01*
X137779760Y-82919690D01*
X137779760Y-82296000D01*
X138033760Y-82296000D01*
X138033760Y-82919690D01*
X138192510Y-83078440D01*
X138483069Y-83078440D01*
X138716458Y-82981767D01*
X138895087Y-82803139D01*
X138991760Y-82569750D01*
X138991760Y-82296000D01*
X139109320Y-82296000D01*
X139109320Y-82527640D01*
X139121760Y-82591757D01*
X139121760Y-84827560D01*
X138553000Y-84827560D01*
X138310877Y-84874537D01*
X138292242Y-84886778D01*
X138179309Y-84840000D01*
X138038750Y-84840000D01*
X137880000Y-84998750D01*
X137880000Y-85600000D01*
X137900000Y-85600000D01*
X137900000Y-85850000D01*
X137880000Y-85850000D01*
X137880000Y-86451250D01*
X138038750Y-86610000D01*
X138179309Y-86610000D01*
X138290727Y-86563849D01*
X138303360Y-86572377D01*
X138553000Y-86622440D01*
X139153000Y-86622440D01*
X139395123Y-86575463D01*
X139444656Y-86542925D01*
X139562360Y-86622377D01*
X139812000Y-86672440D01*
X140212000Y-86672440D01*
X140454123Y-86625463D01*
X140460614Y-86621199D01*
X140462360Y-86622377D01*
X140712000Y-86672440D01*
X141112000Y-86672440D01*
X141354123Y-86625463D01*
X141478736Y-86543605D01*
X141521360Y-86572377D01*
X141771000Y-86622440D01*
X142371000Y-86622440D01*
X142613123Y-86575463D01*
X142619614Y-86571199D01*
X142621360Y-86572377D01*
X142871000Y-86622440D01*
X143471000Y-86622440D01*
X143713123Y-86575463D01*
X143762656Y-86542925D01*
X143880360Y-86622377D01*
X143888800Y-86624070D01*
X143888800Y-87200163D01*
X143800301Y-87236820D01*
X143749640Y-87202623D01*
X143598579Y-87172329D01*
X143591250Y-87165000D01*
X143573690Y-87165000D01*
X143569887Y-87166575D01*
X143500000Y-87152560D01*
X143300000Y-87152560D01*
X143198348Y-87172283D01*
X143100000Y-87152560D01*
X142900000Y-87152560D01*
X142657877Y-87199537D01*
X142445073Y-87339327D01*
X142344177Y-87488800D01*
X141644096Y-87488800D01*
X141640188Y-87479341D01*
X141376049Y-87214741D01*
X141030758Y-87071363D01*
X140656882Y-87071037D01*
X140311341Y-87213812D01*
X140282155Y-87242947D01*
X140164640Y-87163623D01*
X139915000Y-87113560D01*
X139315000Y-87113560D01*
X139072877Y-87160537D01*
X139054242Y-87172778D01*
X138941309Y-87126000D01*
X138800750Y-87126000D01*
X138642000Y-87284750D01*
X138642000Y-87886000D01*
X138662000Y-87886000D01*
X138662000Y-88136000D01*
X138642000Y-88136000D01*
X138642000Y-88158000D01*
X138388000Y-88158000D01*
X138388000Y-88136000D01*
X138368000Y-88136000D01*
X138368000Y-87886000D01*
X138388000Y-87886000D01*
X138388000Y-87284750D01*
X138229250Y-87126000D01*
X138088691Y-87126000D01*
X137855302Y-87222673D01*
X137676673Y-87401301D01*
X137580000Y-87634690D01*
X137580000Y-87648172D01*
X137572165Y-87642937D01*
X137300000Y-87588800D01*
X137100000Y-87588800D01*
X137011389Y-87606426D01*
X136354321Y-86949358D01*
X136149896Y-86811369D01*
X135900575Y-86759739D01*
X135713999Y-86795940D01*
X135682145Y-86719038D01*
X135616695Y-86653588D01*
X135392189Y-86653588D01*
X134933100Y-87112677D01*
X134948657Y-87128234D01*
X134769052Y-87307839D01*
X134753495Y-87292282D01*
X134739353Y-87306425D01*
X134562576Y-87129648D01*
X134576718Y-87115505D01*
X134151570Y-86690357D01*
X133927064Y-86690357D01*
X133827674Y-86789747D01*
X133781523Y-86901166D01*
X133766559Y-86904069D01*
X133554637Y-87045191D01*
X133130373Y-87469455D01*
X133019000Y-87634449D01*
X133019000Y-86090182D01*
X134916573Y-86090182D01*
X134663955Y-86090183D01*
X134430565Y-86186856D01*
X134331175Y-86286246D01*
X134331175Y-86510752D01*
X134756323Y-86935900D01*
X135215412Y-86476811D01*
X135215412Y-86252305D01*
X135149962Y-86186855D01*
X134916573Y-86090182D01*
X133019000Y-86090182D01*
X133019000Y-85850000D01*
X136976750Y-85850000D01*
X136818000Y-86008750D01*
X136818000Y-86101310D01*
X136914673Y-86334699D01*
X137093302Y-86513327D01*
X137326691Y-86610000D01*
X137467250Y-86610000D01*
X137626000Y-86451250D01*
X137626000Y-85850000D01*
X136976750Y-85850000D01*
X133019000Y-85850000D01*
X133019000Y-84840000D01*
X137326691Y-84840000D01*
X137093302Y-84936673D01*
X136914673Y-85115301D01*
X136818000Y-85348690D01*
X136818000Y-85441250D01*
X136976750Y-85600000D01*
X137626000Y-85600000D01*
X137626000Y-84998750D01*
X137467250Y-84840000D01*
X137326691Y-84840000D01*
X133019000Y-84840000D01*
X133019000Y-82296000D01*
X136821760Y-82296000D01*
X136821760Y-82569750D01*
G36*
X147532000Y-85600000D02*
X147552000Y-85600000D01*
X147552000Y-85672212D01*
X147352212Y-85872000D01*
X147278000Y-85872000D01*
X147278000Y-85850000D01*
X147258000Y-85850000D01*
X147258000Y-85600000D01*
X147278000Y-85600000D01*
X147278000Y-85578000D01*
X147532000Y-85578000D01*
X147532000Y-85600000D01*
X147532000Y-85600000D01*
G37*
X147532000Y-85600000D02*
X147552000Y-85600000D01*
X147552000Y-85672212D01*
X147352212Y-85872000D01*
X147278000Y-85872000D01*
X147278000Y-85850000D01*
X147258000Y-85850000D01*
X147258000Y-85600000D01*
X147278000Y-85600000D01*
X147278000Y-85578000D01*
X147532000Y-85578000D01*
X147532000Y-85600000D01*
M02*
