M48
;DRILL file {kicad 0.201503090816+5484~22~ubuntu14.04.1-product} date Sun 31 May 2015 01:33:20 BST
;FORMAT={-:-/ absolute / inch / decimal}
FMAT,2
INCH,TZ
T1C0.012
T2C0.040
%
G90
G05
M72
T1
X5.28Y-3.36
X5.29Y-3.815
X5.305Y-3.59
X5.32Y-3.28
X5.325Y-4.005
X5.365Y-3.34
X5.403Y-4.2155
X5.405Y-4.185
X5.455Y-3.295
X5.495Y-4.66
X5.535Y-3.735
X5.545Y-3.465
X5.66Y-3.285
X5.66Y-3.42
X5.7Y-4.765
X5.75Y-3.925
X5.79Y-3.84
X5.84Y-3.845
X5.89Y-3.85
X5.895Y-3.27
X5.91Y-3.98
X5.915Y-3.935
X5.94Y-3.9
X5.96Y-3.325
X6.Y-3.885
X6.03Y-4.08
X6.095Y-3.695
X6.125Y-4.015
T2
X5.3Y-4.85
X5.4Y-4.85
X5.5Y-4.85
X5.6Y-4.85
X5.7Y-4.85
X5.8Y-4.85
X5.9Y-4.85
X6.Y-4.85
X6.1Y-4.85
X6.2Y-3.35
X6.2Y-3.45
X6.2Y-3.55
X6.2Y-3.65
X6.2Y-4.55
X6.2Y-4.65
X6.2Y-4.75
X6.2Y-4.85
T0
M30
